<mxfile host="Electron" agent="Mozilla/5.0 (Windows NT 10.0; Win64; x64) AppleWebKit/537.36 (KHTML, like Gecko) draw.io/24.7.8 Chrome/128.0.6613.36 Electron/32.0.1 Safari/537.36" version="24.7.8">
  <diagram name="Seite-1" id="boYtLbVZ6WQKFiRwF0dF">
    <mxGraphModel dx="1050" dy="621" grid="1" gridSize="10" guides="1" tooltips="1" connect="1" arrows="1" fold="1" page="1" pageScale="1" pageWidth="827" pageHeight="1169" math="0" shadow="0">
      <root>
        <mxCell id="0" />
        <mxCell id="1" parent="0" />
        <mxCell id="Qc-D_8kB3T4XEGCBFrq9-23" value="" style="group" parent="1" vertex="1" connectable="0">
          <mxGeometry x="633.16" y="490" width="153.69000000000005" height="210" as="geometry" />
        </mxCell>
        <mxCell id="Qc-D_8kB3T4XEGCBFrq9-16" value="" style="shape=image;verticalLabelPosition=bottom;labelBackgroundColor=default;verticalAlign=top;aspect=fixed;imageAspect=0;image=data:image/png,iVBORw0KGgoAAAANSUhEUgAAAIMAAACzCAIAAAAlhTicAAAAA3NCSVQICAjb4U/gAAAgAElEQVR4Xu29B3xc13UnPDOvzHvTMeiFANjBLpEURVmyLEpWc2THbS2tE9fYX5RNYsVOsvEm+62TzfeLs3G+JHYkp9iO1oqzTrEdKbZVokpJJEWx9woQhUQHprfXZv/n3pmHQZtBo0TGeqKAh1fuPf2ce+595zpjibTjneMaoIDrGoDhHRCIAqJNBkFwSaLgtByOvMPhdDry+PXOcXUoAPIyKpsOU9NN3scEJ3BXlsSu4Z5EJikKE9evDiw/062CD1kt19G2RnHIM3CCmORwfP5rj7x2fI/P47Py0I53jqtCAcElJiMjj335sc/u+rjdwVTZV92KT/V6Fe87nLgqTGCNCi4ho3qnGJ6pnMjn8xb+Z8fVA+VnvGVO5ClEeCd2ejulAg7DPt7hxNvJidK+3+HEO5y4VihwrcCxWJ1wsgMuiJ+Unl8rKC41HFPwtf9cZD8L5AS6R8eFnxSWufA3/8fPJ+6yJ6/3g2PKkQI+pfhO/MlpUiTLfFGeGsVWfJ+LAB5zsY410zQQ9tKf4IQz70AQ7AB7RZdTEgQ8zG4Sz67TsJh4gMjeslxM2oCOZloGbECRAhT0gzdOp+RygkM4p4fx1jxRngcnpsCUMQxAU+/zLa+uqvK46wM+RRIzmj6cSI0ls92RyHAyBR4oojgdONuasexLRe6/tQ8Ux1GQKnQMsgJEkNiwLPDALbhWVFetqA4B2YagDxQfjqdSmt4XiXeNRdK6IWMA7XIRexjz5i5/c+UECbUFcSfFhB6gp00Nde9Z1ba8tsony2Le5cy7hLxgOA0ohuG04rlc92j0lfPdp4ZHRMiLIJiWBb1wAkrLwiBTN3XTLCS/3lpKz6k34KvIimmZXBVAYp9b/rn1yzc019X7fV5BcuSdgiUgkWc2WXlXPmvpQ4nUoe7+PZcuR7MZVZLIHsyHGXPiBGcD1A06CFWo8Xg+vKXjxtZGyRKFtKCmVNEQBOKE03CaltOhi4ZbzlU1qhub6w73DPzw2JlIJgPlADPATrABScaaYHXQ44fckVW7lg6upbpp9A5f9ikeCDXYcNvy1vs2rGwKBIScICUltyYLDsgU2SuIneXKK6LmU9XWG4K3rW579lTn7s5utwihJbGbo2ZU5kTBxIMNLlda01fVhD9/69Zq1SPGpEDO53ZIkAuLcuh5kFRyCKCtqksOzZNLaXEltaOtZUVN1bf2Hu4aj6iiCHYm0okHdt73vz73lbC/CipyrXGC0MnnDcN4/Ll/+P0n/pcsuR+8ccN7O1a4NJd3zOfTFZfTZTkoPZqHjjvyskPEVIJHc1s5KyllnV7XJ3Zsaq0K/MvRUxC8uTOjMieoy3webEhp2g3Njf/Pu7ZCFoJjAa+pIr1uQCZKhJrZ2LyJN5x5ySHWZcNxPWUErd+4Y+djr715dnjM75bx/H/7z19qqW02TFMUoODX3EGC7FYf+fDD//Dyj3bUq/dsWGNFnDXpoOgUTKcFrG2IeZDCsDah3X5d9UWVITVy59r2KlX55p6DYNkcmVEhirWNHXxDSzDwiZs2CZarPlrtMd26w7BtCznz4sHPOYjgU8D01ERDklP4pVtubAr44PTA1x/vewaPX5tsAGCgHX7uPrn/xjrfXetW5cdcjZlqOGejlAdFlG3cQQLTCX7km7LVrlH3ppa6j2zuMJi9KKWPTagpJ5V1AhCAdnC5n7xpS0BSqiIhOS+aDrgDOgq2i35TCEv6gRusbx426A7TYynVsZAYjn3sxg2PvX7Aq3r//Iff3H18j+pWyapdYwMOIACLiXDImR39xPYOZ0Ksz4WBBSHLtL+A2gQH2EVmOfgDkNFaPTgQ0+9dv6pzLHqg9wq8PUIvTskFcoLbpWROu2Pl8pV1YfeY6rUUSLrdHCe3R4HNcWiI4SQRV1LZXDEUJBChzj5TyUS1DU11O5Y17+nu88ryG6cPsCkQQmE24N7665y8ZP7zjt+7f5fiUsKpALwCFzsOD8CVRVGRJc0AHZwyopacBkLbTAI/gHJdtmooN37/hlVnh0bh/8uzAe+W0wkm5g5YcxDuPWtb8zlnUPdMYoPD4cZwIZ93N69QapuUUDgXHUte6Zb6u8npkeUsHNDrkOYd0XN3rG0/dLkfQZTf48c9zsi3nuJleiSPqOu3treuqatxjyuyQ5rkGJxOn6rokupbvd5dVQvnrkdHcudPqqaWzGRL0UFw5Umoy2vyO1qbX7zYhVif7DIb5854lOMEXgMnM5a1sa6mKehXIwpah10qNOR0yi6X5A/W3/Qeb2Mrv+itawqv2RTvuTB8YLcrm8GQwe4VrkJOyS0h/8rq8OnhEZVFeDPC9HZepBE1LLu1qblGMMSA5oHpt+FBpCe5XOqK9a1bbnaJcuF6S3tw9abho3tzF0/Dm3LhYpbA8huenJbdsqzuta4eIAuTXQa1ch6bVJVxcXNTPXyDqrv5sJM3B3/rkuSWOz8ANuQtE2NK9jBMjhloW914+/tceIC5Pn7gtqohchLX1IUp4MVAryxkZYC+erfILZtW2KO2V4dcOYyWS0I7aINb9ratrd/2brABAyPCl4+Q3ErjzXd6Wlf5FDe5kSJ8EFwhI7RWBWu8Ht1kKZDZjwqcgBSITletX3WZLikvonPeFLrDSK1q0w7ZF7Qs0+nCmM/F3DaibQHMgHL4Vm3wgvK4zg5YW9mSXIYLSQI+2L4GOQHa6pbZFPD7Zbc7KzsRCTHgASr8gSF7GnfeQTxAbAIhI3SBL0tp5PONN73HcIkIbTi+/KeEdyQZFoUNQGY1TbhZjhPoAI5IlcWgR3Hp1DNvndEbVitfvXo9WneVCk4BbheuV6/dnDMLfoy/iLeclhOtYfxJ4+2ykJXi85adcwyhygIozNxcUYydbknyta0WRIkHUKUgAS3gIiqq0tSGfBQxiR2wD5Ip4O+golTEthwnqC3YEIQKaM1C+4WHwVmM5CVfAMo3M5ehhsg1qTCyLIFZPASnIBiCV5ZkQbgWnQQL45Bcaw76REpmCPDVBQSZGEqKygg8gVHpGZghKZ5ShG2lh9jhyXK2qbxO8G54cwDIdhJokf6smL+jhyZxCrBC3aFnPBszM0Jv91VgF0nn4PfyLqQsi6adhj2MksCoPEVLbtsU46mnmaW2iG85nUDfSPBmdCOaTuclizOWv4jQ1sokzEyGuDLdyDC7qSXjEhK4Jf0bedMSrfFUJkN5wlLf9naTv9g/ZZIc+VQuB49oIr0ME1W8BfTTY8MAejZOgFyZ8REdwXuRIC4HMRO00A0DzCjPwXKcILFwuRCJJrKaBU7AQhEgRHo0jxB26MR+XKCoqeRgd0mEho69QcMZhIQF3XSiBUuwcggj5pyhfCtZxMEmF6gbOcswBJ7OIRCAA4Zv2SvdmegovCRCkkkow4a7XMmhy+boQFbXuCUgWiESE82saQzEExUXGlfgBBHR6TgzMIaJB03QbBkB0GlNS186F+u9yD12YcUai00B1sipQ+bw5UyOwOJ6DSeREzTDZZ7qH6WI/Rrz2MAIcEIDJIerOxbNDDtqDP9EoglRNx6wjIG9L5qYIoODLETtpP3A19RzA/teQhjJJnHoQKyIQ3drI6nUUDLNZzDLCFY5TnCaIj49OzyKmZ+MkiVwioEszgzLHHz9ueHDeyxDZ/EU8cDUcv17X4geeyOjYZKxABbXjIyajWay54ZH3JhYhbaWja/LAL20t7gSc2AwfSWrolwvXkkn3bCkTN2JSZDHfD6jaRhRX37hh+mRAYrOCWES/WR/T++zPzBTsZwxoSsYTGQwqaYY5wbGErkcn8grA3m5MTYxFvEArFAydbh34M7VajqTUzEq4MzIw2fjn5W6eCJy6by3vhmRkallM0NXxLyZRU6myAa0IzgwpZQzPcbhcwOj6QzCJ1jT8nazDNBLeIurApGbhMzhrVF8YVl3Wq+lunb5Vgo8YmVBKu4CYM0whcjopWf/Ra1pcFfV4Ap8Q25sCONc3JrAyOnADGZCjaZMfX/PFcTE1EAJQaajUI4TXKIhvKIr/8qFnh3tLQ5PUk1WE0QljaaymijoRn8XpAPomDlNK+mVIwAoYr5EIqe9fKEbrOVg2c5wOlhvwZUCdkwvYVRE2eWrU9xeikxkh3BJG38+cf5jVVsiRgbTWyT+HCZohk5CZsVG9WSE3qXohaySzQbghenkmJBy+M2953ovjUdVUSDjVsxPz4hdOeuEF/AyjB2Gl1fi8WdOXsj7zEH3uJSnYaRtpnAKH5zM5vAvDd9OkWqhLzwD+KAQA+pYXjV/evIC1AutcbBmBOituchVgUhD2Zm8p0quWuaVPSIoSsTN5z1O+SfxMxdyo16nBMKXQFVgCdZOcJRzus4JxZ8hNsAuObVoMN4bjT1zuhNrDEBHolhZnajACf4ymIGJz2fPdb589pIQtvrdYwi0XZhHZyASufEcDnLC+FdgBa5jchu3+5UROeR84UzXCxc6PRLNZlcE66rygwDkqmBYLskZalGhDeQIKEfHSAbIKYmgPzayJ2blPE62fgD5CIYuDgKP48viDqgMMz10A/PHsMNjVbFc3nj8jaOxbJY8xBySbBU4gR4LOuV0IkXxw+NnXj7fjQT3kG9cQ64SU7iEQUFmJiQHQWzeibtZlz4UGLeC5vNnO588eY6vuLEJcVXJPWPjnIhFVbCUoFS1zCN7hDziVRtT9iblK11Snx7787HXos5MKpgckWJ4kfgx7SACWFAFEQwZkxJjVdGkkf3r1w/2RKIeWQKv+Mhu2nuTLpTzE/xBQI+GwFX6mc//7wNHR5Op+zeuttSIO+n2aqqM2WhAyBwaEAJYZt7SBD2ppHWvhmj6J0fOP3PmooqEzDwXnpQHfV53bR7gLZggQXL5ahW3T8J1xEc0S1diPbjwUVpbcp+JDj3S99RDN6zf1Fg/lBtTk6pquGGfEdBzx0AoI2/oNJJiNuNJY3a/bzT2d/uPDMSTYEPpcLg8wJU5wUG0meGRpJ+euXBqcOT+9as2N9drzpykiy5ToBRh3kXZfBnJsLwm6hlTP9I98ML5SxANBEuAmLOTE6U8WEt7l3ok5WVG1HJAFXzVbiSZeQKgoPSsS3ZOlIWVwkl0OKPFjLiReezVg7evbH/PmtbGakvLY1zkcmpOl0nUQ3YKCQhdQlBljqeyzx3s3HupF44TkkdsQFNzW382J06UMgOwghm90TgWzmD13+ra8IamWmS/A4qbRtT5fDSbHR6Odo7GL40nLo6OYdiA55n3mJOSLj0PimkVeGZQ31/nVgISuTOowmRHarME4g45SoxkTWQ9nA43TQk74OTe7L28vr5uRdjbUh2s9QdlYOxwYAwRz+T6rsQuDEcw8BpPp2GEebIZd+fIBmA9V07YzABBwWpFpCxs51jk/Oj48+e60DESv+BEztAyRv6GVVtODvSORkcCqgco43kaxc1NNJaQEwC1KOYUSbj9kq/GLRRzYVNUgawqPDbzAqmxXGpcwwnmuvCT4He5vBJNXL/W2WUqO46OjvYNHqz2+4FdTjfiWSSqMEBC0toFsUOvHGWwmsMwF6TmwQnODPzkDgOYgB900eFAbmoomcS5ZuiP/9ZffujWn7sy2n/vlz8yHB2VRIwfCgOIuQC0JM/YPEBrRVVQlACJdjlVEJxGzkyO5LQ08hnAjyJ4ji8zMkIyE//SR37lf37699K5zAe/8om9p97E16Gk604HLapjpABvoAoLQHmGSKAiLWw+4wQdc1gpr+LI14eq7922C9eba5pu2bADEHPrXLHNJXygVBUw6JK9AgIkskjIRLDkNh6wn4H9wDmsFP6lx7VIX1pLmzRPxB4jbhQH2Fbe9LjVX3zvgwAVJ5+466OWZWCRB1t0yZaI2ypY4vznjtf8dKK0XY4MCQKDgJ3QQpBEJoWFTBgw0apFHkcX7s8dqoU/ycmH96EKCOj8dYonSOaCWZ4ZAiQ8iZlfPWsmhnM6VAH5MKFgUsCDUjiIqaKMWS6OLy3WYjGIjT6jwMJRXTgnZqQWoIeIEA6FCGQehnLGBstf5HTnpoC4ThJPPYINbp/or3ULbgExNRrh13lrJeBR6J2OasnRHDQGWR1OzSk8sN+CeE1wmo/pGKZLciwxJ2yYiCRMpjjaSwLrlEY4UfAzloxBVLHInihl4mMHR6BeUbkqGGzYTCFpgWD4k59DRUzNSo4iS0NeYTZVKO3URorjxRFcKtQW4ieWqu9FtgNC4AsM/Hz/Lfevbl6ZyqaxVk9SXFUtHuSRiPLwCkiCEhcKalFgA1jjcmJNIrwC2DDFKywSqgW/frV0YsEAzf1F0DOn5/7m1/7iwTs+FEvF3/e7H+tJXAo3BCn/RcsPZ1UFy7DiI9lsXIcegA02n+be9dV48jrWCcM0Qr7ge7e+B1/+BL2B9777ViHAZp55gDSzKjiyCX28N51L6AI+BSwJkK4GcefV5nXLiWI8msllKUijpVlYIV8IPad4BR44Ic0XH8jGBzLw4VAFkIl7mnnR6+o9fD1ZJ064gp+E7TERpwkYBpMjdZA2sAV5mO6fmJMpWB7BmUvqiFNhl2wegKZL63IXyaTrhhOcDSB1Vsti/hxhGcYunhqse+YUQKIll86lFYk+U8RdxP7gk4Mtw0gOZzNRHZmMa1AVbP5dH5zgbMCIIaWlVzUtD3gDNKIVHHXLgqILH/rR0RJu2dK2OagGEMniZu9oX0pLujQpPpJBIs8eK1xrqnCdcYK7VsSjj/361z582wMexWMjYJ984d7/gn/8T/CsPzrwxW/9t+f27PYr3vJDtulNvS1Xrg+PDU6gcN6q5hW/+N6PIc2gG1hpZ/B/tnOGUbIvaobWEm7+tXt/GW6chhTsuKa8wnRmXx+cAB2R0x0aHz7bdwEExTlKt/F/Nn3hFeyLbLydf+qNp/EBBDSJXPrkJNJ0QrztV64bPyEJYjQZe/9/f+j2Te/in0rKXtEXUr903yMhbxB0/Jf9P9pzfh/S1OlYTkuZ565cPHD2EP5ECoTGeNf8cX1wAhINgroldzyV+KdXfkR5ODOvVEt1zcGHd32ec+KNi/sff/WJ2kD1eH8qHdEUrF0CG1ha8HpgxHzm7N5eqeLMwPChyh+iSQVwwi9VefwYQHDAPG5Pta+6yhMy3IIaxPLcwtzJdcEGoHB96ASnNbf1fLUEMktY/IiBhb10FeJPTptdYZVPipngt1eC5tz79eGxp6MDB0z5O6dLFrCqgr4PlwRaMsO5tYgJm+ldvUVXrldOINfqdovxTKJ7tBchExiAAQROoBmUiL0OPPRUBl9P1smGnUYHbPYBP37nH3/vwZ0fPT944eXTu/2qDwMNJJfe4cRUPl+lv8kEkfBbHkm5Eun//578Y1GQfG4PRUrsQHB13THjetUJOGRMMID0siCrfhVKAm9BkxOFaWXozNJbKNLFogsqPV8SgVtiTtjw4QSCCRBt0JcEXN4I2qSVLbQIgwwUIiVcJ0VBcpy+N7wqiQ1qli2WsDEqPV88dgv32GQFWP/MHvAD32kjEYH1oDS97JaoskXxqcWDOtECa5NTfHKzToepYxXSVeEEX0HCJAyf0lH2heI3xpsC8kwNF4zvvDlh98qpDEBwgk+ssQwQAI4nY8OxcZoYyOfP9JwFM65S2qdcnFoitkvCf0KZbVWA2fJXj72OE5jBV47vxfe+KJlChSXZB0VECj4duyB+zM86ASQSRVaMDqYni0CFfYgXVN20HjSP1Zjar3/9izs23HK069S+s0eqfQESoqIjtfV6sQRCSVr2yeSUdvgM9tSri+iMCzjgZyP5vOL2/O53/+R4z4VcNvXyoec7Gpu5nEXTWRQiAil4iVJQhl4pMmaO/c+DEwCLw4Q+8EEjfnbUVW9srGurDlZ7PSo+2bBQK1MYTyb6hvYF9fS21rZzQyNYWMqXM/N3l4YZ4ASqYbCFYqUHcGdrw2A0loAdxAbm7SB2+JnQ9FqvZ119TfzKvraaqv9677uJOax7fFo6EE2c6B85PTgyirXiNKXrIkVhrmWOKM+VEzYb0C5UAdVr379xzdqGajfKGGj47lIQUmiKIpaw5FvV1qivMLKWdnpg5McnzndHoqgrArFaKmZw/KdjCNIZGq3ZXvxRyoacgXq84r1rVt7R0d7g91Ft1pzgyCD5xRZoO61qyVrWVLV1WdNoKr23q+/F85cyuo61+yQV4MfcmDEnTthswApELKD40KaOu9etEPOCEle8uipSuRYsTy4c+ZzDSCCiNAU5s6m+fl1DzTMnLz516twSMoMJK9GbA8ZtCBGFLfhgnmtRB5pA+zgg2mldbw6gFOXm1fVhR8blGfWqqLFH3+FN9GNhuYjTyog5l0f44OaOzc0N33vzWE8kxr8pQju8wfIwVeYEWuGyzIdLD9+y/cbWBmdCqE4FUZmNAgkkRkuKRjICOWRLVHPBrO4Z98Qe2Ly6zu/9+0PHAdOSaAbZn5Ll3OUxXPBdzobNjfWf3LEl5Fbdo2rI8KLUEL76smizuZIDQZTD6TNUb0yNp1NtwfyXdt3y13sOnR4aRuE+nrKsCMZUUzv9BSIfE0J8PPML2zZtb20Ux+WGVFh0CKgJSF/8TpdBPO7Mo0QkqhvVJ8JS1H3bqraHbtgAs4Zn5yIg08EovQJO4EM5rNXg4mbfsnWl/Ovl79qSh7iorSr02VtuDEpqaDxQYwTgn1Exmag+GWf8CXxRHgLlb6oMX3WkCjL68G3b1tRWo9YxqMdjlvL9VuAEV0FYOhDxAxvW3Ly8xRmRGrQwlbvjNUkpiCZW0JNFfS1ccaDkCmlMo1ZtRpwo83z3mhWoDA1ZKzxfHrTZ77J+wIUZmGpqi/USTPLgb03UBv/cLVs9LjkcCaIiqIaKoBwx1kMBX44y4Cn4Ljxkuk2pLlalOKVP3rwlpCpUn3QOrqICJ7g9QR2ExoAfFZ2FtFibCwEmWw1IwBnJMLMM0FGl1OYHgcuYBOVoyIZdaeF9G1Y1+LxoDWJChFzEwdhA73NZ4a2RdCyuWU5fQJfVzXs7VjYFfYGYT82jTDGrBFEEGUN7oIBwESiTwZisIvAZSl4OxvxNfv/Pb1yDYsUkt0VQZ0O6HCc4WKzsneP+dSs9ghxK+Us1E2ijBwBE30x4As5A2KkG8M0dPhEs5Qfv25/y+t3uXWvaMQouImwzdDbwZr2O8UTpPRIIlvVjJ7O+VfEGSR5tqpFfHq5696pWV1IKml54wdLOcI4vPB0YY/vDDn+VQxC9qGVacuABfIOL4tGuhLitvXlFOJQzKwtfBY8NhiOGwyYTm1vq5bTkIemYKCSOuJnYUNO4bOu75VCYqGBZqKAyfHSfKzaKegoAj8iCWWcHEFIy6ezW1iZ8IYlPBDHyWIz8wk+UIs/YQDzg/KhI8dkeQCM4MGze0dbkk9y+qMcuQslxwTBWkKTgpp3L2tdIHi8u6slEvOecfuKAoVPhqkLL9Kl83pfxWj5jR1szPg1Fs3RrdjEppxMk8vA1Dufq2mqooaIpMPoUJrADE2aoI+xft7Xtrg+6q6oZIWgg42lc1nrPR5Rlqz1upDqokBM9TJ/DupSsHFTcHbW1kBFWWmLh0suIXsB64lceO7pOjmqmPVL+ApoENRFwr6irEjURhXvs+rhAUJFQlTHQes9Hq9ffSGwgAuUln796w/bmu35eVPDehGTDgeN1ISN2NNYE3G5ezbpM7+U4gb5plJ/Pr2uqQYFRt45SQEiwUPe4RSYyXF+7+Wawq9QO4k+sG268eZfp9qBYCprg3aMCkWzKoiWsb6pB9MFzZ2UgK3OL8WDSDAQHiVFmUTMTsAEsZAqinL2I6liTjSBgrrvpDiVcS/OCAIIpENEDVVlrm2puuBUvFGS/KHySJqNYLIJ46Bm9MvtRgRNQCXxU6ndL2OMDC3yJAOwTV/SHz9cat9/OWp+ImvAAK86GdagiKtxiYM2dNnsxjzr9qDvrJrcyp6Iis4EN9NFwKV6Ah/GAjrL4ztZk8Tq1Qp/0yjBCJuxn4TqaVd2yWNsYaGkH3Skjz60NQ5iVQMuHV2/I+8O2j2SWMo89UhRBbPRjzxP7hZlhKMcJNET1YiXUi1VRDIJHn7wZENgUJNkf5MhPbZt16q1tzGGoX+LsMBRH5d6wV1XxJQ/ZzHIyMrXNkr/RvCBPkInfYTygowLGZdoteDWn1+1mAoSwsFBLDsSGRPoa25j2TwoWeHscF29DC8rK2jSHgcJIEE0hsIRMl8e2HCdsmLlcl0g3zUOIqgobMyM1ubzQh1MMZjJx7GASS/U2uU7Y7c/rpNgjb3vSq5icMPWZRprz6QDuCxtgUU1okLEYt9KojZkjRuUZOFG4BPzwJUexO5tifGQ3w2slgFXgBPQABg7FF1HTkq8sondRugWBQiqJNMeEkpY0ymUTjxCjuNdnd6lYnWhiawfYYps9Je/N6bQo+zMSZE4tlHkIxIISX4kldbJBhgu7o7GnKVKhb7xpOQ+FRbMceZPt/FG8a4spNycL1wngjCayqEuBev5icUkd6waahiokqZFBgoyVLZx0MJMd7+tShEkJGsgVPi2JpXNInNAQZEF2BOjB5JHVm4wZE1k6bPynQjWHv6lJUJrFdSA+YwP9wF8o2pHovcj+nkG4ydhaVvJyD21KUbS6GKsbArTURFWZitiW0wkuzyDqYCyFkjko2cSdNocMd4cOvGoaGnfRzD+xgwq+u7RUcvToPnBxAiwH9lzSTdHqG4+hzQVHsegB/pLGE5M5Abby/hfGYM4mvItK272R2Fgmo6kaFXMraABG3YYrER09e4yy3Jg5L6JLiLB8xtCx/bKexvALd4pMz2uyjtmLvkiUlKus5FXgBGw8mH1ueAzD/ayo2cKAztClM5MY2PuCkctSqMoFEj9dgpaM9b/2rIs+cZio2oknMnIO+75dGBkneZ5DKqaIz5TfBSG1jXjhNk1ilxBhlpfLX4YuYJYnls1diUZgfCIAACAASURBVMSRP9KsCeHDi1ldHz+2P3bpLHAswZe+7oteOBk7cxjVfbnkcUIZsGduYyCWiGYWV6UUVAVkqJUM2l2Jxtt8tDOGLTvoMoWOB3q6fvL9ui07PPXNgqzo6VRqoGf81CFM2QDuUrShpJpX648lUXgL9WJJtGdx+OWJxYMx4jh73bYVLP9DpoOflG9k1ruQECZSB3oHtrQ0JNyZGi1QqN9L3hGiZY69+XKsp7NqzUZPuA7qkBsfHT93xBwdxF1bEKAU+MYvIqZMyTzSN6RZGEmxPVlm7bjsCmX+ItIS2Kfo1Qu9n9xZFZVSNXoRMmYOWIlSI3rk9cs5DZ+SoGyv36PqWaqQXtopUujD7ghKO79w5hLU3K+4s4gCpjuY2QG17wAfzJziYyFKrLGvVHCL+OpAlsLARPpipk7Rmo4CHg7HwZ6+O9e0rw67tFEPfTfJTCHu4hcEXx3qHRzo1ul7yrybfXKZyUHsJlCGQKCIejaY6Rod39fdhwFKxSi2Qt6J1IINKfb1XN7W2thRV5scl9imUax0OR005sAWPeyUlKB4XgALv1AuMi6ktZB26sowyoZ5ZDmeSdUEqgsrP2ZygKzlmQ+YZdRQDARVWuzCqIOfxAl86us0lEx2MZzgDUItMFX3kxNnH9l1y7A30pSsYQ6D9I97I0qp8WkbRz4Ll8FcQKnsIdYa9cRQhPmZM12YUEDxPZ7tKKMVFTgByCCDPPz/3sHjv33Xu/IhhzPq8lrFRDEjAwBBH3YIVdof9hdMujKxUCKaznz/8EkMQVPZ1Hu33vH1X/1jL3ZrAAZl/diM3GBmqOCz+C+bFmVQnbGpGS7ScI68xXee/f7/ef17n751x5Ax3pCrtpCR4jRn4QZRhkkAb6EglYxb0KFhJWYE9H8/1Xn08gAvCAhMy8NWgRMkaywzgfUjI8n0t/cd/ZXbto1XRc2o34996hDv0Q5jhT54TxP95VG2U4iISZT4jGqZb752YCydhkLggf/xif/aVN1wze7xCAgh/I988HOPP/u9506evXdjR39kpDZdhU2WaOMGIjcd0ykLIwwNQZliZ9A62j2Aoq6YI+CPVhS4crGTLS/EDJQVliUUZ//L3W+OZFKJ6sSwEkFAVSgZW3y0FDgsKhj0jKfDycFU8puvHsAKDyQNIUNII/7rnp/ijWt2j0du8Q6ePzoSHf6nY2f/9chpy2+OVEUgVVBGkJsVRbaVkmq9o040UIuJmaHgmBUwnz198dv7j9BOOXzqdA6BYgWd4Jzn1pFqAkgSNpL90xf3fnBTx7a2xrzPcGUFf9qHDCv5tKJS4Hn4hkg4FnekDl8ceOrkOZTqx7toAbd8qu/RJ7918NwRWCfm5Qoo2YwvfwL3gO+6UGmU1jIUbRRJscuJ8jT4NynVVb6tsncPnDuMVIIiSqg5PJLM3LNhRXO1qWlZVwbbmCmUzYRuwJTBZGCOT84Z+DpZRj3E1JOvnz3Q18+LJMKcQI6na8/0nitzosAMlvxE7h5hAGbJv7P/yBvdl29b2dpWG1jvVkM5H0I9xELMpyFNaw2bqT29PS93XcJYBKLBt2QmW8kID2145djr7PmSgGM6dDNdQUIa1V5RbBRpZh6wAk80CwBjVzKZJOrWzo+10zth7zu92O9YoH0T4W/39vQd7R+4ubVl58pmTCRrQo7UgkoxYq6eShgl9NxQInm8b+i1rt54TkPRboA0dzagvzlxosAMhPDFkp0+WKqRMZRHxd6+tyxva/WHVYfUJPqv6LGUpY2a6dPaUPeliJmxeM1eu2on6Q2zwgHs8bggioETXo/sU93s2yFqgkscVCGvSm4H9qFZULvTGAI6UuNE0Dwvh/5yZ/ee7l5MXbSHq9ySC7MOyGb2xxKQwfPD41dicUwMs0KlbM0Zc7Ectmltz3BhrpywEeatoyeufemcvnuwCxWcETlhVojmjNhoC6rjV2VoD57EuwWY2DknHw0meMAxA1TlLrFMJMswFId1DGsaJ+IiVgvP19yV64xBCxtEkoTpSOYve6KxrvEoaSHjOGJp/MYUESZW8dE4rnOxo6RIaWBbvpu564TdDm+d+3CK2LD7pEMKCJhYJUfB/RgxA1X2UPe5OJCeF0yVYHaIfDRV8hzIxdgBLan49vwesPGFjBGTWWKqWEBnoikuVNPFbu6dzSl2mt4chw+kZxJKQgrfQIrMyrtzzcAaTby4tDwo9Es0nwYUAn5MTlydw+6wiDgJPjrjGsB7tWGaCbjKYC2QE3bDkEF8A81cb9FeF2w3Layv3P88n+Cyj5emyP7V04npABJXmKubcjL9yXldmYefmLFdUITNrpNY2PBxSjFAZ3xpHhd5mzCG9jtYDI3VPXZ3/HoxL7Qw10NtTO9oCpQMHTq4n5sHDnN7dLGcAK3Jp5Us/SwKC1u6ujit4Ggjhkmkk5zW/AqSOILpxcILUkbWB82p8d/FK3NDv/AUbxYrMO2Opr+OL+89igqUYJeuBjMWywmmE1SnYcp4ChzClya4uxghAsL4otSreN+z5Va+4AWtgfNiMH9m6MxofCzoCfLPHcEG+sIOYCyI+XgLSPjQ0eZb6Tt74m1RiKhL4vKVsYGjnSfBcK+iXg1mLJYTgJGctZVHoXMGc+HgPMCVUsMyXdAqXgEn/uY3/uye7XdOebJr+NKfPfONZ44+51f9eAZyQFHtQrtDBBxNx1BN7a8e+f9nAwm9PP3m81/9/p+f7b0A5YCmLozrs7W/WI/NRZ5bpEl9sE8c2Ie6i/IVkNDNKzZQy0hYkfYVEr4r6pY/+qk/v73jtkQ2AXWZFYzZ8J58ncNP5s6yclpuxpcAyQduuf/7v/ttjEkNzFcuSPlmbJlfXKxOACAKZGG4RUoM2D2ReNJKFWxQuVjZ+fVHf8fv8T38wGduWrsVU2Z/8oOvtzY3ffzWB9HF77z/N/de2E9sKErUwgjEGcl/4vPeA+eO/NWP/w5pMR4Ugv84f+TDDzdU1bc3tO5ct+3p/c8HsUX7gma6ZmPGUnCC/AQNqUqlnzhEq0EWFWngdUjiC4d3R6PD92y7c0fHtkgy9pdP/a1S59y+YtvqhpVrG9fcv+Wefz34b2F/VUbLgjLTx1yzYV56nfMPP/nx0pHdj//4O4FQLXdCsF2JVKJ3+PI//7+PA6RVzSt18xl6ZVHaPhWuJbROk5pmckoF7BcDLrBFO7AGfkzwiew7e0e+LlibNXKPv/pdTr7PvudTPjdKzNFK4sUZwgn4AbjTraqyYv+TZSq3xp/A3alUXIq/F9soFw3ELVPMJigINtAywMUJDtqnbBKUjrEU/NVMLaQGf3TwqWM9J3Blc+vGD2z7uUgqymY7FtcZIyggrwlVb2zv6Fi2uqN1Dfu3ekNbx8exCQszRwNjA9wzLQX9J9pYrHVisNMwmydWuTmyf7KTpQQYfKUtn7C8Nms8+vxffetz30QXD+382NPHn0XtP64li+wPXP/0PR//5N0PkWYw6CmbVEysojvEsorsXlongV4WqxMcbZsE/MT+uXidmE5WriVet3ffhf0XBjvx55a2TduXb40lEosdSbLOuBjR8KUoRGiWx+KYOHr461+62N+luBU8Nh22xVxZCk5gSEG7qxfQwK8iJ2iYvbQA28MUUCqRTf71i98CRXB8YOsDSxXgQxUGI8MvHHolkUnyoKNroPvZAy8+f+jl//SHn/7eC/9cKLm5tMq+NDrBk4CM5FxSij+5fC1GUGZ4F2zmagEffm7gPO+rMdQACi6JnCKp9f2XfnD3w7u+8aO/4c65f2zw5//HL3z0Dz69+9je6kDVUrF8Cm5LoBNgAacOCFHUhkK+4GqkYwWZKA4aYRfDjqY1vMeB6CD1vrBZwMkkIXbmHUpN/RPP/yMiV/xx28adv/L+z+qmjv1G+FT8DAKy6EtLwAmoKaVjS+b3OVTACJ/m2IqyaFALDXCuYw2gX/E9fOfn+Z9PHvwxFswXVr8suidQHx+oDYwN/uHffw0sx3jpdx56ZEVjezqXukohLEBeIk5ghds0Ttg2nYvtoulDDbAohnJZ2GriXWt2rmpYiT+P9544eOmwR/TM8P3A/Hvl0GIwH/KH/uXVp5478BKyNo3h+v/ygV9KZtKFaeD5N1vxjSXgBDdKQGCKmQbVWE2qqdcrwlTmAXCXGsQSbEn5rfd9kXf9d7ufiKVjqPg+BYAy7VS8xb6ypf++8sRXETKBMZ973ye3r70BafOlckhTYFgCToAHfIJ/iuyDEyiayFbnLDzgIw2gASIG63xgkvd4lGg68fPbHljTuArIHOs98dzx50OeENYSLImf4ARCUxhYoOzpiUun//75f4Ibl0Xpyw99EReXOmgqcGSJOAFTWhzc2axevHXiIh9PJxKxMfhntAxmjyZGsQXOZ2//JJ++h0Jk9Cwk2B5dVpT36Q9wWcFP+4SeYaVQVbfypz94bCweQVb8526+5zP3fXw0HuHroKa3s5grSzDG5vRi1mkyJIipaFBE1dgXFtSgTeB/97ZdAY9vZWM7Ogr5gw/f/Uv1ofrVDavQ5tn+c88ee47S1Bo+cFtgL5zBaBxrZLiN5fxABIXxBLay6Bnq+/K3f/9bX/o6/vzCB3/5R6/9BPZqkfMu03m2BJxAo+ABTRZNTscCH6oRh62OUXtoes9zuMIp8o1f/WpDuB6PwzLAUj1y/6/xVxFWfvXfvoaS7io+p0CljGmOag49FB5BRxBzDOjwMSZOQH1bvOAhgl7/P+9+EoHs1tVbsC/Mh25933ee+V44EF7ahMfSWCdkxvAl1BQDasvXgg0r6A6dONZ5khMM3sKWxM6hrl95/Auvnd2DbYj4nptMIBbokMgleHz/fujl0z3n0MXxS6cxS2G3BkTgNr787T+AKmBXye6hPtoReCmyjaWysjQ6QZBOs05crOCxMdhYoE44IKoSUj2YIypMzLmc2OE3Z+ZOXj4dTUcDHgy1sPzSRV8YTQuj564TRGpax+f63J99ob2+9ZXje2Dx8M0yQ4u+5cEa2f1nD2FDTyCFk4DXv+Qj7aXhBNBgyyAnHQAasRNST1pm6q050ogZDQG7OD7z5guQeLhoLL8Lt/mwIZEiuv2Kn0UyREa+0mcxtht94VO47sHec5cvBlQ/hiY8igWonBmIow6cPwKOYaTN+50jFnN8bOk4oRfIzVXB/slO5gjM1MeYntE4DgWvcI/OBWdA9eInaMHJgYvcJvGHiS0LOojc2IBHdhd2dy5Z3cGZge58bPe2q8EGNLs0nAAtuGzCTnNa2BRB7LQgyhRe4u3whQSwPy4kd12YOKK7E11M63RhPXJecgcwnaOMVeSHpt9aWHdT3qrMCS5ypfn66R27RHz6CUnFLB1zCUwwuQi7VVlPQq4XxQ/eI0IzGCuK5ad864jGLRQ9oLIH02F7a65AnxbpOSpzApjAPmB4hchhNqxAGjEn6F4vZxuXGs6JVCKXiOWWJCkLnZB1wUxi5cCEbPJeEuPZVBSfIb9NnEAhIpnmvcGPBWtMBU4QnvgkNpu+e9sdWB/HvseaqS9YJ9GpeKWCatNAjjQZj+o5U88sTYYALWLs5fYV4kue20CP1EvWxL+F+ojZBKzydS55Y/HxJ/c+fa7vIs2qLnRFWgVOQOVjqdhDuz6CEWZluH6Gn/jlBz79ri/cNxwdwUBkYWSoMLKDuGmGvm31FjAfC4oQNsyxG/jUBY6y5tbBAj9Imlvj0yGHpGPgMiP6MNq4FfQGG8K1OJ/JYsyp1wo6AQagaUT0aAxpGYxmhyMj3CHjCm5x8wVjhOGb7kTBlLwC9+1whAQFmaBUXoNNz2kWFivTpzhIcBYtKdfrMjBylPAYpvbRIKquYhIEq29RfhA1UAMuhb7ic6ADWoAjYw2ik75/RXhjvziXxmn5BmW3LKxvJhyZ0w+qCvLgqEOF1vBxCL7OaatrFoEXyvdEhkF3rBunL3doCCJVB8J4Eed8Oq8iXrNBVYETHCtKbVOtJ+FY18kHfu9B2naUHTTUoq/b8igtH1DdN65o3uZbtkauwZUa0YtiVQkrizK/L4yfPTk4fDkax6xa4dtY5n44AjNCxnlMRHJQmVRwojUUbKsO7KxZvkqqw5thQR0xUnh3QE8czl3Z390zGEm4RRFpeJ4O4i2UaRy3kE0BqNjBAYVsV1ZXbWmpbwqhYJ+j2qOiFhiqAaHEyLnBsZP9gw31K//ut79Z4w9i3PeLX/1lkBs5WmwMsnXVlqf/6J/RFIHKMCrT74zA2BcrcKL0ZfQBJU3nUO6fqhbgFuaBACt2BHhX+7Lb1i7bZi0P6h6QHlIEKcPuMQGnz3SZ969Zftuqpr6x2MsXeg5fGQCxoCJs4fsMc6scHwxxaUIGVTEMs70qeO+6VRsba1ESsS5e5c96UbPWMPQ6BwlEk+y9SW66bXvD7v7O589cGsvgw28IL6VRqfDUtEwUoxTdgvAz4IW71qx418pl1V4VFfRFXUQcnk/TF4O1kmoq+ZVVgbs72g90dv7R4//99z//x9j/9ptf+NpnvvZrSEChYAv2iuZk4WCXp3X5u/PgBLBCfwjnKdWNuhaIqTR9eXX4F7Zvaq+ucmouR9yZcuBTNwRSNOEFdHNskWQoElLknL9W7WisPdY39L1DJxLZHGqvghkkRDN9owlmwSyguwdvWHfHmnbsciGnZSXpFg0544AtRnCG/Cted4IrKBpQI/jvX7/25vbWHx8//2pXDz49RvEMslSTG+cCiz1EIL1JTb+xufHDN6xrDPrkrOSOKbIhogo1QVRMKgP6nKChsNUdqzcMp0Z/+uzXd+x48IGd9/3gK9/9+B99Pp3NUCqwaA/LE7ri3XlwAmhwTNAo2JDIafhS/JM3b1acojqmBgyqZMsL5rEAlmwnqavD4bYkNevWs0bUnUDRpLqA9zv7jqCuGC8tUgoi2oe2wRjCJYBVn9mxZXNLgyPuCmX8KN/MPqc0WcvMDrBJD2K5wwqmfJImOb3OX9ixqdqj/PTMBbL4xda4ZhDw4D3DAsVodq1a/tEbO1SHrI55ArqKYSkvQ4I22XClcKimjOrPuRFd8IqR1OWfPPMnH3zfbyKgf/y3Hv3w738ih0kq1gt+liKygPMKsdOUFjlKQBHebGdry2du2eI2xfB4KGz4KVYqAjMFLDJWDgNVwupyVYExf6M38Ou372itCmaMSXX3bcLRVIfL9au3bceWGtKYuyldA15C9qlaC62tmAFm1GvwGUptNCykhA/duO4jm9eldPrEodRAEfCssiFk6M7VKz518xa3IWGHAgAPzmKGg7R5yoHBO9VKMrDtSU0y0JBpaPAoL7z4jf2n9uHjmh9+5QnErEvCBnQ7A1ZToZn8NzCBN1tTE/7Uzs2wqvXxami0ge0xGBsKvGA0wMGjLFzEGbAEtqh7HooEgm6F9nVQ3OQtWOCBhwtqjhjMsj5105YVtWF5XKnTQ0Qj+zs6aoceLrQ/oRnUOESkJV1nRVy7OpbftWo5BJ9Lqv0wWVRd39bc8KEb1hqpfFO8Vs4LVCmd6xfHlIPNfzLWMOAhTKZfU+qStagl++YbT8Bd33vTXX/7xb9AKEWYLvqYHycAEyojQGAf2r5Rckg18RASThBVEiYGNM+7okgy6jjhH07si4QSBsMO02cpnqi3JRD42A0bckjmMTRsgU0bxl2rV2xvb5Kico0eBJkm40hUlUU0LlGpbNxjuSa6ysQAwNRmQmJG+PCN6xr82GGBZi/QOLGZ0qh5vyw/uG0DpKcuWUXoUFWkAvC8I2DHtzOAPyTYSqgMZnh0qS5TW+sRnnrmGyPx6PKGtgUP5SbjNU+dgO1FzHf7ivaWqgB2glHzKIBOzrnYKFXlRdl3l+JzYjsAf5VT8eFPXOQPcHKAGdWGHzsCbG6pW1Mb5rVjGSkdCMlDirJrbRt2BKrNBbF3wCRwnfjaUMY3wC5fwBWsdnqDyIih1hFRshgjQXjhq0OpIGpIP7BxLUkIG8HgAEtQWf6+jlW1Pq835nHnJV6cygYelY4VWRY8Pmeg2hmsFhTUB5Ewmikwg7EEwAdzqlf3x8bP/+Zf/sZwbAyXeSQ5hbLz/XMeHpvgMK0qRbmzo13KiEHdC6ME6EjYmEIQD9xK7dbbfMtWoCYgrliGkbpyaeTw61I2zTdBwEWiOMxU1md5jXs6Vj72+gH6YpKWHoDN5q7Vy+t8Xs+oCgLYE8VoHndJz1pXt2zcLvmCaAfU1xLRkeNvWpc7czqtfePIQ8w9ljuVkG9Y1tB+LtQdifFt3DBYgzOHtmE/ExjJwvYNICTzH7SlhOqv3Xqrr6HFyTIWlqHFey6OHNkralm0T4/xAMGZ96bU5fXN+y+98dt/+wff/e1vTNIpDsT8f87POgGZFTXhMDavw6Zt9tfqDBMUQJdrG5fd97FA+xrOBgCDOu/+ttUt9/4nqbYZD9iaDmH05GUEpu01VbUeDxwD4AApMTTDRhfYbsBnekq3G0AyHBsO1N96X9POuzgbiCjgTaCq5bZ7a3fcSQnxEjMCzfDmUG1b2thUB2fOxRoFKtfW14YVjydNbOaqTELANjMBhK33ftTfshxs4NbMJcqhlevb73tQDNUgkLNpi700VMvtTDtvXrl8YLgHfS1mrtBudn6cAPodDdi9TfSgplTJ9340shWkxnfdLXt8FCmWHPgTF5tvvScvyraZQvwD/EVNgtNe31DHV+GAzU0BX3PQL2ZEpC54G0QURqmq9dsCrSt5TZDS5nEluKIjsHqDT1FKOQ0gGyLV91atb2oPBJd5wsu81e3e+xvXLYvUKQC+uNkYiAivY8lq8+33ifgqoriZLecrGsf2Ek233kMbOSBbw5gN4FHcSc64UVFpXVMDVXdaimN+nEDapynkwwZ2qLNIjpofTCHCG2/ibKAqviUHja2QL1I9VRtvAkGZcYIxo11aEEQKpqs+gPWsJFbwCe3hkFeS3RoNl4ptk/M33J66zTvQDjVeIvvMWlDQ1bD1Nk2EUZ/4/ATdgKotYqja7TExyHPlfZK8XApbBvn4iYCVxqqu+u3vhgaw6s8FCSj0zoBXguHQuhsIeNY1Ax4zJaLbIWKXS0BaBLYU73mfz48TXkmqUj0Ojco/2puzsNDQCi1fC4pMYcMEPihgv3xt2sR3WRMShEYQudT4PCzHh/+cqF+I2VEhj7qG0BM6IIaIkXxN7ZMZMIEn+WIyg5KnoYVsyGQbBU6JxaiEYGYdkTVlAsHfRW1bX30z62wGavABd6htNcrE2q4Ii4qotaKHnCQbE6DN72yGvss0AHNMFpkZ3kJemmUHkSDFbhSllnpKI7iFBwTJTemeotIAGdGiWAt3GZL5kKeQW5yIx0gHMIinqfzZ2ucK5KlpJPIWqQJGIontcUpNUgCr0xDz1ErekEvV7e+fmJ9FnC35gy7USpu1fVI7AUlPLIEuNs7dDMwzsrYlolWGcpVvzY8TM7THNRN+r5KK4gHEQvTU5CdLrSxtIcPisAnrwQjELtExAwCMhLhrapR4oLqpxYMYjHEi25oBtEOW3s7J80fIguH74Vxuim+b3gt9cT55extSYYzMp60tmv7uHK/MjxOgVA5fjAgI0Yv7XfC8PEV8EXQ5I7H4xVw86sJUKqtSz4FDCs8QrFgmBw6x8ANJFBSRZ3bDlm0YAtPKRcbtCzMjhjzYQE9pQXkyWU5XJq8P6kmk7mGjxvR0zMqyLVonuI/g12lkwUWCakZOs8BEj0fcGKXaAyMSF7JxtDPHLOIxM5yzX50fJ0CpSCpjUYHQkgAJNUldzsFj+6mXmZEhYIeOvwGPOpGcgvXAwM2VR21ltraYBDSBPLXTzGJrYZRfZUCDi5mclum/lI2Ns8TqpMCMHmCVT9OjA1ZkNMv2baOL+B8mhZyZs7BBDWwq+/oSiVv2AD3CtQwl7EdOHsTz0xvHMyzKdQyfPEQQFrEDeNh2Ey2jDCbrcAmO+XECZOgZixkCyqhP7GoH+MibDffFus8TsUiLyVixA8pP21HEei4ag73YAsRGBrKZE3VM8/WMxYEHElCSS+gaG0dlWUOmGY6i3CL/CiU0B/a9hMcoowf7wyiCE4qmBAGL0Ab2vUj7oTDi4hawwgmCs9P6YH8sns84jLQVSWaOZi5rioaRykQaEcBreuLCycSVbgRODPIC8NQEqC0IY9hzIjKE2TDeOLWPr/wkPWPp54fG3iY/kXecp70ojDQW1ZRkSoA9ZtZGDuyOdJ4Cadh4mR8u/Bm9eHrkwMvYZJOIxA4yBJZDd2vj6cy5kVEoPkmryzWcTPeOx0zV0JFwYzaK/SROG+NDfS/9m5aM24EsTvAvFxu/svsnZiKGMbxt7kFoTdQHQ+MvDJ8d7UslBrKxgUzscvbFKxf6AsMZSZ8EPKKFfB4bZsQunWeQF4AnB+VyjZ8/MXrkdXCr1J9BBDQ1N55K90XjLPllY1ZAcAG/5pftQJTZNRZBhdRWn6iPexilGBBwjMg3mOnIwVeTPZ3B5WtFH/LkTiMZi3df0IYv53KYh55I4otOMeXKGB7j2LnBWDbrQR0cPI2Y1sgf6hnA9FxCzlTrfiRF0DazXbQLhzBy5dLT/xhatdHb0Iwd/rR4ND06NH7miOx0IBvBmMZTF6QzSSWdyulnBkaxaRsbQaCYrNg5Mj6WzMh+2R9VSqlHU9CWNbr/hVjvxfDyNYI3AEnRo2PxvovGyICuY0KbYABroBbQ5pgrbSrm4RMDSV1lSkghwSKP+XECowEo6U9PXvz8rTdE3HHMNxS2ZmWwQLKwN4hn+PL4aH9GIwOq0u7QUH8qV0rAFimFQWHCn4pruVcudsN50P4sJJcOJIgOXe7fFVne7he0cQXmuDRJh70uoAaZzhPxc0dAer7fqqVraaJFQSBwhrmEmJg2fcZrJ7v7EwkUM0fTIBTib8zTPX+q6xd3bsJGGrUaJXpJlBhUOKB5nsGekaHeFG0r5PIoqsIYQwAAByNJREFUbnCIbXDAdLNo+oBRKpCOZrK7O3s62jcwaSRBWiQn5ucnINcoTX30ysCpKyNaUEsIGdQPnwQBM7vJLEwRLaTHCdgAQAtgMvmR8iJ2Bcn7rNcv9AwmkphJ5pMtzBhg8sN6+tQFbPE14o3xgYvdPqdYIkP5OCIc64gYaIs3jTZdGacWDyTGUpnnz3exBSWMhGTzLXB6T08fFgnkAtk4NifmcQGjI5dq0B38xgVgio5ohqMUPRonCiPuiEO1nj/dOZ7J0qaOS6IRzLfN52CSB+F64uCx4WQqGopjbwmU22eXi0cpaZhHmLiDha0OcUSIW1X68cuDT50+j3rjfODKaEXEgg051Nf/7KnOvA+l+sdAWagSa4X9x5iKn9Qme2OiX4qTnIiMx/zRrEP/7v6jKV1H6pAUgh14lP12/MOhE2M5Aj7rRJBGLoq3Rb/YAJO3yVlYUDb2C9o2KsWNKn1fZ98LF7pUUeBT8QV4JkBZyNn8OAFnhl4xhYLNfP92zyHsKhGpio+LCaShMBbmoSFHi8Nig4hbWDOBNMagPKbXZC6MjP3vN4/RCILZNCJPUbKAG9YDPHni7N7OXkfQGvCMIVTieyvwUf10tHm/IpbmuvT+4Ijltn5w+MzJwZEpbIYjBqehJQPxxPfePJHLG8NVY1BrbLDMmT0VZsZv3jggh4IOuSPZcOZM/8gTB4/TJBhNjC+E6DO+Mz9O8CbIRoliTyT26KsHBlKJTDg1pI5nnVhjgW0vpgZ1QBJGAJhkRG0wMJYPGwd7+x997QBsC3QLpOFzapx/YAkJOhyMJH73wLGnT5y3/MZQaCwqYmkT7aTAo6lSTKA0LB2ZH1Gi0Zp4Jq89+uqbWN6BRCkJbJHN/BXKM1oW9l84OTD8py/tHctmktVJbNwBh4FGJgKqokniwIMHSSkzFBo3QtobXZcxoQLJ4Xyl5M0SHfPw2EQjhPa0wIYWsPjcMoKoP3vpjY/esH479qLwm7ToJCe7DSwZos3myKxjUsiFcW1WVzRDNeLZ7EvHup492wnriqkI5B74ZiAT9gsWgG3rBZcBT/uvJ8/1x1Mf2LzWVePQtZyckRUNuwkTzBBINvHpzIi5rEyNYzkMIqUnj53tjcYAGxqhaJRNnXKdw1vEaWZ9MC90JZb4i5ff+ODmjhtbG53+fCojSTlJ1WXcZkl7ctMYvmVlrAjKIlLCCPTfD3e9eKELIQZaRjNYcMQFaEl4MQ9OAA3yY+kEX4hIXHE6x/Xso7v3rKmtvn1V6+q66pCqyAjzsAKAz08jDwRk8vpoMnP63MirnT2X43EkdDEUto0S2inFhFONkw/ovnT+/Jvd3TvbW25Z2UKznl4J6oU3XGhXoKhHR6isa1euxF++0H24bwBCii3a4mmqb8k1bAqZ7PYB/EA08/VX9qyvr7m7Y8WyqmBQReUDMrPEAeBAmWIrbWnj8cyhEwPQs0g6C2XFJo4AniKxTCqTy6BBHnEskh8VOcFsJbeY0APFs33tjW5Z4Tpp0wu7Zx4Zs3rSydW17jV1WNCYr/f7sPcaFuMggjozNNo5hu8ohJbGVSuXFbzcjGSykbHvIpoE+8dN86WeVKPftanJF/QosI0hjzIYQ2FlR380eX4k2h/POtT6W9c3oYXZeFzaOEcKvUCrMCbdO6DVJdKrapS2ah/kvS7kyehGIqshdjo1kOqNJFO6sqZ1HbSBxxecnelcdl0rmwvgRrVIpYWxpAIn7CAFo0osT97Qvu71v3i2TE+UpmAijs0wMRrio2qgy8oSL/aAd+SpTxhneIzih30sWlhs2/S+3SABP7mvMs1zhZii2WWen+1WBU6Q6uVRMQH1tDGnRiPe6V1yAWEdwDDZPpXM9IQ/A39YgDRjC/z6jD9LGqeIe2I+ECUFZvGW0yGcsWVcLG0cwJc0SPsUlvZVBnhSLHYUvlNm+jFbj2WuV4idwAaP2/PjN54dTxSKVdgd2yclrZeK5mQxLbKB4z+9kdmuzAp6SYNTnpmtqenXJ7+4QOA52U9cOoUviN2Se2FsACQVdAKqhy+69px8487f+gC+Q+Y2cVbq/Ozd4F4UPO4dvpLMJHllA/y5AEpU4AQaBTOw79nl0QEUEoFCL6CPn4VXsGic7TG78KXKFTgBIoIZmGijEsYSVTF+55iRArAWi2ED2qzMCc4MGuksxA/NCPZ/zIsLM0o2LSp47P+YNLsmsXqHE9cKW97hxDucuFYo8HbCUep5p3psuB17Qv3thPE/dN+cyFNQnMoJfOSLyuZITUxa0fQfmi5vPXLIi+jpJD4iLu3aGUuk+d/4ogYp7bOXL2CsSJV73noAf2Z6xBgc+1KtbV0TkH3JTGGDqglOYAGuIos0+0KZlIn1bj8z9HkLEQUrQGQXluqaWB7BO56wToZhJo25Fkh5C6H+WenqnSj2WuH0O5y4VjjxfwFGAUyDfcGiVwAAAABJRU5ErkJggg==;rotation=0;" parent="Qc-D_8kB3T4XEGCBFrq9-23" vertex="1">
          <mxGeometry width="153.69" height="210" as="geometry" />
        </mxCell>
        <mxCell id="Qc-D_8kB3T4XEGCBFrq9-17" value="" style="ellipse;whiteSpace=wrap;html=1;aspect=fixed;fillColor=none;strokeColor=#d6b656;strokeWidth=3;rotation=0;" parent="Qc-D_8kB3T4XEGCBFrq9-23" vertex="1">
          <mxGeometry x="21" y="156" width="30" height="30" as="geometry" />
        </mxCell>
        <mxCell id="Qc-D_8kB3T4XEGCBFrq9-18" value="" style="ellipse;whiteSpace=wrap;html=1;aspect=fixed;fillColor=none;strokeColor=#d6b656;strokeWidth=3;rotation=0;" parent="Qc-D_8kB3T4XEGCBFrq9-23" vertex="1">
          <mxGeometry x="57" y="156" width="30" height="30" as="geometry" />
        </mxCell>
        <mxCell id="Qc-D_8kB3T4XEGCBFrq9-19" value="" style="ellipse;whiteSpace=wrap;html=1;aspect=fixed;fillColor=none;strokeColor=#d6b656;strokeWidth=3;rotation=0;" parent="Qc-D_8kB3T4XEGCBFrq9-23" vertex="1">
          <mxGeometry x="94" y="157" width="30" height="30" as="geometry" />
        </mxCell>
        <mxCell id="Qc-D_8kB3T4XEGCBFrq9-22" value="" style="shape=image;verticalLabelPosition=bottom;labelBackgroundColor=default;verticalAlign=top;aspect=fixed;imageAspect=0;image=data:image/png,iVBORw0KGgoAAAANSUhEUgAAAIoAAAB3CAIAAABT6U/0AAAgAElEQVR4Ad29e0gbW/c+/v7znnq/trX3Fm1LW1paWipKEUVExBBECCJBAhKEEAQJBEQQFAQJCCEgIkgQREREEBFFREQRURRFUaLEC5p7Jplkksnc08/L97f2TGK8tKfnqvxk05PGnDSZZ/baaz1rrWf95/s//PN/F3/+d93PxZf8n/SJotHvghAV+CjPRXk2yjFRjo6ydJSlBCYiMCQsOizQIbQIgSYEKmHRROxXYenFTCTKUvAOHA3vxrPwzgIXFfjvUeH79+j3798TP8l1nxSeS3zN//1f7NP+M5fxP//M215410vf52d/jf9/UQEuHMdE2QhgQBECifNhjCfcfNDJ4TYOP+F8Rxxm5bz7rMfCuvfQ2mXd8bXHeSyc9wBe4zuC1+NnfNAB7xDGBBIXqCC8MxsBtHj2WoR+9lHR7+Kf9x968G/Ak/jRr37hxN+ePxb4KEfD5YvgfMjDB+2c/5j1HrCuHca2wZws00cLtHWW3p+i98ap3TFqZ4TaHqa2h2JrmNoZoXfH6L1xen+Sts4wRwvM6TJjW2ed26x3n/MfcwE7H/IIEVygCdhVEkLnH0F8lPiBL//un//7vw3PlW8U/R4Vl/AddgyyZgIHFiwS4AkXoOK2sPZN5mSJts5SexPU1lBkvY9c6SEXO8n51vBsS3hGG5rWhKbUocnG2FKHpprCM9rwbAs5ryeXOsgVQ2S9l9oapPbGAK2TJca+wbr3OP8RTzgE0i/QYdis8AHgk6CFPhgyelc+9r/0xA3BA0jwYP1ZGg4GsF1+tEscHH7KYVbWsckcLcDO2ByIrJnI5W5yoS082xKaaiLGVcRoXXC4JjhYHRioDPSXBfpKA70luKn4wur9Bs/3lwUHKoKD1cRwDTGqIMYbADbArI1c7oqsmagtM7U7Sh/OMrY11mPh8FMwgCEPAEYFBYaUNpZ4PkXhfPo3f24EniicKywFhzmJ8QEbhx2wji3YHwfT1M5IZL2XXGgHJIZrAgMVgb5SuO49hbjhs7/ro7/jva/9ja/1NaZ/ienysZYXWMtzrPmZF9bT2HqGNT+D53UvMF2+T//S1/bK1/7G3/HO3/UB7/6M93zFTcUAnrkyOCwnJlXheX1k1UhtD9P708zxEuvY5LwHPG4Twt5z6ycI/yY2379/vwl4otEoxwgUAbYLs7K2dUBl00wudYamNcRILd5X4u/6iOnyPeoHbmWuqz7HVZftqstyKbKcikxnbaazJsNZkw5LLq40pxwtWZozvsRnxBeIL67NcNZmOBWZLkUWvFt9tluZ61bd86jzvC3P/Z3v8d5vwSF5aKqJXOygNgfo/SnmbBVAIpwCFYBtJHD/P4NHOlfAlAmSfywwET6Mcb4jRgJmgFzsCE02BoeqcWORr/2NV/vE3XDXWZNur0i2lf4WW3dsZbDs5Xfs5Un2itiqTLL/ZMVfVpEE/1f5HVs5ep/S32LvBu/jlKe7lblezRNf22u8pzA4WB2aUJELbdRGPwJpLQZSUHTzzt1xOKX+QYv3j+6eKJy0cMCIdswP2wU/Zd17zNECtT0EqEw1EaOKwEAFbiz0d7yHHdP0yN2Q66zNdFSn2suTABuECgBTkWSvTHZUpzjkqc6aVGdtqrM2zaVId9WhVZ/hSlzoSaci3VmbBi+uSXXKUxyyFEdVsr0iKf6eNgS2ozrFWZvhVuZ61A8x3Qt/xzu852ugv5wYVYSmNdJmOphh7Ruc/xg2E+mD8xKccgaFTf8UQv8cPLBvojwHJz/p4/AzQOV0hd6fjGz0hed0xHAN3lPo73jra30JJ0fTI0/jfTBliiynPN1RnWKvTIaLKMIj7piqZIcsBSCpz3A1ZLlVWZ7GHE9TrkeT69Hc9WrveZvPl0d7F55X57obs92qLLcyE/4vRbpTngoIiXsoAXhASJ7urM101ee4Vfc9TY+w5me+ttf+ro+4sSg4JAtNayOrPfTeOHOyxLp2wYkgMYEORTkGxUz/iNn7h+ARbVoUYhcSB+fYtk5bJiOrxtC0NjhY7e/65NU+EbeIoyrFUQVg2CvgvpZMkHjhwLKJBg1MELrH013KLLca4dF8H9M9wFof+dof+zqe+jqf+bqen6+Op1j7E6z1kVf3wNt836O561HnuFVZLkW6Q5ZyvoFKY3fABbOZDNu0KsUhS3PWZrjqsj1Nj/yd7wMDFaEpNbliAJDOVjnfER/2gncn8P8IOH+naxALX2LRPiXQIZ5wss4d+mAmstYbntMTo3V4X6mv451X88RVlwVHi3hRKpIcVaLVSgErJNorZaa7IcvdmO1pyvU23/fqHvjanvi7X+Cm1/jA+8Dgx+DQ5+DIV2KskBgvIiaKiclvxFTJ+Zr4RowXBUcLgyNfgkOfAuYPgYH3eO8bvyHf1/7Eq8sDwJpy3Y2A2fneqk2F7VWNbCAcacn2KsDJqcj0ND3ytb/BTd+IEUV4ThdZ76X3J8Hc4adCBDkOPAO+g3ga/U0H0u/snjjv9Pt3R4yGEZhwzJpZmMN5aqM/PNMcHKzGe7+BP6Yv8DQ9cilznfI0caM4qpKd8hSXIt3dkOVRAxKwITqf+Q35eO/rwMD74PBnYryYmC4Lz1eRy7XkujKyraZ2mqhdDbXXTFlaqP0W6kBHHegpa8I60MHzlmZqTwuv3Gmithsjmw3kSm14voqYLiXGioLDnwMDH/DeN7ihwN/5DLZay33ArAE2GeAkSxHNrEOW6qrPRidTPrjmvSXEsDw0pY6sGun9Kda5xeNnQliydRKJ93cgJMFzFYb4M1cfXANVFIUyQMOE+JCH8+4zx0vU9jA53wZnTPdnr/YJeMkNd1112c7aDIcsVTxakNeU4qpL9zRme1vyfB1PceOrgPkD7InpsvCijFyrp3aa6AM9fdrFOEysZ4D1D3OBcS44zhETaE1yxCQXmrpmEehX4suC41xwjMNHWa+ZcZjo0y7AcqeJXFeSi/LQTDkxVhQwf8RNrwEn3QOPOsdVn+GshZ2EvMRkR3WqsybdVZflVt3zah4jD+Jt0FwZnm2mNgeYowXWvccTrhj7gLbRNVfqjz31n6tX/xefufDvgBfAon2DcZiVOZyPrJlCE414bwmmy3cpsmLOcdxLlh7YK5OctWmexmysJc/f9SIw8J4YLw7NV5Hr9dSelj7pYFy9LD7Ch2cEZkXgNqPCTjS6H/1+9GfXYVTYE7gNgV7myVlAy90HUFmaI+vK8Hw1MfEtYP6AG/Ix/QNPY7arDh1U5eh8irv4yIcEayxL9Wof4z1fibH6yIqBts5wHotA+qNsJMoz3/+OGPavwXNu0Eg+5OV8h4xtjbaMk8tdxHgDbvrma3vtaXzglKfbSn+Ds70q2SFPcSrSXMoMtwoOFUz/0N+dH+h/R4wVhmYryOXayFYjBXulk3GaWN8gFxznyVmBXhK4jSi/ExX2otGDP4vNUfT7YTRqEfidGEJzHDHB+oYYVy9z2kUfoP20ogjNVhBjhXj/W1/nU4/2rggS+HuVEDlJURfyHdwNuZi+ADcWEiMKcrGd3h1l7evA44U8wDWA280hEu/c847f/Rfu7x/85c/D87///Q/+bZG7DNpZ5zZ9MB1ZM8FJMyTHDV+xlheexjyXIstRlWIru+OoTnYq0tyqLK/2Htb22N+dj/e9DY58Dc2Uk6sKaldDH7YyZ92Muw+ZrzEuNMWTczy9KDCr0r4RLLB1ota/Bs9BVLBEhR2B2xTYNYFe4iNzfGiaC46z/mHWM8DYummrPrKtJpflAFJPgVd716XMdCrSwOWrRCBJ0W4yREuqe97mZ/7OD0FzVXhGCy7DwTRwQuAy4ODX8ZLnHQfm0oNroRFf89fg4RghgkOkad+gdkfJhXZipAY3FvraXnmaHrpqMx2yVHCayyEMdMpTARtdnr8bGbGJ4vCCLLKpoq2tjMPI4iMcMSltFHZNYDfg8vHbYM1gx1hg0wAwVtgBf964iRvIit7NAu8s7Aj8Nvxb3Aagxazw5BxHjLM+M33WRa7XE+OFvs5nHu1dtyrLqUABGQpsxS8F/rcMziTYRjq0jYZrw/Nt1PYweN74KVCrTET0vC+h8it//UvwCBTB4afM2Rq1MxKe0wcHq30d7zyax4mOGQr1kxzVye6GLEz/EDe+DA5/hh2zgnbMcQfj6uMCY3xkDiwYbJQNuF43trYEZpWn5rnQJIsNUBZtaKYcN770grOQ66rPQL4cREUoRAOGSSKHKpNddVlAC7W/CwxUhmdbqK2hWGyERRnqV8C4+po/Dw/vs7NnW/TuJLncE5psCgxU+rs+Iros11WX5ayBG81Zm+pSZkLgonuA9xQER76E5irIVQW5Vg/+8aYKXORdLbXfQh+20kft9EkHeGhn3Te46KN2cNN3NbB1pkrwvjeY/oG7MRscuRpgHBCrhOKz2jQxSLJXwrEKhq7hLiDU8T7QXxGaVJPLBmpnnDla4VzWq5f+V5758/DQm9ORBVNoXBscqMa7P2P6VxDQIL/ZWZuOVpq7MRsOf0NBYPAj7Jj1esqqp086qQNdZKuRXFGEF6rhHJ4qhbhyvAitYohybmwVBUe/Qjw0+AHve+PrfOZtvu9uyHLWpjnkEl8Ht50iDaK0eISEwiNgzUWKQf0Q07/Cu78G+qtCY03kbDe1OvYrYFx9zZ+EhxztCpm1wZ5qvO2zt+m5uz7XVZvllKXbK+E7AGWpSHcpM736B7jpNTFeTC7XUHtaxt7D4aMcMcE4jNSuJrxQHZQcpGee5nseTa5bnQMUWUPWzS6XSNDVpUPcI0uxxw4b0ZQ5ZCnw1bR3fW2PvNp7QBTVgteAuAZ4sUOW5lJkuxvyvOpnfv3HQHcl0a++eul/5Zk/Aw/R1Rhsl+H6Yl/TG4/ysUue5ahMQQtRVXL49B5NLtb6CO97Q0yVkGv14JXZe1ivGcLJwBh90kmu1RPjRbjpFdb2yN2Y7ZBLVwEI/3iEcXsexMgne2Wyqz4DA1v9Mjj0CcLYDthhHlW2qy5D4lvB5051Vqc75Vmeuoc+9Wu8pSjYLvsVPC695g/Dg9eX4PVffMp3WEOBp+6RqybXUZUGmwaC6jSI/9U5AIzoAsxVRrYa6ZNOFjOz7n7GaWLsPfRhG7laB9j0FED0p85x1qXDHYqiComlvj3AoE9iL0eBQU2qqz4d0z8MDLwPoa9GLsmJyRKgGwwFWOsjT1OuyAY5ZanO6jRHVZpLnu2pfYDVv/A1vLt06X/lr38YHvenB+6i++6yXFdVjrMy01GRai8Hstkpl7wAX/tjvP8dbJpVBbXfwjiM4JhR86x/mD7ronaawovVwZEvfkO+R3MXESdpInEiJcrEJMJtg6ciyVmT6m7I8mrv4r1vwvNVtLUV4tmzbmpPS64oAKSB976Op+Dg1WU4a9IgX1WR7KhIdZZnuMqzXWW57qJ7vwJJ4mv+GDynWf89u/9f2/PfbO/u2Ivu2Ivv2L7dsZVAogy4GXHf9L4hpksjmw30aRfrG+TJGYFdjwp7HDFBH7WF56sgGm9/AgZNloKCcMk3vY02LXaX2KvApnm0d30dT4mJb5SlhQuMCfw2H5lnfUP0aVdkSx2aqQj0v8P0D4ENQhESWIJvd2yFd2yf79je3zl78dvZg/8mXv3fffzH4Dm7/9vZk/+evfzN9uE3W+Fv9hJgOJBPmebR3PV3PQ+YP4RmygCbkw7WP8SFpwV6WeC3ooKFw0epXU1w9CvW/tjTlOtUpItJF5TIQWQPpBLAPF5IeiYmQP/lx/GMhjrH25IH5JP5AzH5LbLVyLh6eWohGj0Q2HWenGX9w8xZNyA0WxEYeO8Hf++eS5npqE62lyXZiu/Yvvx29uG/Z6/+e/b0t7O8334XlfgL/gA8rvc59jep9nfJto9Jtq93bMW/2cuTnLJUV12GR5Pr784PjnwJL8qAYIZ9M4QogGUIxfktgd9mPQPkah3e+xqRwRLVKDHW9Rmexhyv9i6k19oeQ2Ltppe/85m/6zne8xLvfQNE7VhheL4qstFAH+gYVy9HTIFJiFqBvmNW+cgch48yNgOY7gUw3XjPS2/L/RijmiwiZPuUZP+Q4niX5nyXFQfg5w/+ADxYbb6rPMdRku4oSbGXJNlKfnNUp8CW1+T6Op4Ghz+TS3Lp0wdG+cg8iv+3BA4tdp2x94TmKn3tjyG4g1w1MD2OqmTwJjS5PpGF630DebbRrze3CoOjhYS4xotDM+WQ1FitA0rwpJP1DgDzRC2I5hoRrPtRYRe+I73MBccZp4na15HLNcToV3/3C7gRRc4b9tBvjpIUZ1mGu/Kut+Y5rv5KtCl+js3//ve/X4KHWuwPDTfiXYWexocuRTaKbyDRCedNUy7W/gTvfxeer6L2W1hsEDYNsxLlt9GnP4h9+hX6uIMYL/Y05SaeMY7qFHdjtq/tMd77BtJukyXhhWpyte5GVz2QGmv1kY0Gaq+ZPm4HStA/DN8LdswBIv2u8H7RfdhGoWkWM9NWPbkkCwx+QH4pykpUocslS3fX53qbnuLtn4ghZWTBxOwtsce7PwHph/AIuI9zHDIHK9T6KDndHuyX+VrfuutzocZMng5cpyzFo871dT6D82a2nNpWQ9RJTMJhw20A2wjs/X6U3xHYDZ5apA/biLEij/oCPM6aVG/LfbwXhUdL8simCgiek87bsIBYcvay2CAXGIWEExyi24iWvYLN9yM4h7hNgV7kQlOMq5fa04bnKgMD7yAlobkLB21lkhPC1SyP8h7WXBDsrQhP6emNMca6+sfgiVKUQJFCKMC5rIxlLrJkDI2qcEMxpn2OsEmD+j8FHOBY22PAZq4ysq2mz7o5fAQlZjajwi5KmgE8QG4yazw5Rx/oidGvHnVO4u5xKdLBFxorjGwoqQMdc9YNoWtg/CYX5FWlbCwfnoakBiUmNbake+5avjxqRXZiQ2BWgBax91A76tBcRWDwg6/jKbip1SnAbcvTXbWZHtUDvOszMaKMLJloyyzrsPwIIdg9kNeLrSjPRzk2yjICFeI8B/TeBDmrD/ZX+tvfeVR5ULwCRCeqC9Dk4qZX4ENvqxmbAXKakXlw0iAlc4CY/6OoYIF7ilnmw9PUfktw5MtleJSZuPFVeKEaPD2w7BNwLbiN27E2RacmltT4earpMJak2AWEAmOipxCaLcf73nqb7ztqUh1SkUmKqzbTp38Z6K8Iz+ionVHWsSuE/dcidKUUJJ4ApYKsa5vaHCDG6vDuT1jzM6itKYfUgBQBtD8Jjn4l1+ro0y6UEZhHpvlipvkaeHIRLyAxNy5lJm56RS7KmNMuFjPfMnhQzgnSTuB5olzt7nnyCTJPP8ipC7s8tQi+nL0nsqkixot9nc9dDShdBKFekqMqxdP0EO/+RIzURlaNzNkqH/aKJT6XQLoMD1TbspRABXj8jLbOkHM63FSEtTxzq1BVbfkdZ00quNFdzwODH8GNPtCBOxCZh1QNmOaLmeboPuS72HWeWqCP2oiJYq/2rpgpEckbZ20qcCTmD1CFs1ZH7ajpA91tOHjQZ+hibAbGYYR6B+8Aiw/D3UPOSJl18XC9NjcoWAR2DbxtYBc7yJXa4NBnrO2xR5PrqktH+dZktzIXa3mBG74QEypqZ4TzHkDWDkqx+HhVMHhulzKpUNFBBfmgnXVsUOu9xHANpi9w1+dA/gblpF116VjrIzhy5iupXQ3jNPHhaUhuQmbTItm0+G0VPYDbjd8W2FXmrDs0XYbp8sQyWon9FdN0ugc4lE1BhBEc+kyMfr25FfOqRwuJsSJiqjQ0V0kuylBpioY+Ai+Ow0d4ah7y64CNuC5uI/jWcFMK9BLrG6QOdMCVSJRPDuJKksQEq1f7BO/9Ri52MCdLUNGIak6hNiH2cwUeluJDHta9S+9PhmeaccMXtzJXTA6K97tLmek35BNTpZGdJnDVguMCu4bM7rVpZskiC/w24zKF56t8rY+kIj9U6AykTmUSlOZCzXSsYPpfZgeu/+egCNKjuQv5qs5nQL2PF4UXZZHtRuYMjLnArMYy61cduUNw8MByWPjIPDhyO02hmTK87423Jc9ZkwrFl1AsDp4CpssnRuuo7SEOO4zVnJ73QVyGR2BIDj9hThYja0ZipMbX9spZky6Vn6NEobflfmDwI7lWJ7kD1AIY5fh2ufzgEL4D2kOsbyiyrsT73kIWS5nplKdKlbQxXivRo7sFj6GXAeJuRbpblYXp8vyG/MDgR7gvt1SMvYcPTUWBrBJ91B+eQwK7BibutCuy0UCMF/m7XriVmYieFzPiyZ7GvEB/GbnUxZytcP5jIYJDG2XsJxEeKIwWqCBsnd3R8Iw20FeCtTxzyNKAFpNBsaC7MRvveRmaraCteogGyDnYOmCFL+7u87+Ke98ajVo4YlKiRPuAEvUgXzOeq78FeFyuwZPucbGCVZXlbb7v63iCG18SkyUQ5LlMKABHjOKPS+8EbhNIOcxMH7eTSzUB8wfYQIp0iTqpSHI35OKGL6FpDbU7yjq2eMId5egYOuftV1LRukBizNlqZMVADMnwrg8e9QMgxiuTJOoFeWuRTRXr7ocwjd1AdYEX3YFzbETMEELRA55aZL1m+kBHLsqCgx+x1ofOWthAEkK3cA9BCg6ah6AETJ4KdycqM4YbdKacsjSzXjMfmgKK5Cc3qLAD1T/haRYbpHa1xFQpIntQVQmyH666LF/7m+CwnFzuog/noLiHpa7AEytg5wknbZ0Jz2jxni+YLt+tzEWxTrJblY21Pcb73kKMctzBh6al+AaKm64a36ub6VDgNhC5O0QftcNR2VMAhS+VqIvqVuZ4Yhs6lu+QWhjueJpy8b635KKcPmpnMTNPziEG6+pXRs9IgfkqT84xZ93kSm1g4D2mf+huzHHWglly1qR7W57jpmJispHaGWY9+wIdvggPVEijPimO5rwH1KaZGJb79AUedZ5LkQk5JVkKpKGML4nx4simCrw1aj5Gb/wKNqi6DOiDFZ6cYTEzZWmGeM30yod6PDDo8Thvzbnhx9p70CqkRbUPqBYeVR+i2wgl2t0NWbghXzJxwGNNCdzWD807nLu7EDkxK6xngNppIiaKcUOBtyXPVZ+BTo1Uj/qBr+NdYKCcXO5mztYEEo+3OaCzJ4qwYSICFWDOVsnFdtxY6FHdc9VlQa16OSQKITpBgQ59oGexQYFeut6nvGzZ4veUWNy8KSHk6acP9OSKIjRXSUyXERPfiNHCm2OprxDkI1+DI18Cgx/9hnxMlweODLDsqK2u9DdXfYavXWToa+ijdg4fBY7xR19ccuF2BW6Tw0fpw7bwoiww+FFkelAFVopLmettfurvfB+aaqIPpvmgE8mVgFYJwCOFohGcDzro/UliQuVrfemUpUGBJ2rBcdamoSxhscR7is70jz7Qj56H+8giElNQ5xccg+oDm4E+7qCtemgF2dPeirUrNZyQ60pisgQ3vfY233MrpSI34OkV6VAKgmhcalcLNyu79kN4gBcWfdddPjzN2I3AI0yW4MZXHs1dVLedLMVAmsfBIRm1Ncj5jkBZhmejAi/Cwwl0GBo/PfvURn/QXOlR50mWF3WpuerS8Z4CSLAftaP89CwKyuI7448+sEKbAL8FoTW9BJ0CxASLj0CJ821YviEWG2SxQbiUGw3EWKGv40k8cwPwAG8CqeHg0KfIRgPr7kMx0O9dhKhVoBZZbJC2tpJL8oD5A6Z7ADsScTxAlSqycGMhudzNOrchPmXpqMAheHgWSqX9x8zpCrnUGegtcavuob41qdXW05QbMH8g1+tRonASWA1I5/zeB/rhC1CiAbJYm6hidoELTXOBMRYfvRUg/XPwAFU6DkTcViMxXuRrf+KsAd8VdUlCiOrv+hCe0zHHi/EGBwQPx/AhL+vapS2IKej56lYCcYn61sChxFofEhPFlKUZ1dzEc4V/BZ64oduUWm2ICS6A2qNufBv9EjzAOqLdo/wDuwcKE2bEDRSarfAb8iEPVCX2R0KLpK/1FTGhoi0T0P9NYgITEeGh+aCDOV2hNvqJMaW/84OrPgfgQaGoR52NG16AZTvtRFyTGOtcZKZ/uFF+BKHYI7APuXp2jacWoLcNVSje/Ab6h+D5fijwWzy9KGaDyOUavPeNS5lprwZ4UPyX5G1+RgzLqY1+6IYM2AU6hOBhKc5/QltnyYV26DJoe+1SZNkROQ18Rsv9QP9bclXBuHoRR7CL2jl+SGP82OhJkKCDZxsyOgDMIheeRj2FA4y7D9UpGoEnvsF11k2fdkPL3IFe9LKw1oeopTvNUS2m8FO9zffwngJi7Gtku5H1Dgjs6o+/dfwGPQS3CN2LrG8wsqkKDH50q3OgdDvmE3qaHiKCp5M5XuB8hwKFAzwCE+GwA2p3LDSlRu2GL5y1mfbyOy4FKtJofxIc/hzZUrGYGTxIsdXmJ9mOH+0kwYLc/1U+Mg+9Tt4B+qybPmyl9rRQDr9aR67Ukss14UV5eEF2o6s6PF+N2oPLAmbIdYJfAJ3AUvlKjLN/H56vpA90LD4Mia4ffevz5w8hOYkcIo6YoCwtxHiRWM0D9GMl6J94GvNwU3F4VkdbJlj3rkD6RHhI1r0LmbeRGtwAbbpIMCUJ0tUtebihgJj8Ru01Q65azOj8KlMQv3EgLIWsNr3Mh6aAgDpqJzcaiJmy4OjXwNBHvP8dbnqFG1/iPQV+Q4HfkH+TqzvfD+sFtCe05Lkbs6E9AclgAP9U+htw9l3PifGiyIYS2Gti4lf9WEQNR/kdnpqnTzpCs+ViOSaqWQR43Kp7uOFzaLKR2jSztnWecCN46BDr2CBXDIG+El/7G486D7raga3L8rU9DvS9C89V0odtHDGByKVfpAkSsUHwsOtAPXnNUGO9JA8MfvBC30wWtAPUAUUoLTkoC9yGdanTCvIpiHxyq7Jw46vQXCW1r2Pd/ZCg+1U/VqQfrQK7xjhN5FIN0Afau25lpqqenfcAACAASURBVEOWAvAoc/2d7yGFumIA/y3oQPBQBJAFC2244TOme+FuuAtkQUWSuzHb3/ksOPSZXK6lTzoRz2a5sosPo9GL6zIFl0CJgtevJ5dqgsOffe1PIHWIKt9vaVdCIksLGRqJG8X0D4mRr5GNBsZpgsQPvQRphUQjJl6QHyXrvh8J3Cbr6SfX6gN9b8WiX0gCld5x1ef42l4HzVXkfCttneXxMxGeIHOyFJ5t8bW/9WqfuOpzxDJBjzoXLNtYUWRdydh6eHIG1d8kbAv0OYSoVRDQilrhMQTJYh4BUW1S2GzhQlP0cQe5KAuYP/g7n3mach01wIXfXsY6AR7EXaa6G6AxBu97Qy7K6OMOVBmxgGh78a4Vb1PpIpxfCrgaCRcN4NliMXNkSxUc+uTveOrR5Dpr02xld1x1WZi+INBXGp7WIvf6RIQnwBzNh6bUSEJN6qW2VyZ7NHdx0+vQdBm13cQ4e4GaPU9sxD4KAHPA8/uCcBBbcYQQPDFKg/UPwQca/Ijp8jyN2aLLf5u7EmKMNeSBHFXJbmUmqrR+AWTonpb1DQqs2DK+K1VYRA/RnRq/DujBhZtVAkngt1j/ELWrgS4aQ4G3Gcp9AR5FFtbyHNrwJxqgAMF3iOCJ4LR1hhhTSnIqNahcoSrZ23wvAOWf1VD+6RlARd/xcAfgET8Nz+9znIXjLDy3z/P7PH8gCOIGEuE5EKvdGKcpPFeJ6R86qpMhjxDXVUu4SROvyK16DDWXUEf+AmqV1+oYRw9w9lKbeGxzRA/BisAVOF9wy0oInW8ggd/m8BFqvyU0XYb3vsH0D131GajqNsOrfeLv/kiM1FBbZs57gOAhcXp/ihiudTfcAxkCSI8mO6qSIW9t/gCV04etUI5DLcZvk8vYsHsca4GFQELbCCGEaFAB1UUwtm5iutTbcl/qaUbHrJSHlQR1cjyaXCDzW/Juw8J0eZj+IQj8tD2GvuXhzyCMsa6kTzrAiYVaA9GGS0evIFgBGHSnivcrXA3RrlzcQwBPYJS26sOz0HPia33kUmYiNi/d0/TQ1/E2OFgV2ehjPRYRHj+9Nx4crJI6qpESgaMqGdPlBYc+kasK+riD9Q/DGShWGIu3CbJpHGdh2T2W2WWZPXFx7PlnEsDTBwkOnl6CGuuJb1BIBcIakhcEDfUxowECR+b3weEvsR5gsRP43/8z1ng88Y2YLgvNVohl31AFf9SO3IFRqILntyR4JCsSwwauxh5cE7QuI4TOIQTPGCQX5qsgtGp/4hbhkad71Hm+tleB/tLIqpF17YrwYNTuaKC/LK5zB716VcmY/kFw5AswoWddqEB3GeC5ZNMQNgy9G18sAztJumv4PYFFvKdUxFsIJfAxD9VW+ptTjiJw4ytiohhKllYUINpiabnhtQ8qV6CzdNwB/IVLrLQel4rcoCVmWzqGf+VqwB4Cg39u5fgdLjgOWeNFeXDoE+R+GrKARZOnuVX3MN0L3FQkUtcADx/GqO3hQO83SfYOiXgAPK0PidGvkB61G1DpUAwetIth/8axoXaY+KJ3WXaP5yxg4rhdnlnnqSWOmKIszcHhL57GCzXWTkWar/0x3ASrCmpPA5fD1XvjaQUOH0FrjA9Nw0Zh1iAfGi8cT3TDkCHhhQOO2+dYC8vsMnTCpaB2WHoX2XzpSBZEL47fgV7B4w5yuSY4/MXX+UyCR5bqboDUHG74Qi52sI7Nn8Kjj8FjuwrPQQyePdg3cWyoHQY+0BV4QtOU5Zoa61sNT2AMSuCpRSgohCLL69SW/gZ4Pv8j8PDS/fJTePhd6B6hf1gCf+vhiZXs/kgM6y/CI0boHX9690B4rGLE3UOfGzeBP/hj8JAz13Yo3HZ4pIpqsSUGyS4lWjZo6wFn+s8bNwme2NnzQ+O2MxLoK3WKAlIVyXaUi8P0D4PDX8h1JXPaDQUPcXiAJoBQNGbfzv0Cht5lGbC2566BmBKNzNGHrdB+pclNDEWhyET3AO9/Bz7rqgL6hKx6xOeLrP6//meinI+9h/UMcPgoH5qCRBfU9cWtXKyZ5KJrwDLIltA7cAKhdcFRioeDMdcASv4SXQNZmrvhrhiZkstdrHNL9Nx84FibqySR4kuO9cqPHGsrn7CH4t7kOTaAIkq4oRYf+rQL4h5dnsizib61QxZrXux7Exj6BFXnSDM0PF9144tckIEnudFA7TTRVj0ULUOLS2JvKewecQPF79d4gHE5zADPDUVI349ijnWr5Fi3PT53rBvzfK0vA32lkdUe1rUjwoPC0pEat+ouCktR8WY8LF2Ug8TClbD00sfiISBFSyJ4zsNSsTqHcRhD81VY22PUhYSKkhDPGJdzQG3Zj3wdT/1dL25+db8AQcCelyD82/+OGC0MLyQ2nc+dJxHOice4RUERuhikX7gaEr+AWINR+kAfmq3A+99hF8NSfwdIlEbW42GpSOqMK70apMAukjqVyV7tPamn13KV1EEUBbK84ECDX5+wzmmMeBnRHusdIJdr/F0vnHXpDnmqHXXDooKTmLw7SBInA+VTjeSDbvBPGdKLF/9E2Q13Y46/O58YKwZ9oOMOMPXAGpzzNInh4GVSJ27TYq9H8ACpQ1xH6uBdCaQOiLSSOH04R0w2enUv3I15TkWWHXS/k4CdNb0mgBJVX6FEJXhieyhGWseDr3OaVkwo7HOBMSQ7UQj170iu5YIa+61m3u44ZKke7T1/z0tirAjF6d1caCrmbe9LXU3xmzXxTgVsLtc5I0p0WKJEewrEnCmqoMvyNj9H2rFKanuY9R78RxAELuynDueJaS3W9ga0DOuzUXya5FHnQisPfCAlYzNck1BArot446BiO/RRJAsbIwpFYip6wJOzjL0HavvGi3DjK2/zfchCxmQFbxUBevXDgP6CMtPbfN/f9YKYKIZ2WncfEjgQewIRU3xu5c7TK+iyxC+FtNtiCYVG0S+IJxScdVleXT4omU82RXZGGY/1PzzPs4SPOlwgZnRY10dP83OXMhfJ9SS5Vdk+SMd9Ipdq6JNOLjQFhQaxHXr+QMQj/ufldJy4z6yoIRaqvKhtNZRJdue7G7IgIwkTDdAoi1u8gaBYUJbiRL0+fkMBtNAc6KBNDsQOElpo4hch8cGVCxJPx+EoHQf5cpSOc9Zle/Wv8P5yYqaF3J2gPdb/cBzHEF7ycJGYa/P1FHn1L12q+1K2tCELa3sEXQnnyezr4LkK2DXPHILAAZTAz7KegciGKjj4yavJjbe5XL1hb+0zHnVOYOA9lC7ZDaiRcQG6aK75ygkn08XfCtwm4+qFWiqUzAb1HZTMdtbneNve4uZqYq6d3Jum3CI8IT91shZaNuLmaqzzo7vpkUMOekSu+gwvlILkgwbTnvYvloLE9b05YhIEgtaVILw+8B7vewt1IIaCW7KkKpTufH/nc0kOHk3FEFtiUcFGFm4UW3y0oH0Unkbs9Q/BOEcOPCaoMgcRjpPO0GwFcNUqUb4KSkFcDXexzo+B0frQiilyuEj7TpFxIwOUfTu8MRgYa/Abiz3NIC8BdW4K0GTxiYVUmyrWiwqp/rSYNPRaosJdSX6ml7a2itMNIluNIPt6S9ZGQ2SjgdxQksu18WNSkhNF3iZ0KHQ8BRp3pZY+bgey+CcdCuf7Riyk2oZ2RmIS3LbxIjFPigqpwLy7Vfd9hsLgpIbcGqFO1xncAfBwEYJ275N7E8SsHh+o9OpfgvMmliE2QNMedButKBinCZTygX26jt44/xw/uI/g3jkQbx+oQaSXQd+bnOHDM3x4+poJCNeORfgXniSmYCgDUoeHPqSZcpCXEgVf5dC161SkgVExvQKjsquB8r+fdSjEr0ZCGSKGyhDNHz2NOc74xKfS39zqBzA8Y64tsj9DO/dYwoM8N5pkfCfU4UJ4xRgYUWAd71x12edFvMjlR0W8XaLOFPT6nhcdxP/5P/RA9LZFTw+y3WhZUI2jBfWZ3OCfe5A7EHYFZpVx9kI9zcB7rPWRW50jNlVDh0ITEhMa/Ag+7S92KFwq4l2qwU2vXXUZMd8V9Lk8mie4uSq8YqRP1xjsmCNxgEdgKC7oZOxb1O44Ma3xG764LpfAP5JK4HGUKETqhucm9Xf3zeUXoG560DuIK+Uv89QCT83zkXnQsLnhNQsbOjQtlQPMlPsNBRCoKTMdcpg2APBo74p1B5HNBmizvRSiXv6+6MaNWkF+IwzNgbRVH5op93e/gP5FUP1H8XhVCqZ/SYw1iC41R7h5KvQfNNqF4Uk/ix0yJ8vkYgfe+01qIBGHUqAqCGiWX1cyzl4oivyrDSSov4fbAikkahEsW2AMWmo8A9CQ5epjnL03uRwmUAKx90Ap63JtcOgTpn8knT0JNdZ+QwHkKrcaWc/Ar8IT09qBBpIx1ECCun+lBpKadH/Xx9Csjj5aRNgEBZYGzg0mvMGkKhfrsUQ2+s7br6Rm1yRQvjG+lNqvRMU20MT4Q9Ys4cWSiOAaH1kAEw+NTj1QbL2vg2lIu9rITtNNrm11ZEsd2QQVdGKsCO/O96ihDk3sMIXdU5sGImfQaVtE7ajBY/qVs+e8/Uqf0H4Fw4FAf6I2w1Wfg5uKyRUD69yBia4wJ1psv4rr6AQdtGWCGFdiuheJiW2peXG8mNpqhNxPcDyhTiXhuv8cMFRhDJXWLOiHcfgY4+6HRoD9lsimilyShxeqw3OVIAo/XXaTa6oMVOknS4jRQtz4CtM9gBMiJjYOtZx16VDbjHSAQN8BH/lpCbwovAEGgydnGIcxsiU2L770aHKvNC/KQR7Efxwbv4l6S2FYNc9GofU3GKvm/eJuyIURImg6pdT6a/4QXpRBTb7XLBVVSWzSZdLiuo0llsAvcVACP8icSvrCodlKYrIkOPIVAqD+dxAD9b4BkvgGl/EVbnyF97z0d7/AdA/cKgjpYy04UGAENdY9L4GK3NUwDhMi337SmS3FOgK3weEj9GFreKE6LvKGCoNTYGQqGjETmtbQBzM8cbH1FySQLjTODxBDMqgYbcyDTpILjfNFUFts7+HJWeRliUNbfg0eZhXUNu09IPy8JAe7YXoNkq5tjzH9QxjeB+3qd2HiHgy6vLnVlAvDNptyPY1oPhkaa3Euj1EGugZQ/rdWz9iNkKyjFi/WWF80J6ImFwQSS6y7Dwit8WLckJ/QOJ/mUT/wd7wLDlSgxvlVmJ8Vmw8IZw/6kVRBeMJNW2eR7MTXC7ITjdlIP/xteKGKPhK7FcQ+LFFb8+JnumrlolYQ/3GaqK1GYqoUSiN1eeC3QAk80n8X9ScSh/Tehsex+S9S8RcqAfM25xHjxdS+Lpaa20BSXD+4ApKiHQg6MKddQOT0v4NNCX0pqSi4TIf0aG8x9I2A7ITliuxEDCLooSf9rG0tstJDDMn9XR896odItAXp5YLI9hNoCdtSQUMlvQQ2F4a5/a5oS0xT57AtPFcJ2LSCLwRivLeYBrWVogHQMfcVRFtUoFGF978nV+sYhwkV8Yg1bz++AiDaApUwILaxqyGmSvxdz5FUNAxcQMxZtr/jLTFcA1vnaJ7DT6PXiLbEEBIognXvIcmj5kBfKdb8XJQ8Qhr8GaBXYoLWFnQkjl7ma69uGqk9AUT3UAk8UOhAZKGeJlCkus3wiLJeaM4wTLppfYTGWnwG/v4IcTnnpQc/bOVEkkco1jlqFx02MGsw2yRNHA3mUd3HjYXhGS29NwYtpT+QPJLwQYJhp8zxUmTNRIzU+tpeS4JhMdU1KB0Vy8DPull8GCrBfyIYBkTOPiJDgaMNL8r8Xc/hw6HJyGI3021FCLyAc8Gw1keB/nehmfLIZiN90gW6yXDk7CGy42fmPSYY1kluKInxYn/3C7cqS0oHg5pxqlfzOGiuJFcMMCrLfwITan8gGAYIRVkaye3tQRP9tBbv+ghjLRPKbt3KTEjrTpVQotweMYkIwXhDz0UTDPq0aI4euwalIJPfoFLn0o5Bby4WXsf+FEcz3/SflcnQXduYAx2cpteh2QpqD1SowFWjl392U0pWBK4JTy+xnn5qRyPmrUEtDBF3ktxeTTqmLyDG6lG7yBEMpr044jnuGki7B4lVEnzAwdo3I2u9wSEZ1vIcVfAA/YB6UJBY5cD78BwSq3T1gomTJopaLqtTQawjstRL9FE7MV50SWYcxuEo0j1qmJDp63gCuviGAsgv3PBCnj2SpAdF+KlSGA+134JIkyl05IhC3Rfvxbhtj39rZpX1D0OHNwz2eIc6SVFrGxKigklm2qeB3pI/IlYphahBDrfRBzPhWR1uLPRqn7ob7sL4UZFxasr1I3VxaBL7PanXuI41dZ2O9cUS+ApyqYZcV1Lb6luwmqgdDWVpoa2tUPltN8JUiBCa2AEi6j8lhUHqdV1sQIdBUisKOHHbYLDHBalX3Qu85wty2EY47z7sGzTnNC71+v2akebnQskE69wB8bDRepiqDELJ2XGhZK8m19f+mECl65DnhrTu3A+FkmlUAr8HJfDuiyXwrvp0vyE/NFNG7TeDxrinH4RHyNnbsiLziKtdjNUgioXwYj7lx9HeBaHkBiSU/MylRAPoqhOFkj8TowoQSj5dAY8ANHgFhM35DNrLxu37dzEAEqIcwwfs9OE8udgZHJL7O5EyYhWUBjhhCFSGB4QrC+AQEpke0KdFuqLSgFH06YU9UaGfC05Qu9rg0Gd3Y3bi2eNWZuK9b8iVWjRWLiF1DxNFb8MScxxIOB3cnMs1Nxf5kZjUCSTcRCH4JkgXmV6L/I1I4dgrYUajr/VVcLCaXOygD6Y5zCrQRMx3vvDfq/B8BwChvIrjwz7WuUPvjZPzrUFzFaiFwGBFmKroUqQD9dT6CMZ0zVYAQqdiD9ASOodiIv1iUEYvc9Ch0HyNCnxdOmgETIKjgSZk90EcTs7cgoV2MLXAwzTVFVS+i0T6z2++i7sHnKA9UcQJsvV2I6jvzlZI3VUQ5EkDaNF408eBvpLwnI62jLOubZ5wJcY6ifhcBw/aQFFBEOgQh9tgou/2SGhaixuLUfNpjkuRCcO30IgL8RACbU2JLZ0QaOi4QDyHOEMBDWolZ6kDXfDKDAVJZhw5GtIY8+MOBij9G11OE8jHuPpYrxmNI54A9wdGd2xKmeKr2wiNuECSOWjExa4mNFcJ7kCs8VrUpXQrcz2ax/6uD9Dcu2VGgY5DoAgY3Hzdz7XwoBdGo1GOFiIBPmBnztYia73EcK2v9ZVH/QAK4UAl8Y5LLEYQNUZnK0B7zt2HhpAsSb190X1oLOWQCjyUwKPuuATHGjCWHI2PqEGuilyti2yrb3Yhx6SJ2tWCX3CK5pD4h8Wp9+BPi7l8QCjBc0MDYjhiEtzofR3wngPvRfIGRD9QsZhTkelpeuRrfxswVwJHcLLEE26BCSOPgL8OnXMl3iu/RfZNYCghEuB8x/T+dHi+Fe8r9bW98TQ9coLGaNL5OL+2x1AOtyij93WiGAPqvhRnK6Nx1MwKfdpJTJV6W/JE0XIogS9F45XqM6C8r/MZbnoN07+QIwuU/k2ustB0WWimIrwoh0E+W2rqAJXAe9GUh8SJBEjfEdK+qMCDcfbCeKWlmuCI1PMGYjw1MEzHUZ3qacwDbPrLQzPN9N44eGs07BvJKbiCwHWe2/mLYvqvoAvvZR2b1PZQaFoTGKiAwdiND8RR3q66DDcau4ySu1/CC9XUdnw4WcIYbG4DGucXqn2dz2AwOMgHQRQFU23EiYYamEzma3/i734BfP5tWKbXaGjAJ5iHNVUKDcAw5QF9O2ANFlDual2saYGRIzAURhOerw4Of0FqBfectWlwVCsyXIoslzLX1/Y6MFARmmmmNs0w1iJoj7JUgsN2funjj35s3IBCQAgJHGJ6zkDwbdMcntYG+sswXYFTkeWszYR/vibVpUj3au/B3IuBD6HpMpixBiLCg4jThYEvwLlhZnKtHu99I46ORKMEgHNEon5QgOmqz4Bhv43ZHnXuDa9YTgF18d+H+6YN3TemV/jAu9B8FWXVs5CFW4PgRkz4wmi/xtBMOTTCdzz1aqXRfk55mqsuy626521+hvd+C01pAJvT5ZjgO3fVmY5j8/Pdc/6yqMAJVJDznzBnqyDJN97g7/okiSDIUTGDOBizMQd6qYyviMkS6P8/7pBmlXGb0egBlMDvNMEsDt1DKCBCKs7gZIuMURmI4sdIndvzAOkjVyDRTnHQgwICtfCiDJJe1CJksNx99HE75EBRu4G35T4o94KIFZgHhywVhHa1T30d74nRusiaiTlZBi1x0g/eWvR8msX55U549NPdE3sdqFyzlED6QG/0eDGyaiRG6/ydH70tL9yq++JwEhj5W58JDJU4i3niG7mCxso6TWL1COs1U5YW1HD00d+dDxV4aIY7Ep9KaNhIbN64wcfQvoJyUahPHewwgJRkr0726vKCI1+gYd1hog/bIttqcqmGmPyG9731tT1Gwnzpzpo0pxw4aeh20xfgPYXESC253E1bZzjMypN+4Ah4NpEgiF3sC//9JXhQGMQKDAmKsNghfThHrvQQY/V47zes9ZVbdQ/GlYGRhWBIQghGSn9Gk4vVMCczXu+x3QRfBqZlv4bJd5pcz+0YY35hiLoyyw0yZpI4siSSUS4hBEJdUNhcTK7WgQ73eFFg4IPfUADaUmqwCsjaZ4BNU+YCNr0lxISKXDHQB9Ose5cPeWFUD/A3PJAAP/35NXggEhKiAgeEKSBkpY/mI+u9xKQaN33ztjx31eU4Y8EQfDhxpLn+IYg9T3wjV+tAwuGwjT7pZM66YdiDKBHd+9rf+UwSgm95gLXk3Yblbc5DmfX7QJHVo0kp0ECBZEyQBYZKHe1df9cLqI8wFPjannjEufOxRAnSYM3yNN4HhQJjETGhiqz3MkcLrMcCErtMBITDBZG/+Sk413Buv/P67xJCviPmdBkQGlPCOaR+6KrPFQvnbTAWAnT9Jb1nQwEx8pVclINHB6M/zaxvkD5qI1cVxHjhdSXwL6Fl8AaXocDfle/vfOFre+LV3IUynVgjH0pQIV+mNg3mZ2vuQv1bjcTlxw9RR3UqGm71HMJPYNV6QBsUPxFIH8Lmd86bRAR+cfec/y9RgRcYkg9jnP+YPponV03EeANuLPa2vnapH9prMm3VqbbqVDsMGkxxN2SBs2AoCA5+IqbLkPRHM2XVg3jokpyYLgV5/smS0FRpaLoc1GvmqsILMnJRfoMrPF8VmimHQqqRr2CBWx9DsQ5oiUrTcGEgSQ0aSKKMjYOrSLKVJ9kqk+GLy9Odqvve1tdg08aVYNOsM5xnH7ChIQL9XXfg/Fr/id0jVl0JaOAC5zsET2G9HyifgUpP+zt7Q95ZTZZNng4fFJGn0gyp1ke48RWIOs2Uh5fk4UUZVLXNV5FLEPdRW40wwFWk7s+6GbvxBhdMjbPqqV0tua4MTZfBHPl22EZw5qMRvhBjylPAo5HGFyfD4VSeZJOl2RXZdlWeW//a319OTGsjG/304TyyaQnnTfR3zpu/Bo90DvFQW0oFYVTW2Rq1PQLNdb3l9uaC0/p7gFB1Klg5sY5CnoLm0efCiBnjS5ghNV4cmqsgV2qRkEErY+9hsSEuMI5EUhaAgry5BUMDguPgy9gMlDilvB9NKZdkX1ORtHFKrPItSZJpqEiy12TaVQ8cLQUeY0lgSkNuDjK2NSQY7kPhpxALcRKv/+88/sPGLfH9ohwDcwADNsa+SW4O4ZNap+HbWfPLM9XD05qs04rk0/Kks7KkMxTZOOQproYsr/aer+Mp3veWGCuKDQnXQ8GYf4QDdYcFNAI9YQolEFwWKaV/TulfZIsTua8fPhbT7WKneExRG5qhLChzsQvD+PhtEDKml2C2sn8YsQBN4bmqgPkjlCTqH0CTgiINKI+qZFsFfK+zsjun5Umn5cmn1Wm2hjyH/o3LWOIfbwqtD9Cnq1zADrUDIjWQeOF++fFfg0fgIB6K4Bxuo05XiY0hbLLF2S+zdXw+aXp+WJN9VJ1+XJl6Wp58VnbHXo16M8V5eW2P/YYC0AsYK0R6IHXUjoY+bANpB+8AFxgFmc7wNDQAwcRdxOfD/NCdWPXF76ZeEshKACzWv4/qUlBnxBbkCJgVACMyz4dnoKcnMMb6hxiHkT5qo3Y0UGM9VRIYeO/veAb9PY3ZrnpER1Un2yqTz+DmSz6uTDmqSrfKsg7rH9jaPrgH5PhsW2hrhDpZYX3HQiSAxl2yf+i8ScTuL8GDziEOiG2KYHAbebYZ2J70znXbB+uP2gv3lE/3a+9aZZnHlaln6OQEf0E8VBuyPE25MI2t/QneUxAYeE+MFoZmysnlWtBzg9GlKH/sGYjz+ZB3YddiRQ2x/NiVrtoLLHJ8J4mdX9J4mk14H0BlDiDBR1ivGSA56aQP9NROE0wVmq2AAuv+d2Idr1QuWgvMJtTmVSafVSafVgA2h9UZ+zW5u3WPLNq3Z3012Hx3aH+Ocu6xuJ2PBFCpNPeLPnQiKvHHfw0exMshao7naZIOeknXIW5ZcMz1HPYptjTvdxBCR9XpYOXKkXuDDiQIv5HIBLhA9RkedY635b4P5k++DY5+JWZjOO3r6NMuyLvgw5LpY1YQQr9fwXQBJ4AHjQ6CKVSrMLJBnAzg6Yc4zKqnttXkSi2gMoZQ6XoOAuOqbJHXELtKYY4cKho9K086rUg+gX2Ttl+Tu1P/ZKPxzVZ72elEO743T/vtHEUIDPQXiInN340942BcffCX4UFviZIPDBMJRQKewNmuY3Vsf1i/2lq2pvmw1fBiT5FnlWUeVqcfVaUdV6acILMgnUkVSWD0RJCacrHWh8BY978NjnwhJkvC89Vi+gftp07GYUTTd0fgrg9NQz0CWL+FhLUIDUPSij8/D6d9aIojJqS94jTRp12Ayk4TuV4fXpSBiz/yNdD/DjfkY62PUECaAWdMdQrsFXSCnpYnn1Qkn1QAKoeyzAN5JvUgUAAACB5JREFUjkVxf6fhxYbmw6quZMPYcLowiJ/uMGRQ4BhB4KFO+i///G3wCBzL0hGKwAPOY9vWws5k73y3aqG1aqW5cEP9dlv5HCxA7f0Dea5VlnVUlX5SkQJnUkWSrUqKYYGxbsz2Nt8DddXOZ3hPAd73NjD4EfbTxDfwyBeqyRUFCRpEGpiTZWkB2A5bgY84aqOP2y+so3Z4/rAVYNhvofY01LY6stlArirCizLYKJMlxFhhcOgTdEYYX0Ifdusjb/O9eOU7nP/iGXMFld36x1sN+Rvqt2sthSvtVYvdyrWhzpP12YDzmKUjgI0gRP+IA/0jHP8+eHieZWiKDAcw16lla2NuYqqvc6pbM9uhWNRXrDQXrjd92FS93Kl/uqfIO5DnHFYjhCrgjLWJDXwxSljKLKiRMG/zPa8uD2t9CKmgrufAJvS9CZg/BIY+BYe/AHJjRcREMTH5jZgquZDBmyyB58eLAINhGASHGIo3gET3C1/HU6z1ERopeB96ItQ5ENYoM+PZM0hHVSTB+S9hk26VZ1tq7+/WP9lSvVxv+rDSXLjYWrHQWTdv1M4NdK5MDR/vbQR9bo5lolERmz8Q3/zz8AgCy7I0TQdw/Pj4aHVlZWR4eKTfOG5qQyDVLbRWrjQXravfI3P34ECeLTp1yPmWBtCfU1vxLEP8QeL45roMlzLTrULJoaZcj/YuDGvU5Xl1D84XdKTchT4Q6dJnoMpmFLWgeTlxDubyg9LYh0FO80lFynFlqlWWZVHkbSufb6jfrjR/XWytmOtQTBk0033t00O90+OjS4uLx0dHBBEUgOj8237+tt3D8zzDMCRJer3evb29mZkZo9Fo6u40G9pGDbopg2amUznfJl/Ula9oCxFI+Xt1j/Zr7x3Ic8AxrRJPptQTOJxSTsVdJXoTIkIoMyQOMnCgiN2pSHPWQRIPoII8HqB1vlRZbmUW/LYuHV5Zk+oUJ+WgThWRPYM/0T9xVp50UpZ0VJZkLU0+qUq11WQ5lbmuxgdnqodHDY8syifbDS821G9XtV+WdKXzbbLZzvopg2bC1DYz3LswNbaytLC7u+t0OkmSFBIGkv91lP42eDiOoyiKIAiHw7G+vj4yMqLX69v0LT0derOhbczUPtGjm+rWTHep5toVC61Vyy3f1jSfNtRvt1QFO/VPdxUPLbX39mvQyVSdcVydflqVagNhLKT8hgoTYuPskNdXDScWBPAiVLWpgIECkhrSQsQ+EGVylEyqhu5n8Bjjc4ZFbMC0ppxUpljLUy1lqdulqdbaXJvmubfjo89YbO8qtrYVbeoKV1q+LbVWzrfXzHQ1THU3TfToxk3tY/2GuYmRtaWFvd2ds7MzHMdpmr6l8LAsG4lEcLBsxwsLCyaTqaGhoUnd2K5vMRk6h/tNI/09o33dY71d46a2SUPzDOBUu9haudzybVXzab3xzVZD/k79EziZanIPa7JP5Jk2WbodRkJL2nxSalVMqsabsypRlqwSjfhCc9iAbrm2qysuby4OGS67Y6tItlWl2GRpR9Xplsr0zfKMlbJMS8NzW2ehf7g+OKNzjGotA+qVHtVsd+N0j3bC2DrW2zna1z3S3zPSbxox9y/Mzuxsb56dnfr9fpIkWZb9WzyC+Lb723YPy7IkSfr9fqvVOj093dnZKZPJ6urqWlpaDAbDYMLPkHlgpN841ts1YWydNmjmupRL7fLV1vINXdF286c9zZsDdf5x49Mz1UNHwz1XfY5TkeWQp0PTBdSoov2EXAmA7dKqSLbH16Vfxf4qvonYq+6oyXDUZTuUd4/r7+/V3l+X5y1WP9zTfbGb6wOLPaHtMcfS4O5k7/ygYby/e3TAOGzuS/geg8PDw0tLS1arFcMwkiQZhuF5/pbCEz97HA7H8vKyyWSqq6traGjQ6/U9PT2J32rIbB4e6B3p7xnr7Zzu71we7Noe7bJOdJ9MdNom2pzjOs+4BhtV+Yfr8EFZYKAC7y3Be776uz76O9752t/42l5h+gJMn4/pXmAtz73Nz7zNT73ap17tk4vrKTzf/Mzb8hxeqcvH9AW+1le+9jf+jnf+zg9492fcVIz3l+ODMq9Zbu+TH5nkez01J6Mt7oXewM5UcH/Jtja1PTs8M9Q7NmAcGegdNvcPDg4OoZ/h4eHR0dG1tbWTk5NgMMgwDMdxwt/kT//NuwcG0AkCSMOxLI7jW1tbg4ODKpWqqampra3NaDQmwjM4aB4y9yOEjDMj/euzY4drsx7Lqv9gNWhdDR2tkEfL5MFcxDJF7YxSm+bIqolc6iLnWsMzzaEpNTHeQIwqiJGa4JAsOFgVMFcEBsoD/WWBvlK8rwStUryvNNBXFugvDwxUBM1VwSEZMVwD/9e4MjTZGJ7Rhuf05GIHuWqMbAxQO6Ph7TF8c9S7NupYHfVszfr2VwIn2/jJ7sn28sbC1NSIecTcN2zuHzIPiPCI2ExMTGxubjocDpIkeZ7/27H51UqdOJg/eRBFP4IgkCRptVrHx8c1Gk1zc3NHR4fJZLoIzyBCaGDIPDAzOb6zseY8OyaDfjocZEiCo8ICTfKRIB/G+KCT85+wngPWsc2crjJHC/TBNL07Rm0NUht9kTUjudJNLnWSi+3kQlt4Xh+e06GlD8/pw/Ot5EI7/Ha5O7JqpDb6qC0ztTtC708yR/PM6Qrr2GI9+5z/hCecbNBF407S5yS8jqDXGfA6ca8Tc9oOLbury4sTYyNDg+ahQfMgLLBpIyMjY2NjU1NTOzs7Ho+Hpmnx6/+9lu3/g+f/AW9G9aQ8EF2zAAAAAElFTkSuQmCC;" parent="Qc-D_8kB3T4XEGCBFrq9-23" vertex="1">
          <mxGeometry x="26" y="16" width="105.53" height="91" as="geometry" />
        </mxCell>
        <mxCell id="c-pm6wDFBp0grKCKoOtM-146" value="" style="group" parent="1" vertex="1" connectable="0">
          <mxGeometry y="130" width="554" height="725" as="geometry" />
        </mxCell>
        <mxCell id="c-pm6wDFBp0grKCKoOtM-1" value="" style="shape=image;aspect=fixed;image=data:image/png,iVBORw0KGgoAAAANSUhEUgAAAioAAALVCAIAAABhll0oAAAACXBIWXMAAA7EAAAOxAGVKw4bAAAgAElEQVR4nO29zZIdt5WujRIpnRB/HKI1UZHqG1B0S2JJLDrCnhzZ4pk22xdgUiOSd2BfgH0HRY9M+gK62d+UsuVvYEeYRbIsyRG6gZaqRnIxRImKY/3UGaAKhZ0AFhb+kcj3CQ6Ke+fOF5kJrBcLiUSuvXLjogAAAAAKsHd7R/29fnND//y5FuUBAACwCCaWo38F+wEAAFAQlwPBfgAAAJTF6kBruPcDAACgAhh8AwAA0AA9BxKwHwAAANXQHQj2AwAAoB7KgXDvBwAAQAOQ/QAAAGgA7AcAAEADThLfTSbJBTGZ4UADoTihFJWFCyUyWEWCEISaCDmzn8RAwP85hOJ+nqiyZKG2Kr1VJAhBqJWQfeqB2kVcd5L/81GForvhTKHEw1myUCK5ytlbjYUQhGoKCdeSo+kNTP2QdsJRhVLCH0coS5xdplAiGcvZVY2FEIRqCimm9pOrC+ktx6hC6V1vWihjH39pQolkL2cnNRZCEKoppLMy+OYtwdaVTfPDW/e3XXt37XBUIeLKZRHiVBEIlRiFK1fO0BobKhTdNCAEIVolQmiyzbH90D9wyXuLYu62ByGOSqhQ9OEwhdLP22KFEildzoxNwyrUZxuE0NKEzA3WDg4O1m9uMCP1xoufWne08/WrzHIwhd46ZRd6/Cyn0FunPrOqCCEeP7sQJERfubfdQo94QopehE67hb7qSyjRgZiNM7GcdI1NF2I2DY6QUsksdGAIPcst5GgdWYRWw5dd6HF+IU+czCZ0FPknV0lFfq+QWchD+1H/J0rgMh4hxNrRH4/dJjQJOqQlOIUUhAmFCDmbsSbkb89WFSVE+IEO4Q0ZhNaO/+REKI+QO/zpSCGvA9URinYgTuMsfUKChJjXt2uh1QjHbBoeIUYzzCKUMar4hGrFSSPyG/0EKv0gWtCK/bhKwDEeBceBXEKcE3osxDizbiFWvDgS8tSVdO+ReGt/sJB5eaSQLw6mW8IshDi4fh7qPdHlzCuU0U1rCGlxTraOSKHwZhgnFBFYYoWCQ2WkkDv4u0yIL7SnJl5n8R66uLRQ0AnlbJ/FeyK2F1HeE7G9U2jt6J9L6PRnQqthAUIhgalzoSxUK2cuIa8N9yWk1WRZyWOEopphhFBcYOELxXmP2j5GiAzmZoCRZhF06uyL7hDe8782fq//9587v5hs8NaLnz7++tWtK5vEnJ+JkPWEvnBxVehvhtCpTx8/CxWyVJEXLt5dFbpmCH32+NmFICFrpX9+VegbQ+jtU589ihbSqsPzb64KfWgInf7s0VeBQrZ4MVOhRMY7Ib0LrcUKVWyGZjaQN7Ac/SQmVKqiBgjZgv8LRvA3jzpIiFrzzWTiPapAExMKciArkxOqPpmc2SAHcgjdtX4yqStBNdLkeUNFffiNTShs727j0T80A0cK4wkFYQbQ7OV0RWoIcYUM7+E3wwgh2QplODajinAEliAh03vMOClsoVLGyQAhw3teMCK//FBGfmVCGy9+qk9G8GJZ9cCV+pjeQxfOi/WcvnDx99Zzqr5NEFqpji9cvGutJepb+Qc5jmUXmtR7a6Wnv/WOzxy3ZJ/3uL5lDgRZQ8ashRKx7r9aOSEULxTSDF1DcF7WHN6jmHzrGoJz717fFRUMJ9+6huA4EOH9hY3fv7Dxe71YxP0aE+4LFwjvUeXQ/+u9CRRNnANFCd3lG08KdMPIKUQ2dQiVI0s5OTupJhRHUPciSSikCzgLoaPe82F/uFwYnIRuZmoxCZVMn2PZj9d7XISabfg5XQvsPiihu4FC3A5RenVk3ixNb8nM+8zjCSVSoZxxUzAiiBYKPerorLSeUGBTjRYKDT42IVbHODScxh/Rxu9FyCiRwm4/egLF32nEEFzoLI5DoYu/DxwVi5nAJmrmJYYQURXyji8tSijLntdW/zGJ+Ek6dfx4TKGoiBFBRGiK6D3HERrSQ6u3J/up2VQKUW0+bv2JvxGMNyw2l/G3k1o5ZbPqs2YOcuH0e6LtOpFdEdfXjxFi33mhZr4N4D1gCYxaUfXjOjkTl+0IfS4a6BJn9jNMk67wIEg26o/OzJ9v202/DiKxnCk/D2oC1aazVxJCawolOQQ9Zs+9tttP0NxthfkIaiHi5s5HEPQ0QIrPffPhNf4lTxVi762VUGL9n0uHo1A5425NzQV9wVMmcT4X/PhdSLjQL83jcKG4AMh89OeQNSHKh3TWzLfgQhydXW8Dm5wR1/O6XhhCK9c47ikzjtCjZCFiZTBzs2Oh8DbGbMkRDT5aKDFiPkwuKo28KOkq3j3kcqZqQt5LXK1PMCOh0p2D6HB6CLs1RrsU97mfgBKsCRHqtEFCqwE9tO/AD3AT54joDTGZ13AHZydZhDjDTT2MvJUr58Q8yglFdGUiU4qehaK6pBHdTX0bTiySPjcJdCVGgI6E8qQEHCz2c1iI1fE32t8m3sMk4mjjTrq6fnrp6IoSVxelUFCNjGtd1p4XvauMJldNiA6m1m+bjLwFlfMhL7utLDTplgVdYma+ztlVMyFbXzNSKCSwpAjRwdDoptuXo+YJ8YK/FHKse20lIPv5584vrCZkek/KoQoh/vm3a9Yza37oWrScyTd/u2atK+aHKbWEEjKaRFADM0c8vvnwmrWZRQsdGmq4kLr3ECRkDhZ9++E1M+ZaPyw98iZJL2fPQvpNo29tl9h13flC1rpkblxbKGogzNrdFA4HcgUBvpA50uOKk0efBw9mW1MC4XAglyPwsU+8vnV/e+vK5uOvXzVncNv1tGMMGnY7FHr2qjYn/XBf3kQnaNhNCj16dsF8msxbJ4KG3exCa0Iw0oIg7zkU+uqC+SBeKyGzsgd1wKXQw68uXDKEvLE1JaWIo1o5GwqtaUKuCcwRGYlZlzhOU1zoaKJ2RF/TDCwcp0ns1EoYA0Jrid30I6FfCOGZyB6U+ggi+7EOwdmxeU/ooR79kOvV9MuwCUJv4dDvqPb/kN3/iL7DH/rDvELEJKvodCT0h3XyHoWqCaXL2ZWQ9UKH1iUlFFdp+W0wOtSGWkJloYhpcqHe40qADnFHs1DvEcp+Ju9eNXfqhOc9av+mkNqYnzZx3lZLCPEdiPP+3TxCjFcXU0LsxpxFiDOv92GaED+AcoQSqVbOuQjpw6rRQhGV1sQr9OirC5WEnl0IDSzWSO0VevzsAt+ECO9hCL1qj8m2Zk94D9EMj1+2LciXHwtzKYXVQvDfK+4Xci+CpJ/3OCF9ARJiWadHeYXcC1XpNX5GQuZwkOJhZ0LRb9r27memJySjEDPcRL9ym3C4foXINdzo0ZQgIXqxOHp8KFDIsYjOgRBafkILmfvfu72zdnBwsH5zg26rkzWj3nrxU+vsao48R8hrP7mEvPaTTcjnCrMT8samroQSGe+EdCXkqrRMS+hRyBFYmN7DF1LImGlmRYlC5mqB0orMrCiiGe7d3ll75cZFzqbWotDarn1yhFwOdPm/7Z/HCW3/uzOH3cwrdNUtdG+WQg/dQpe6FEpkvBMSLfTwqwt527ur0j6ar5AjsDx6llmoZkzOIjTZ4Nh+OD8Igk67aKFzL71o/Xz/ydcZhVwqEBpSKJHxTkickFUFQk2EQulBSN9mZeab2jT9ni0tDyEI1RdKZLwTAiEI1RfSmU68zlIIjjyEIFRfKJHxTgiEIFRfSGF57iexEHx5CEGovlAi450QCEGovpBk5d6PdUdx8KMAhCBUXyiR8U4IhCBUWWh67ydiF+m/hRCE6gslMt4JgRCE6gs5s5+2hE4d6VwodLYShOoLJdL8hMy0aUBosVDZDwAAAFAO2E8N0OtZLLj0ALiA/QAAAGgA7AcAAEADYD8AAAAaYH/baVv0Weev/fLH8o9PfvMX9WGuKbaT6e1KS9+g3HRe/YhEpoOa7NMkiwrzsYBCp67EeUvBPBtmRSpNidbRSqUcqvz6BVIfZjwi/UTVrwyTClmnycepxEy8LnF4rp0TpOi6VFRdkXeMM9rPZC6m6ROJQnXOW00hiX7eXObaNhRaT8ikImXEnNRbqC5ZY3ReIYn1iF775Y8znrq2rcOMKulCQQWo0+RDVfZu74RlP9ZyZD+b6zc3VI2cdFj061dIqA7WGpmOfkQT8gpNslI9VOUS4ncREoWyMAnWMoDWVK9wNkq0QeFoeiVyXNNQCx1Rw8owOVG5mqH3/O/d3onorAfYj2s9H/l5UUsHswM1obIDDQzq0qhw7YdwF/mhMiHUFZ1O+ubzhTME1Buv/fLHsqi93abqE9Oksw++jccYgSXbzDc0rUWB0ECDvAcALxnu/VRg7o252i2Z8ZhLxmOi31eYI/M984uC7vd3Hlh6nHito8YxAFg45oS0udM2OI50JmdKmP00cdo6tUT63Nytrlp7riAkK5s5Yb3Pa1RtogFnnlgi1jOv03mfmkNl7+mz0nJYv7khZ7VxtgzdOfe5H+acglxTD8ZbGh1CeVWyCyUy2GmH0CyEZk3ACxeYpoIJCCAvaLEAjArWfAMAANAA2A8AAIAG9D7zTVHtCb7BhLIvCAYAAFkIW/WAQ4noZsbQQssrVJugMt+ZMAAAkIV5ZD/VVpmEUBBtF5ZfMtZ3B8xaqBrjHdF84doPkWoM8BAASAcrbDah5vNGg13f8Y5odiRlP7rxFHoFXCFGejyzspCObL0YSGwLHCgIvdKOcUSK+m8S0onQjbGfoq+bA7MDCyPVx/oW4FkLgURUWC5xX7xQ7zZ+ydFyrlNtgU4IAQDGYy4vvomZ+TaLAwPVQL+4FZioCSQz7VZmGHybAHNaJiONoYOFMEaltQbkvAmQXHiU3iBit3Nd9SDxzFbzyJpCMP5lgrnXoSCZi6BEeMkw8TovHKEshRlPiEN2IbTkVuDMJzKGmxJJSfY7QK4cKFplrtkP6IoxWvKMwGOn0Yxk295bPtXeyxUH7AcAAOZHk+kGedMp2A/IwEg9SjA2w6Rxre716rqJZUh626lpv7nOyHjvJRxYaDI+M98jSqHhaRdCvPbLHw8gNAFHNDYBbzsVvFxvptPPAZgdw/Ti64NT1wkZVrxWGQ+8Z5mgMbeiznJHQ67sh0rbA/N44QIAwEq1MIp4DbKTZD94zjGIam/HwWt4AAD9w733I50Gw2sp6E6A1boAAAsnIPuRj7wWfaXE8NQZRsci+QCA/gkbfFOLLiANAgAAkELwY6d03oOsCAAAAIeYqQfwmBRw1wcAkA5zCCo9XJcTwqI7g4OZbwAsmcQbJfyfRwjhuZ+q1F+oGAAwHirW0zlHrpv03swmTgjZDwAAgAbAfhqAJ9UBAAD2AwAAoAGwnwZg8hsAAGDqQVXUEsWf/OYvRUfGqgkBABpSZwWAQirIfmqDGz8AgET4D9kkPvdTVAjZTwPgQACARKo9/l9OCNkPAACABsB+AAAANAD2AwAAoAGwHwAAmB+c2WhZZqyVE4L9AABANs699GI1LfX+T+KrLEuOFhLCzDcAAJgfk5d/6vPTmAuSMlWEZkL6PnW/iRNC9gMAALNk/ebGxAz0NCXjhGmrkP5t3G6R/QAAwIxRCUoJ4yGE0lVgPwAAMGPMmy57t3dKONBEKN2EYD8AgPGpOSOgJmbG47ohlEUlrxDu/QAAwPxwjbZZ5yAkCll3ni609sqNiyklC6LO4qwATIjuA6LGgibwX25NbJnlVlA5ob3bO/XsBy0ZNCSiBaLGgoZUW1G0FXu3dzD4BoAFeA8ApYH9AAAAaECbmW/evPLcSy/e/98/nHx45U//2H/ydd6SnHvpxfv/+2VD6PMiQu8YQh8UEXrfEHp3aCFi7k2WJIYzDNLP2ZiXkJyQNhF694PPhRAlhCZt8Eo5odWocuVPx0Klq+uMaHPvh2jPW1c2hRCXTn9m/fbhVxeEELfub6eX50ho1yF0PrPQGYfQl5mFNh1C20MLuZp09N1X/kPdHZ6NWQjRKtmFXA1Q5GuDdEgRWlTxVlfrt3FbZsHbjiKeNNq7vdPRcz/y4vG3jK4uEBpPSFLoaTuONGfLGZ12whXyCjG37FxoRWVNiAPPxvfu3bh69beVq2s0utVZy6weAAo9nF6yH3X9XHnPBJkGifDqogl5GpgQQqwd9oyShHwtWZIu5A0Zku0qQkqlmtDVq7+Vf2RZe5FZXbs65xCyClVrgCtCbgeSOZA4qrGup2eY2U+11EdfezTLqqO9zHxTA25M7xGaS/F7N5rQrt971oRYE0KrUjFCZ3aZVT9RaPPMLrMxC63ZFxXSt6wjdO/ejXv3bojyA+ihAVRohYw4FRCqI5TSAIVpckcBxCJ0FHzqVNdEiHFC3QLjXLB99kPf7PHCvxvkHZk9xqg3QT0j71gzIRvU1/OOnhMMLKR3KrNnPxFxzSwk/1RUE4pTmZEQOR62Av9WEKul+9Iga3UVIfd+vKQ/dmpNd9L33Dj7SfSeyX4YQjHeI0J6RineI0JSk8TGPLBQuU5loiWoHzJPRU2haIKEog8nXciRili4FCLkb+luYRmOSudA5Va/Tt9zS/vJ4j2cn3O9x50vC56jxHnPRJbTRNMb89hCZl8yI1kKyYn74wklkihEtu8VvA4UVgafcIoDSRsg/kXskyOaZT9d3PtJRDpQau1nVExmtyhI0yo7l/bcs1D2hpfFICHUXIhvQl7COprWYZXTKx2mbpF3epRBqv/q/yJ222zitTf1Ofnm3ckn3354zbXxpdOfqblwDiFnRTn55p2p0EfXnUJndh9qc7osQu4aefKNqdB3biECbxs7AaEWTApJlHDzzO72l+e3rmy6bjDQAXReQhxLaCXkbemEEO09J61CtjnZl07vPvzqvOwwRQTxfmZvR5Sk0+zH9B75ofVzRUTn2vQeIcTJN+6YVpEqZNvhiTfumIFVEp0uWHfoUhlbKGOzpEOb9ToSF9cr5GKOQjRthbwtPQLrPo8/zJR5qbpd2nv4+48oSUv7caU+tMfQ306gUx+r9xx/G1Iv6Q5RxirujYOuH4a25/GEMrBm+UcX48Qbd6Y/EUJEmbFfyEZloSA6EXI1z4gJRHRLP3agVRNiTYkyKHdrxypU4iZTG/shGkOQu2ishV5C2nsIQiul13tyNTNvOG4uFEo1IQ6bZyNvXZx4fbWQa577D9H3SELPRombMdam3b8QkZNMhKKntnolK9wZ7Y1OB99oDIs6vpLcS8hLgQnnqFZXRqqUFW4+y8gebRVWiEswtZYsQmaOldtoqSNiCPELMyOh9FExziDHyja5pkDMllnazyrh17C/q16tF08I5fW5qkLG0FYJoZb0V2OHJOOkuADJBTN3++nde6qp9WBgMxUCQAcOVI1Z20/gdavbt6nck6o2EXk8oaFo0IEfkNpncamXbL72E+49FQlVGy+mE0L+1bR8N+dXhD5OEBoVx2gkCAInrzSztJ9vPwyMOLH1iHgqjQhteWtttRjaOFh3HDGJM0OYX30h+za280kJMTooWTox4wkR4SJom+XQnf0QSxvQqLdocIV89cC1gWvVA+EInt6a7dpg2y0UtJ8ZC/lirmuD7adhQhyi9xlqUSUKbxcKvBwRSJ8rITRx0HKdp1ZCS6CN/cgT7Vomh3YgIvVxCjlqf8aeCN3MiHgd2u2qLBSxt8xC7tidN/OIhi4GbZBBEaeIkC03oq8g3bcIO6IEoaCvsgvFhZSIHu3YdPSybZ1vP7xmW/Mtf7j59qPr5mz9Egnydx9dr7NwWZyQK2psf3ne9bBOmNBRmHMKPT3veljnu4+vm4/XELE4IrInIgszKWQJdywipDvQ0Ypk8jryl2KLZjwhGT3sa76BVVq+bi7khQueGwJy5M0VcbI9qOx7FVXGlX2JvmTe9YPLCmnXjXCFQ6FMz4rqQhlfN5exkLRBdiHEfzubFOqgXdQXyh5SUt5dPTvav26OB8t7KlAtR6bHyjOOp9NtLF7ImERAx8FDoRz3PEqnPvVuzLQV6nUaCBiJlvZD3wE6gtsCiIhD3wEKxSuU60ZrNSFvGbhCCTErowMVIpeleQ2yLyHGNfXe9clVXXsTSg8p/Bd7D0nj7MfnQP5IRg+7TYUSqktQRUlpAEG3cHsRIiNUUEaS4kClU590j2T+NpcQs12whByXmFmL0o2hT6FqIWVIehl8szlQNu9Z+UlUdeFXFLVNXAPgW0KK0PaX5/MI+brG20/P8y3hWCg87AYJpZBiDOpX/LORKMQhTGj1igfVvRRjCOoqVRYqHVIGpuXUAx21OuTRTATu/Z7Q63csxLttqOpWkJC+2CXzRuj2TIQOVRgjbEHR1iLEvvdOCGWcepBSSD24Fz0bcee8jVDJ6tpEKD2kLG3qQS/2I1YjKfHyHn2iQVzfYUXIXWP0Tk26ENEGtmcq5I5T0dE2u1Ah+8lYQi+DCw3XLlJCCuynoJj6mzizzEXy05NWCC1BqJz9SGZ0KiDUvxDsp6CY+tt7Zl0XMvtQKYTGFiptP4pZnA0INRQKqq4C9pNdrI4QACYp9gNAfZZgP73MfAMAALAoYD8AWBi+7wlAc+rZD9ozAABwWEi0rHfvBwAAAJDg3g8AAIA2wH4AAAA0APYDAACgAbAfAAAADYD9AAAAaADsBwAAQANgPwAAABoA+wEAANAA2A8AAIAGwH4AAAA0APYDAACgAbAfAAAADYD9AAAAaADsBwAAQANgPwAAABoA+wEAANAA2A8AAIAGwH4AAAA0APYDAACgAbAfAAAADYD9AAAAaADsBwAAQANgPwAAABoA+wEAANAA2A8AAIAGwH4AAAA0APYDAACgAbAfAAAADYD9AAAAaADsBwAAQANOti4AAL2ylvbzgzylAGBUYD9gqSS6S/r+4U9g2cB+wAIo7TRxWEsFTwKLAfYDhqNPs2FiFh6GBAYF9gOGYNaWQ6MfGqwIDATsB8yTgf2GYHLUcCMwZ2A/YFYs03VcqLMBHwIzBPYDugeW4wUDdGCGwH5Ar8B14kBKBGYC7Ad0BlwnF/Ah0DewH9AHcJ1ywIdAl8B+QFPgOjWBD4GegP2AFsB12gIfAh1Qz372bu9U0wJAZ/3WRvRv97ZQb0Eb1m/G19tZUOmFC/AeAAAIYviwiff9AAAAaECDez/DZ5TgkPI3eOTImGtsLe+4WcoI3izBbaFiqLTGGgyHT3oUPU492Lqy6frq1v1tCM1AKJ/xbL3rFnp/e/3Wxt7Wzt7WTg/eQBd1fkJrpNCQ9baW0PrNDekxe7d3ltwdX3vlxsUKMrqfu043ccEmJFYUCNUQSouDROAzhVw5kMp+skw9IHYSVNroknQqNF7VrSV09epv5R+TkMiJlgOwd3unF/tR12zzzC6xn+0vz6u/42pJA6GzpNDTbEKXz+4Rmz14up4ipDeqAKHwIKgHPr6QbMkTh6hgP3GlrXNa4hwoRiit3tYUYjbGDEK88HLr/raMjXpUhP3kV1J/T04o0w909IvHL0MDIbKurwhF1Xum8ejEteQkoZAgqGJfhNBxX/LIJ0rbT0ppq52WekK9V91dwbufldgYI8LLYefpKDAux34az3yLuGZyY7k9P89tIMT2njUhLp/dlc0jQojfgOXGcvt6QuxhnIjYpwvdu3eD/6t0ZGmVOhO1cehpmYFQYI2qKHTYuARvNoxquaFCKlwwURvLqrucGQeKlvajru6lkGum4BtDnPckCYV4j4LvQHGWoAlxHSiPECMCxnnPROiwGZd/UFRF6ojfBhnDzITYNaqi0LQlZncg5T2MHRtCq79amgO1f+7n0pnd6HlSQalJXP2IEYryHklQDhTXhvXf0kKJ3rMiREbARO/Rf1vBgVIitYRpDBmFaOoJJXhPlJC9JQY5EEeI3+QtQmd2hZa7L8qBmtmPvGwp3iPxGkNK3yRGKMF7zL0RX6W0YaaQJJeQl1xC8iZNIQfij2XReA82rxCxt3TvWREqX2/ZQlRL5DtQxibvFFp1oHT2bu+Y/1wbuH7O2WeiWbaxH+U99GYn3rhz4o076UJe72EJkRWWWRFPvH7nxOt36J3RzYbZhp97/XfPvf47eht6J9mFXBGQGf6ChEo/BsQpLXMntM1UE/ISIMS+ZVJYyGMxsiXSeB2Io8YJYjJGpU80cFkCsWfTmaybufaQ4kCNHzt1XTL9gqm/v/vounXjzTO721+e37qyGTFdkiu0JoQQm2d3t5/GCml1Xf39/cf2I7p8du/B0/UIoUnTVf/9/uP3CKEgibkIySdSIxS9EJagl9ZbVAKvJc9PyNebKSO0Zk52e87WEr9ztESv0EqPc1UtKIipfaonUhMpMWVOL1uWcra892P1HiIRicuEXKlPgBBvfNCV+qiMx+Q5++cePVcbJrqNdI/S1bnLL2R0wOnwl1EoC/RuXUUi8ra4kagehFw/6U9opTU5WhwrEwpSyxvEmNBr+WTHOlM8iAbZD3PkzcqJN+5Yuw/SY8699KL+4fvvvCxE5LDssdCqF0iPOffSqRWhn/4wWui51++s5kCHerJ1nTu3IvSHd14WIjhSqw2sfcnaQqunjtkdThSaiMZx7qVTKaV1cfns3uP/+JefffD55MPOhVwn/1Do510JHWYlLu+RnHj9jjUHkk3+0c9fffeP/zA/t7DmMTMiiMlRHOK3BCneE732T2IO1Cz7caU+ddS5QslrlwX2qvAWtmGJtg0I5RBitSx+a33/pz9M2Um5QBfqIrnypDgTaj/xOhTiyr3/zsuVhNyVL4KjTpmlhfwh6xFVixdLI++JJS46hBKEKnVtm5B+GyZ6DykGNj/7GZTGeQ/T55jBgtismlB28nYFAMhO9ABa9pIwgf2MANIaE7gFiADD3zWB/YxAxPzUVkKTG8WJQsRmTCEAJozhQEHPh8oEqP6CC/OzH3rifE4h96MAkzkwLpj1uFoM7UFovhCnKO/xjic0O8ZwoP7py34SreVddgyt5mEASGaUoWYXSvS5ikLcsEB0QDlPsHYbfyISoJmtenDr/nb03HbXZZNvztWtN3IAACAASURBVNh/8qn5Ydxqb646JN8FMhV6+q/CeA5AdqC+//g6PeXG1Srko/v7+/+z+uG/CscjFN9//B59B8gj9GRkof0nz4j9MNl/8iyltC6yn5ZFCZnLguQS0lcw2H563hSytnrJdx9fj36O9db97atX4366QugzoYlP8MTNX2iW/eivE9Uh+gWhXQZZY2KEAlfgOBTS3luqJ+9Elyq0oyqFXKvXEHsLFnp/NKEKRJRWHnjoa0khJNx1Jk7o+4+vm+1UtmK9XfNxxZDvPrpO96HnReLtosZrvllRl4e5UJK8bBHrsFmESOORFdErZA4cq5r93PFqb1T0PGzD4UekdstcNSsuWKjd6n3JuQtxuPX+9ta7mw+errue4Z+UNtojIRQvdH9760qokPMlqMRNICm0/fS8a/kDGUxWlpXjvGy1HaEJUPoaP23s5/DKfXmeHhlLHyHlCoUvOGgXenqeXq86vc/ubV3ZhHzxIotKTaGckPemv//7e5bNjNCT7pTM0zKsUHj/zCFkWZn0SCiya6tYiS1Onfg+tA5hHlke7tH3n2WaXF9TDyLIctlYQskVkTmhJr1pMSmaKIwqdDha+EX4yM+a8Y8jFDXEFMSAQuQYtQPL9XjgG3YzR93jSB92o93F/DZuXbgIaZq1V25cjP4xH73oqrjpL4JTl40O1h4hhimoGsYRcidAfiWm96S/uYsZqdPfRdZQSL1wIeX1P9adHJb2Bwml/aKj85/lbbO1hRgtMVBomphwUh8lFPDSOSMBmvShrdFySFpmP/TUAC9M7/EI5fMecdztsh4R13s4RPXvooTSeqwdCmUkJgfSfsjP0hJPi1dIbTAbIV5LDBRaaaHMYTe1QUAOtBoJqo3f9Mbe7Z3Gg2/KGEJNiO89qUJs79E3e/D0/KoJBXhPoNB6aEs+FuKFP2UM1YSCVCKE0jkOo4EO9OCL9SDviY7X6noNKBTSQAKF1oTWeEOFQkfhVDhapveItoNviuMEljEQp/tH6GWbCpGmoFemaKHLZ3e93hNqPA4h/yBDSpgOGjbpRKjc4JviuLSMgTjlVUmn5Qd73glU0edff59e0QsdLxTbEmsKcQbiiH7t8INv8vVCe7d3urAfycr1M3xokrWk9BfoijLpwkQLTR6tNav+pFNWTyg2RZi867N/oQr2I8zSGj40yZCynRbDh3o7/3mFcjX5mkJ0eHEJjW0/6tV2fdmPxLsgQq5EdTAhzkISWcamOO+x7kSojv1I+jktuUYgOxKaVUtMFxrYfvTXqvZoPzrqKpYeG60jpFfKUkJrQqy256K3QzoXqmk/Op2fllkITVVyP7DZc2wZ1X4mr/RuYz8AVCaL/QBQn2HsZ+I9ooeZbwAAAMbGlX7AfgAAAJTFmsZVWvNtmBSyR/BurJKkDNyBIvS9cCeYQNx5QfYzc+A9YGmgzs8NV/oB+5kzaIdgmaDmDwHsZ7agBYIlg/o/B8wJbzqwn3mCtgcAWsHMgf3MELQ6ACRoC3MG9jM30N4A0EGLmC2wHwAAAA2A/cwKdPQAMEG76BLvWmuwn/mANgaAC7SOGQL7mQloXQDQoI3MDdjPHEC7AoADWkpPeNdag/10D1oUAHzQXuYD7Kdv0JYACAWtZibAfjoGrQiAONB25gDsBwAAQANgP72C7hsAKaAFdcD6zQ2872duoOUAkA7aUd/AfvoDbQaAXKA1dYArAYL9AAAAKAXe9zMf0FkDIC9oUx1gTYBgPz2BdgJACdCymiITINOBYD/dgBYCQDnQvppidSDYDwAAgOKYN4FgP32ArhkApUEra418DEjlQGuv3LjYtkAArQKAehy0LsDiUfaD7Kc18B4AaoIW1xo1Cgf7AQAAUBXpQBh8awo6YgA0AUNwHYDspx3wHgBagdbXmr3bO7AfAAAADYD9NAKdLwDagjbYGthPC1DvAegBtMSmwH4AAAA0APZTHXS4AOgHtMd2wH4AAAA0APZTF3S1AOgNtMpGwH4qgloOQJ+gbbYA9gMAAKABsJ9aoHsFQM+ghVYH9gMAAKABsJ8qoGMFQP+gndYF9gMAAKABsJ/yoEsFwFxAa60I7AcAAEADYD+FQWcKgHmBNlsL2A8AAIAGwH5Kgm4UAHMELbcKsJ9ioAYDMF/QfssD+wEAANAA2A8AAIAGwH7KgMwdgLmDVlwY2A8AAIAGnKwptnd7p6YcADrrtzZaFwHMjTUhDlqXYVzq2Q+8B8yUvS1UXdCG9Zsj95kw+AYABbwHNGTsXnvVwTcF39K3rmzKP27d3y5WnKxCvtuVW+8eCb1f+IgWIyQdwjq2BvMAoFvWXrlxsY6SbuO0/SgncJHLivILObxHxU2nUKbAvVghlwPp9hN37yd6D1vvbpb2YwjVE0q7A7R1ZXMSTFQ8tAZDfrScL3u3d/qyn4kfbJ7dnWyw/fS8+jvFhCZCl8/uTTZ48HQ9Rsiwn0n09AglNLmp0A9WhB58sa7/N6PQj1aF/tpOyOpANe2nN0uGUE6hQPvhdG0JB4L95BdTf5snVL9am2eOXMc9kKV8KNSEdCHTDCaEmdBqafWKHiYU2NJWhH7gE/oij9CPfEJ/bSF09epvxapJ1LGfbi15dkLVuk2TJqk3QKcQz4Horu1U6MiEJiER9pNfTP09OaHqgh0bj/DfRIlwICXk9QMdVWM8QlqBVV2PFGI3sxUh9lNyqlVHCHn9QOev1YUmDlTafvq35FkIVes2JXUEffYT17W1OtBC7Kf9zDe79zDYPLsrR+e8ee5EKMgS5PbyJ1yhKO9ZEfINEViEQp7QVq09VCjIEvTtqwndu3dD1JpxoJeWU2B9M+YJGV7o8g/2vN4z2SxS6KhxeYS0zcKErkQKbV3ZPKy0Q09ys9LYfqK9R8F0oGjvUXgc6Cj6R3vPVMhX9aO95/BXR+2ZLxRqCepXP6olJP+o40AzsuRuhTjGoxPdbYroCFqE3K1MhgWm8ViF8jrQ3u0d1z/rxsR+spTHRfvsR1i9JzyeclKTaEtoI8RoY9WE4iwhghQh9Vs5SlbOgXI5ZTVL7lAo1HsOf8VOTeQGEZYQLHTkPREq5g8r50BSjrClouVpaT/yskXnPQpzgpxVKD1SO/ewmvoUFDpiRSh2YcQ1RqyRQune402AsgtVWGIni1NCKIw1VvsKGjdzYREyp7byBuQ5QjIBEvki/vrNDfNflj3noovsh+DE63fUP2KzoJtAVp57/XfqH7FZ0E2gDEIJrei5f/ud+kds5jUGb6RY+7ffqX/lhHQVplAhB5qvJQ8jxGwduTqC1YSUAy2ENqseCEbqY/qN/OS7j69HCF0+u+tKE0wbkJ98//F7YUK+1KeIkO2YTL+Rn3z/92MhTsrkbXWmDaz92+8O/h52ODWFcuF1Sv2/RDl/9IO9v36xbn34kROpQ4WsX+UVIpgIWRfznFTd761CvmVAOYMQemMMbYDHQoxhlVAhmaAsZBpCl9nPmsV7FK6vfENwXO/xfjWtbbyxrwxCPIhcx/VVRG+USEG82UmfQkxop7QWqUQh44QikulQIeY0ExNrmk5U5ujhAXPggR6KmAqxx7ojhXKM5mWk6Hhds+xHuFMfepyN2uHZ3cc/f/VnH/xD//DyoS1Zag09/EVw+eze45//y88++HzyoWv7JKH/cAsZx0SPsynMc/GjH+zt/PxffvrHzycf8ovKQe6wppD+4bmXTiXu9txLp4iiEkFZfpUrXaOFMiaF2YUmZ0+lMXSfyZID+RIgV2Oke4ERaVA1oUKs39xomGm1sR/C4U+84feeE6/fYQ7B/eGdH7q+4lgCv6L84Z2X2wsxvMfemG388adOIU53nh+eqgn1idWS//jTl4WItGTXCZFCEw+ehZCr0srQPxH6wzsJQo5mGCrkbfJuod0H2rpiDanjSV0OvoGS4A3C0aQ7ZXoZEoWIQ2gitMbuNrm+Ijpk053wOoLpQonkGn/jPPSjb2x+WHqm3FD24w6sI4bcEY8JAC4zr/8Onyt7VE08hqDlvR8AAADZ8b7Ewcre7Z3K8+6Gyn4WxMy7fgBkAK0gE9bVTitkRW3sh1g6OvSxHoW1Kv7sg3+4Kmm1ySf1hOZ8Bx4AsDRaZj/bXxpzPHjdmWiLCoXvHJO50WWFEjp9/Elik7nRoTvpQYjYcxOqzdAbT8jZtcqdAPXQK831NucIKk/C7nHwjXYX4tsHT8+/9Z+f7u8/0/89eLo+ecWTgq5qrm/lDt/6r//Zf/JM/1dP6Iv1B44n2OkEyBUs/vrF+l+/WN/4z6mQ/DxoV10J7T95pn84EfX+M3eb6JQEkz1XEyKYixC/55doLRWEXAGkApOhtjrzEXq0H+H2GNp7IoRcFSV7J6iekKMxZ++ounY4X6EJpgkVdcpqlqz/2/jP/+lfyFWlZT9sIvTWf/1PoY6gVSh0V5xvU+DMse6HZjPfbt3f3rqyuf3ledfaB0EjbEQKLoUePF13PZ+cqyrcen97692KQl+su5asN5srcX5kRLC+QVIK/fWLddej/kEG0INQaQ7+/p71UZgSlrwQoex3NL//+D3rpOe45km394xCoaQ4ULWp2D1NvE4YxpWpT4UxU9nfuXV/u/Ssm0OhFjEUEIxnyZWFiN8e/P093/usj3mQ0MkIMoCUlhgjlBbE6JnTtK/UX4Cn5eCbPNGWCQiBbPu8R36VPq7q9R5ZR7MJuWv8oZBjKGNCXOqjC7nGTPj0IwTaQl/iLJ26XM2wH6FQrG/64eQ0ld8J1PjeTy4HYgqlVBTmb9NrZJhQQrxmxvp0Y6gsVNp7xrPk2Ql5U596HcHsXdsl0X7qQboDbZ7d5Vy2lIqifsUSSqj6x0LsGBrnQCoE8IXiokZ9oWpUsORcQsyTPwuhoGG39I5gPaGFeY/owX6EcqCn57ejZq+9u/qGBa8QMTHGytR7GAMEyoEihXg1/tb72yoHcpmQtbChlqCEQqNGhNDkh4WEEoku5+RX3tLmEvLSjxDdvPidLSWU2BH0sHZsGylCC/QeIcTaKzcu1lHSb2pZhxf1dV5974475N0//kPV1v19y4MaVnQh+pVu9qSHPT6t32jlCkVFzxUh45UqOolhWgl539DTidDellbrot69TeyBX0idiDOzNCHXBIQHCUJBL28Mm25wIIQWVfhCxJiKN1oOwN7tnY7sR0IvNq7b0rt//IcQIsJ+OEI608oReHuU/0LGxJ57HaGg90s2FypqP5LZWfIshCYOFGE8ViGvN8R0BLWy8k2IHs+H/eQXU397T6jLGzbP7h66jkIzg1AHIoQEkQ5Hzc4hgmne8SII6VSwH+Eo4Y9+sGcdX8pryTJwlxNyOZCuOK8jUkiHsI6YhQmtWqUZUighR5CB/eQXU3+nnNDpK5PT7CcGrLM7H+rYj2IWlhzE5IXlir9+sT7TI8ovZBsrpAdXvHd6YD/5xeoIAWClgv2Mx7S3d4R1Tbzlwn9clsdC7KenVQ8A6BvdigAAidSbeD2qh4NZsMDEBYDOqTf4lpfDMQHHbZiCN4Fw42d5IOkBrRi41z7jwbf9J89co9IFgfcskiVnTrj3wyX37Z8l0MWqB9k5d666MwEAAAhhxvaD/hcAAMyXGdsPDRIgABJpML4NlsS87YeeYgAHAgCAbpm3/VQF8w4AAC4QH8KZvf0gAQIAgDkye/sR1ZZ6AwAAkI8R7IcGCRAAAHTIIPaDBAgAAObFIPZDgwQIAAB6Yxz7QQIEAAAzYhz7oUlNgDCrEgBAgygRyFD2g0nYAAAwF4ayH4EhOAAAmAmj2Q8NEiAAAOiEAe0HCRAAAPTPgPZDgwQIAAB6YEz7QQIEQDnwqi2QhTHthwYJEAAANOdk6wKUYn//GWEz586dQoYEgtjb2lF/r9/aaFgSAMZgWPsRPgcKgPE0mYxN3Ualzos3QQ/0VrwHkv14vUWqgLUMJa5phdpCnM8mtZRzfVkFWxPiIEN5FsISB98kGYfgVN3tIUiZ9FkqF5zS7m3tEJvN63gTyX6wFc5ebxeIWZ7eij0Ag9sPRtjmRVALrxkO5pI4zoKuTma3VW4JjDz45gV3gLqFiFCtQkDzoKkXYO5x0DyZzY+Ivr7Nizckg2c/onoChGqahd7uDQAAsjO+/dCk3wGC32RkpA4+AIBmEYNvmIQ9GEiAABiARdhPn5jTW1Nm1qb/tv5sZivrtzb0mYS55OLOjysDiyhVV8OJ1eZwA0CwlMG3Qq8CsjZj5tRh1x8pe4v4bejGFcbE8g7BEbO0q43v0UI1hxl7OBsASJZiP6LwHISUniP9FItIC165Ykrl2JTFgbwntg4pHYjKJenhdIHlgMG3Q9LvAOmjRik7UX+Hhq2JBY4USrKMwlnPLb3n9FM6+Qkx4TjjSCOHgWsLmAvLsp9sy/D4iAslk58E+Zkpl8UO+QRpcU5O3vL3cGPDWoZqlwlr1oHeWNDgm5dQZzKjRkqrLhERuo0yzICbZQhu/daG1Zvj9hYNR7GOD7lcsNvaAkZlcfZTYg5C3nGhvIwUUyKi80iHXwGcLlCTxdlPh9D3HhbeLU25RbHk8zYGnUweAYVY1r0fSZanUDmTiBYV/vj3MEJPS+WbWIUY4BAqE3rGvLM8QG8s0X5E7jkIiCySokOIrWaIgVlgtkHUk/7B4JsFvI27Q5awHBzCJVgUC81+RFoCNGr4A+WAtQAwAdmPnSwJUA8ulaUMnawKM0mAeji9g4FTCmqy3OxH5JiD4OrSdtKMsyyYlqUkueTmOw2hn1sRrpJMTuy5l+Y0BD3firFkkP0E02ctt956TdxJwyPtan3oXLStOfTNsz5rdRDqKQU8rjAXFp39iPKvAird551MCWu4kyz0UxK6DPw5vpNeOX1Qce97jltNp+3pJdRbFayH+rY0kP3Er4TNX6qyKLRWlhUZ+uxLdlgkK/1YgrckdU5pV4E+6JDnUuXmAuzHQ+IcBFd9VZ9nqdC0CnN9T9dSYEytXDCtLt37E1VCt8m1q0SIkvBrS3oZSksEkbHCgCDWXrlxsXUZuoCwmf0neBU3WBzE1AO0CIqD1gWYCXu3d5D9+JnXFCAAAJgFsJ9Dir4LFQAAwATYDwskQAAAkBfYzzGeVwHBgQAAIB+wnxUwBAcAiAfzDkKA/QSABAgAAHIB+5mCBAgAACoA+wkDCRAAAGQB9mMBCRAAAJQG9hMMEiCwZLDkAcgF7McOJmEDAEBRYD9OMAQHAADlgP1EggQIAABSWPrr5mjol9GNgXr5CtaTBwMT91K+MPDMaSDIfuIZIAHiv4gTAADyUjX72bvtDHDrNzvtei8hAVoyzORPblY6QbT2APKK0sc7aioc3bUa9YR0Qr3sh/Ce+TJAAgS8IC+cOzCPPqlkP7T3dJv6SAaehK03SzRRMDB5X28PstBg6kHnZrM00Br7Qb8WSLmyg6reGzWyHz31man3DJwAAQBAE4rbzwDeI8FTqAAAJ5h1HU7Zwbd075F7oH/r3Wbv9o78VpVHbWx+Qki89quf6B9+8us/q79f+9VP+GthucZV+IMDxMgMcyfmHoKGJjgzweht9G/NLevMNMtO+nUpVJKM6ntbO969mdtElyexsWSfTBhxIOlBzPrt5IZ6UIB1/ZZT1Ix0/dipOkfKP+iNrdvInUxOt9xY/5Aj8cmv/ywdSDce9ZVg1kV3hOLHdO8GETvhhBVmGbzbqG/pB4/mZULeQ65zIK6LK3KcSVnP6WORWmqbQuWpXzfiDiRoxi8dhcxutCnEiZPe33KCYRYKDr51PuxmXgZORfnk1382ved4DzluF3v9KXEngGZva0f+C/0hJyeILRQXputHQNf8+uXJtYcsQqwOWaYnT+j9lPu2BDWyn668Z5L0WD/ho4bjVMv0dnLpwSgm3r5n0M978Kr1WxvmsMakH90/WS5uNK5xoXT1ifHEZclx5Uk8pdknE7p2WCdjIAbcvEGMyAdaPZS5rEV3zPoRXWNe+9VPJreCEskVYeV+5hKvhRDrtzbM0s6o/EHU8aHJKbWeYT5x3kOXJ7owJjU7T5OSJ57Y1MKQN4qCftgqQ+jafjgnhTl3wLpB3Elfv7VhGk9eK/JCjw7NPXbPvfwmPRxRXBkm3hNRz3s49iz0cyDrNzeyG0YTB+rafnTqpIf+jsOtDdHuhY/moFncXQqwTIIC6ORmT1y671LsJ5Qz6afALp9Qn0cbSX0HajDzzRriU6Zl98a5l065/CndKsx7JGJWd0cGZqR+QPbbJKHfZizGSNBxsqu77BxqZz+hhsE8ofXO+9HDZREJUK55a9YRZ2RCbRn4zGe/zclk4FMKJLXtJ8InzEdErf/tigrL8Lhue8KE6jP2CY+bcp3I2KcUSBovOZrFQlqlnPtPnhE2MxmC47xsMeVZk8lv6wzHYdBvQtuJ10VRz1xXZuBT2hv1O/SzmXog6TnjYVIoXredA7pkOG8km+OlMcfc6udABHM8pT3TJLTOw37M/IY/37oo9B2g+ithd9Im0TPtE/51UcbTswPVJLpKc1bBqRz64xZ8KUHXa75ZaZ8AHQixdvw/egiOD38htU48xsqSjcc1FFn/nFhLEl2MyTqHPYy4Nqlmec+qaBrK2kdRIUT99/1EM7s5hRLTmYiFC5l0G+K7LRgHtcAP8YmVxCViC2HeC0zcoZ4Gtb3QDdUzStc3gA5DaKXsp9C57uSEchIg/Xmd5istun7OmR8hch9LW+hjCT26EteFv8L/5Jmw7JfmtV/9RM+B6MLkou0p5ZcnaIkW87d13IgWqlYMRcHsh+8NzR/uCd5zyKullDOlt1X+HkrHhfQnCmdH6ZkFnTzpSVNt8pu3qJXrmOfEJjwNWrkPbV2wp8QqPhzKDr55jyr0sPWNS/wwuqIw5yAQa5DoU9dSIl21KXDWdUKVOjMO0ouNNjwQ7yf8DZinhXOwzG2sm+kFSFkLx1tLcy166z1X1VbXJYSYEYwZ9KsZlZRW/3LtNpS1V25cbKUdQUfvEFqbfkCPv7VaJg6ACIjKjJp8zHAv2K45o3jv9s48Jl7Pgt4mYQMAQM/MyX46Sn2EveODjiEAS2Hc1KcaM3juxzwp7b0nCmIlbAAAqEPE++gK0bX9dPJsVBC5nkIFAIC8cCJqzc79nAbfuiM8+4YzATACw428SSoPLHWd/chz0dctHwZIgAAAHWJGVP3z+nRtP5JZWA4f3AECADSkn4iKwbc0HDk4JmGDIUHPSYhhR97qA/spBRoqAAAQwH7agAQIALBwYD/JuDNxJEAAjAZG3vIB+2kGEiAAwJKZn/3M61lUJEAgmr2tnSZvSq2sCArRf6icn/0I8rTKF6fXfn16bD5eNAGqEEfMV2ryReXG6e9+zfLDQrtVx0gcbEqp6HMYoch8wWsuOrxenv24Wzo/7OjblA5T5v5rx0aSHp/72bu9E/dKHnlarRsQX3kLE/dDBf0U6mIfA5JvTxm+r62/JCb0YIk32dAvG41+Fan6CUaGQ6n/qlAv/Tzf42KW2U+PkAnQMg0GmFSz2yFfONsYTDrITVL2o7+baJKyTDoCxFf6t+or11uPiLch6b91/cq7W1dRQ9/CZHY/P/n1n/UXFX/y6z+rv1/71U90f9rb2lm/taHiVJYX0ZvfTnrlumKQqPxtqCIf80xOjtHcLXHqXL/ln4HoxMK6W0KRcxTEyXGVM05RrNZY/oFwTizzesXVWLp+hhK3ABjzV+ZAiwxl3uhk3TMdsoh9ev/LjKL0IJYk3n70kzU5EZPzKEcbXa+7Nk8EUW4iw1VfWV9qyxyXmxSV/mE0siUrN/rk13+2NmbZwPjtR484pg/p+zF3S//WxSQECCNG6PuMCASuGGpGIpfo5Lf6GSC0XKWN8B76ZBJXhLgW6rS7zozrVNPHqH+ud5WEVmNlP8l6j8S1W++3xDlPrLFxuSZxlc2OMh8ZTFw/dMUZIsxOoqgZY+lCWiOel0l5JidE3ydnb0mDb3qYdn1l/VYvXw8DlMSBBKDl5kTf0IoZxOPeY6+2Dy1AhNYEV6CM3jkRBehuL+d2iz24kIW0lsecXODyY3VN+eUpweSKMAO0dCOVABHnPPTEMmuIVTHiesVjjLwxI6wel9dvbkTcmS4RIVMinrec/H2WmnpAXJuJQ/ZgP4XuGer9NflH2zu6RKwxe8FBu40zS3qfrh2qpFD9d/ItvU8XcbGMc8iuLLbJtIto0dd+9ZNPfv1nzpjehOhakXJ+MnuP3GehKMH2HvoWRh3ovCKUPFMPIl6fpzoCvU0XScKWADFbUWVnytUyQ8frsuxW9nyt23g9Rv9trvIwf66j4mNceXIRpPvar34ii1rBOBPPT+ZqeXBsEq4MJpG40bxy5alDnqkHVlwnxXpzhdh/lpOrC5ljndwJBbHlUY3HNQlbDm6kT8LWR9InBch7D9Yk+845t768oZC4I12iPN6fZyxPNBHln0ycybJPCfN81r9ehfBOvKrjJSoGesMvk7h55/H2M5kCYU57CJr8NsE7uSLuUll1zRNn3sELuFN1IMSapmhrNnIcYzKVKBdEQyWmCaTg8oB1cm6Sd46W+nCyQeiNNOZXRMnN8qRH28kQIlHUjONIVlHriTX9hqiu5ukKKq11HNV7fjhEONDktAtxOKRBTxwQ7tDk/eFxaUMiuHdjb6jkTGALQp+oxdzJ2is3LsaJTSCmOwv3ERIZkvXbuImP3t169xzmdqv2Y1Z9mQBN5r8pciVArm/V33V6hdEzCLz7NH+lJ3+EYj/dYdeBCFGqryDI065/ZdZMYuoBvVtOkYKuV7mcxlKFtBH16AAibBEyQ2nTykN8lVhUTsDcu72Tx376mUTQC2ue74k7PXhGFTTHVT8XVznxqGkUTPtJfe5HAe/JxWKX4QEAzJcIR0i69xP92/E58CRA9EJwAID2IPUJIcIRsOZbj8CZAADDA/tpBj3CBgcCAIwN7KcYyNwBmC9ov+WB/ZTEV4ORAIEOEsRPDAAAIABJREFUQcWD99QB9tMYTHIDACwT2E9h0rpR6IcCUBukPrWA/bQHCRAAYIHAfsqDBAiAuYDUpyKwny7AHAQAwNKA/VQBXSoA+gfttC6wn15AAgQAWBSwn1owOlaYgwBAM5D6VAf2MxuQAAEARgL2UxEkQAD0CVKfFsB+6oJJ2AD0BrynEbCf7kACBABYArCf6iABAqAfkPq0A/bTI5iEDQAYHthPCzAHAYAeQOrTFNhPIzAEB+bGaF0ieE9rYD/9MlprBwAADdhPO5AAAdAKpD4dcLJ1AZbNgRBr1Pf7T57BZkA6e1s7rYsAFsr6zQ3XV8h+ZgycCXCA94CG7N12Vj/YT2t8gwCYhA0AGBIMvnUAhuBALdZvOUdCFLKy/eGnL8v//uyPn8s/Cs2F2Xp3U/5x6/3tEvu3CN0vLHRlEUIqrbEOrxFJj2LtlRsXcxQPJEM6EG0/mCMHCPTBN9p+ZIC+/IM967cPvljP5RDKCVzUE8oUuFWAXpQQ4UC6/bj8CfbTDaT9CNKBYD+AgGM/epgm7Ef+keINK0JnLUIPnq6rv+sJJYRsPUxfPrtnjqc/eHo+u9Dmmd3Jt9tfntf/W03o6tXfyj8mHgP7mRtIgMaFuP9vWsLe1o7LJ4ivONLmbznGo1AOJMK9wesHK0IJJhQvFBiyDeMRxL3cFBNSQqYZmOj2UEfI6kAc+8HUg54gpyHAYBaCdAurXRFfxaEi9eUf7Hm9Z7KZd1zLLnR2z2sJk83qCfmGm1aEroQJbZ7d3Ty7myLEsQS5mdqytNClM7tCiHv3bshPOPd7dGA/nRH7NBzmJsyC9Vsb5r9WhdG9J+iHoQ6kW0KYUKADZRDixWu5mWE8ztarvgh1ILnZ5tldpiUoQh3oUOhMgJA8qBQHgv3MCUzCBrmI9h71K/lDrzFEW8LkV0whZi5CCfnitfKe1Y/93iPhO5DynrheKd+BlPfEyCQ4EOynP7AcCKhFnPdM4KQmcZaQ/tvsQkHDWS6UAxUXYjhKFqE4B4L9dInbgZAAgXToCdZcDvzxWmUkSUJHeyB8LrOQLyJHpz4K6UBeoejU53gPZ3hCgamPWaiJA3HAY6e94n4WFU+hjs36rQ16ckGW20W09zz3b7/T//v9399b+VqLPZfP7j14ur717qY5P41jCc+9vir08XuuLWsLXdk0p41xht2ee/2O/t/vPr7uEto8u7v99Lz1q+NhNzcn3lgV+sgpRMAZdgsVWr+5wcx+YD+jce6lU5gjNyS5JrzRY2UT49E/PDShTIPDEz/QPyS8oW+hO+aHJ16/I0gTsvrcMbazPfED/UOrN2ye2d3+8rxHyAYh9K1N6NKZ3Ydfnt+6ssl0IAy+dUzsEBzolr2tnck/emPzw6Iz5azes/JtSe9hfttWyJX6WL1HcYL81oor9bFaAvNbu5Aj9aF3dTJcyLKT9F2AgviWg7OCBGhGWB8j9Y6/JZJlxsHx3s7uCSEe/8e//OyDz9WHf3jnZSEyTxmoLfRzr1CqG0uPmYylv//THwqxm2P3mtAZKfTiitA7Lx8K5UMmQMyNkf10j6MKYg7Coqgw8kanPofb5MhLODuZm5A/FSASoPd/+kOmECe5IbZ5/52XMwoRCRBzNh2ynzkQlQOBrrAOmnlNZZIbNXxGFRgUfkJiAQ9gIPuZCba6iARoYAo5DXNxHeAD3pMBZD/zwZYDYRL28CQOu6F6gG5B9jMrAvtECD2zZpIA8fOhcy+dUv8KlAsg9ckD7Gf2YJJb53DmWKeTbjnTZ0uLkfdpm+pCFnP43v1Yj4J49Ccvcc+fRmB99CcI2M/cQAI0W4Ie+plgTX0iLEe9OXvKAatqEQFdn6Ns/jeU8YQI3v3jP5hbJlrLu+xDiBaSs66Zz7fCfmaIESYwB6FnUiYRmL/NP7CmGQ+dLri+ffB0/cHT9f0nzyb/5OdBuwoW2n+2v19MaP/Z5N+Dp+sPHMvk0MmN69vtp+e3n56fnLe3/+vT7S/PbzuenqGNwfWt3OH+k6/1fylC6amPwNSDuYKp2LMi0YFK3cWxpTsyIptPw2QfyPr+4/esz9wECPFGAjII8fju4+vWh3uyD7t999F163M52YfdXEJZvEcIgZdtz5lVB8LbuEcio9988us/q79f+9VPxOED/HmQaYfrfdi5FqK2CK16j2Mx0AQhx/DRkdDKYgFxcwXkeqO0UPQ7eFaEyAGxrSubXhXmAeojb3jZ9uisVgoYzNypM2ONHhabBz3NDeupLJG4xt8k5Q4Q9jNz2FUDd4D6pPIkadlHkTlEugPRqU8pIVudlz3ubELuO+dHQofxOjo006mP+oo2BpaQby5ALqGgSQcS2M/80VoAEqBZUC3Lkf+s36Ybg9d7igi54326A3m9Z3Xj+Hjt9Z6VjROMwes9XqGIYTc+sJ8h4NURJEANqWw5/I5IXLyO+FUGIV49L31EKsjGORDfe9Q2cQ7E955EoTjvEZh6MBRHMxEwB6ETao6nEegPGJlz8NQa2Pz79ipSe1MfUyhodsCKEM971FrLMYcTEkCVEP1OUh31btNIIfY0BOUiiULeU/7QLcSZegD7GYs1IWA/TenEcnRo+xGrb2Ggo3ac8YQK6YmId8zNLsQzoRWh8M67YJuQ/lLtVCHShPT0JV2IOOsPfUKwn6WyBgeqSoeWo+O1Hwn9Em6dOO8JVREhSY9FiPfKGREbpiFEC8F+FgzpQLCfdDq3HB2m/UgIe0hxnUihHHN+iWCaGKYhRAD7WTTnziEBysyMLEcnyH46YoAHahYMx36w6M6w7O8/ox0IcJip5bgovfA2AHxgPwvl3EunkAC5GMxyAOgT2M/IIAHiM7DlrN/aQNIDWmEdeZPAfpYLEqCBLWfCPG754GbPwoD9DA6dAC3QgZZjOTMD3rM8YD/jgyE4WE7vwHsWCexn6YyaAMFyZgO8Z6nAfhbBQhIgWM7MgPEsG9gPmHcCBMuZK/CexQP7WQojJUCwnNkD7wGwHyDpPwGC5QwCjAccAftZELObhA3LGQ14D9CA/SyL/ofgYDljAuMBBrAfcEyrBAiWMzjwHmAD9rM4PAmQjBRrzu9zActZBDAe4Ab2A1Y4d+7U/v4zcVDEgWA5ywLeA0hgP0uEdQcoUxoEy1kiMB7AAPYDphwmQJKoNAiWs2jgPYAH7GeheCZhTxxI+E0IlgNgPCAI2A/gYTMhWA44BMYDwoH9LJeABEhxIOo8NgTLmRPwHhAF7GfRMJ9CheUAOzAekADsBzip4DqwnLkC4wHJwH6WTv1leGA58wbGAzIB+wE1gOWMAIwHZAX2A0olQLCccYDxgALAfkBODifLlV8yDlQCxgOKAfsBQqQlQNb52ULAhGYOjAcUBvYDYrBYjglMaKbAeEAVYD+AC8tyTFQsgw91DlwH1AX2A/xEGs8EJEPdAuMBLYD9gLrAhLoCxgPaAfsBLcCIXHX2tnZaFwEslPWbG9bPn6tcDgBWODj6B0oC7wEN2bttr37IfkAfIB8qB9wddAnsB3QGfCgXcB3QN7Af0CvwoTh8ruMaiFdsXdl0fXXr/nZEiSA0sJAaWDPrlWvMTQH7Ad2jx1NYkZVMiQ4Ra/QN0gMchIYRWr+54bUZF2uv3LgY90swGMSiO3me+8kLfEgEuI4eIKzZjx5rLp/dc+3nwdN19XdcgPMJHRwJnc8otHl217XZdl6hM26hL8sKqbrwMKvQpdPOI3r41bHQ1au/FUbVomvd3u0dzHwD8+Rg9d9CKHPUKtxcPrtHeM9kA2/vOFBo5ZAun929fOQZKUKbZ3cJ75lskCR0ZpfwnskG2YX0unDpzO6lHEKXzuwS3iOEuHT6eIN7924IxmjbBGQ/4JCZZT8EgyVGOWyG6IfKcEO7jhWVCTG72KQQdZAyE+J35KUQ7TpWtuOESNexC32ZU4g4dw9DhHTj8ezXKMLDry6IoxxIHNUxZD9geRzMOTeqW/ho7wn9lVvIf5AyDWJ25CO950CIg8P4HiYU7j3qVxWELoUI6T8J8h4hxKXTn4mjHEiw0yBkP+CQcbIfJoWTJPNJz/Vbqx3AA/+sIWIw/Xi3vplswtEPTfEehcyB6P61QygswnFSk3jv0eCkJimWkFeIcxI5OZAUivOeY6HVHEgH2Q8AGmaekS/tsK8yUCatiZt3lMV71B6I/nWi96hTtenLgbJ4j2CkJlm8J4sQ8yR6c6AV70lgkgN5gf0A4MDrT45/ESvcMC3ElehEz3xtQYD3Fh83ndfA7Cqlyh6b+uhwMnKB534AKASzBUbsdjJkF+E93tTnudd/Z374/cfvWTe+fHbvwdP1rSub5vDOqpAlWj33+h2b0HVrYNs8u7v99DwhRKQ+J2xC33103brx5pnd7S9JIXeicOKNGkIHQpy0CX3rELp0ZvchKUQMu5180yb04TW70OnPHn51YevKJud5IGQ/AOSkVSKSUdfqPcTnDOwZj9V7iM+jsXqPcFhFkpBjh3mFXN4j3J9HY/UeIcTJN+9m2Hn6LgAAEmIqAee3cQlTymPnJrTHPPf676w5kMxvzNkrl8/uuYZoaI858fqd7z62dORlfnPupalQaN5z/O0bd6ypiUw7zr30ovVz167qCNEec/KNO9Yc6JJD6PiWj3GhXN5z9O1dVw7EBNkPAHmI9p5cw3RME0qcdED40x/eeXn1vz9MuUNB2Mb7P/0h8d9gIXc0f3/1iCb/Ze6EQzWh+6t7Pv5voPcQyAkInNnesB8AeiE6icllYAnDa6FCmceIXNCpT2XSh+CYZh48BBfbSUgcgoP9AJCT6AE0+ces5rCBqnQw1S0zuPcDAMjCnGcxd8+QJxf2A0ApJqkMnRjlnUFQlyFjY0cUPL9NLx0G3wDoiwgTCvqJd1nrEILXb6i3CN/slvtzMMRB2IH9AFCK9Zsb8l81Oc5mP/vgc9dXrgdLjW1YCwf97IN/6P/Vf2CdVD2Bs42TIyXX854rQoxtsuwkQsg8xa4HS0O38e/kQ4aQe+I1Z5lt2A8AvRA3AcG7MbGYbBRO15n4jf6DvF34d//4D+K/GcXeXbXqd93OXUKoRN5zZVXoyp/yH5FceJQD7v2AI2RlH+xlOXMj+g6QmfrEuY5MgFwzsL93ZCTylTz7+58an/+rcDwT+t3H14lZ0a7UR657vf9kKrQthWyPan730XVixrMrI5HLUVuEvjxfU8i6DOi3H10npla7Up+HDiH50lLrm+W+/fA68fRP4jOnAvYDpsCE0ig9fUDfv0srPd35/uP3Jg7kMp4UpMdMTChpzM0l9NF1YTx2k2XMrZWQ9JiJCWUZc1vlQHrM5PmedOOR4H0/4BBzIRNlQmO+7yc3XuOJeKkP530/+mYu4/nk139Wf7/2q58IY4UCG9yxH/ptpNHvHjWhX/mT6z0IwvcmnspC6e9BEL5X/hwKTROgmME/OfImhfC2U5DAKHOH6uCdV51lP1bOnTsl//F/4p6AkPl9RDISSedIgbkHGdCThHh7qCb0MFko6JXbSUKa93DA4BvwAQdik2u1N/7n+aYVRF5mOvXJDiF06/520FullyZEl2HryubDr85rCVCNZo/sBxyy/wQjbHMiNN2ZsL//7K3//J8HT9cfPF0v7T3pCRDnTdvHQgnpAucF2PWFUhIgZupzKPSVFEoddmOCez/gGMvtHyEEnKkn4ixHv/czSaFU//pyyO2ZB0dewg83SijoPtB2ilDIXRPlJT0LBd0HepgidPqzAKGjmdYTIdz7AWAQEtMdFypkPOBlJwdR3qNvzE+DIrxnRYidNERYQhMhfhoU4T0rQuxnd1zewwHZDzgG2U+fJLrO/v4zuh8q0W8zWDOhiT9F3+/RhayZ0HYJIVveoNtGyu2rOkKT+0DWTOhhCSFbJqT7k0vIm/3AfsAxsJ+uSM911Ix5jv1IOPe6s0w0qCPEvHU/mFAnFwj2AwKA/XRCeroz+YRvP4pJ9Ck3tw1CowrBfkAAsJ+2ZEx3Jsz2VQ5gEKz2g+d+AGhPOeMBoFtgPwC0JPs4GwBzAfYDQAMqpzty6ANDcKA+xL1G2A8AVWk4zlbtxXcAcIi3H/SkZgTiTg9gnA0AHWQ/AJQF0woAsAL7AaAUSHcAIMhgPxjYaYj1fWWTb0FlkO4AwKFG9kMs3pD3Md0FCq3f3Ni7vbN3ewedgB6A8QDAp6z9eFcNUhskRu0lC8GBegDjbACEUsp+9OhJvzpCrpwqt48I2StC5Msw5FqwWYTo13tsVxdSDiQwFloXpDsARFPkfT/6O4u8ry3Stwl9s6z+Fibvi5j0baKFNs/sel8tpW9TR2jryua9ezeChEAi6W/f2d9/Bu8BSya//cgAyjEenQgHOhRiGM+KULgxyC05fqAT4UCJQtKBMN2gNGHGczD9J10HxgNAZvtR3hPx2yAHOhLajXgreZADKZOLePt5kAMp7wnXgQPV4NxLp+Q/01Gofxr7T55h7XAAFPEvXFAxTt1sSPEeBefVrcfeo1gLF2K8jFZ5T4IO6/W6Kd4zEbp1f1vdBDKvkQnhVa/98ifyj8SgSduhtWzETIr6kyxc76FgAssBwGTv9k6Rez8pRLpXQg5UWCfVVEKF5EwEwcuB6G0++c2f00vlLYa5AfGTyondYboTC9IdAAiy2U+W1Ecid+IasLKkPpJYB/IIGeYR7UC0UBaXmjiQF+9m6Q60fnNjdpPxjsfZYoHxAOCl3qI7J9+8O/nk2w+vZdY4EGJNnHzjzlToo+tx+3NlSAfCoiKE+C5WiPCeE7FC+uAbvZn6+9xLL6q/P/nNX7y/5TOXdRkwzgZANfJkP7L//vbpz6yZwck375reQ3wu3AmQM/U53OEdqyucfMP+uXAnQPRkAdfeTrxxx+oWwm0wtJBrbxFCCUTkezMD6Q4A9cmf/Rys3p93GYwX6UB6f1y4jUcIcfJNezj2C53ZtQi5g7jLe7xsntl99B+vvvvB55MPXdu7DIbD1pXNvMv/jEpiuiOQ8QAQS5GpB0G95Wh/CiXaNkJJsY0+hZpQelwuS7oD7wEgmmz28/bqpIPK4zXRqU+wEKylPEVvFGGcDYBOKDj14ECI52tlNnm5/87LdYTeryXkxRXZX/vlj0tL0D8xrShlHh1mFgDQD1089xMy/mY8Sg5mjtVOSszVjvYejLMBUIIu3nYaPgP7IGr9AS5XPvi8WgLUCTLcmxOvP/nNX3IlQKajyHyIuYpB4shbnPfAcgAoR9ns55vsT/Ycs5IDffth5AM3oTAfIWImaJNZcDrRjxDVRL7lIdoYIlynzhOsSHcAqEA2+3l0tFZbRcJH4SqO2w0/SqgbQ4lZak3WSoDrAFCN4oNv33x4jZ6A4Bp5k2uP7j/5zPxQW9rneBTu2w+v0/PfDjMkY9xOrj26/+RT80Pr0z/ffnSdnv+mZ0i62rZNSH5offrnu4+u0/PfZpEhZaHC4ghwHQAqU2PqATEER3sP78HJ4xyDGIJb+UrLSh4erRLNENL25o775lcyDdqOEiIMxvVVnFAE1bITzrrd0WCcDYBW5LEfGeyI8bdvPrw2MaFvP7wWseabFHo4FVpxoIkJmZ+s/oIUOnpXgsm3H12fOI35CQcptO0W+u6j6xOnMT9phVxOtNyiorNbqxQAwKfqzDfpQN4payGpj2JlTI01E+FAPPwqNVFg+k1cjqXD9JuI1KfCuFYWCVgRAIORbfDNmwApEm/IOxKg9B07hNx5SV4hIgFqSMbHTl3QvgLXAWBUcr7tVGhLX/uFHZ8zUx/364W4zwMxUx/XW3/4MFOf9Lf+mKlP6F2Tybqriv0nX0eXqhNcz/3grg8ATSj1ttPoHCh02M2RA/nToNBht+gcKHTYLToHqjbjAAAAspDZflT4i3CgIO9Rm9kcyNz3RCggUh8LhRtDkPeozUIdaPvL8/AeAMDsyDz4plBvUfMOxK1pFhIRQJUQZyBOGk+qEGN8THlVihBnIG6bFMLgm0I7tJVagcE3AJqwd3unlP0I4z2epg9NMqTozvtEaNWH1oTmOpmFDHuYZEhZhFwmpCdJLiHYj2LgQwNgjuzd3ik48VrGRBVJieG4xFGjiZBjOK6AkHuULK+Qd0sAAJgdxZ/70eOjHk+zx81RhWS3XX8zkFyodLJ4DwBeKjzjBYAV6wBMhsE30D8YfBv40JigwYK2TKJQqYnXAAAAAE0Xr5sDANSEv5aEGl4ufZcRQvMVkom1tVLROXf84BuoQ81Ro4FHqAY+NCZ6IKDtxzvnJVeYg9AwQi4HImpd0sRrUAfYTxYGPjQmHPuZxBpz0j9nuj+HVkL0wxI5hU6vCOV69sMmZHkjWgmhyZMz5mMzVgeiax3sp3dgP1kY+NCY0IGA86iZDv28M0GQUIoJ6ULeR8VTTGhF6LRP6KtcQtTj/Aer9pAi5F03QBe6evW3YrV2uWqd/BxTDwBYOvpCG8xFb9VmnKfTooX0zeKELp3Z5SxTom8WKXR61+s9k81ihT7zeo8Q4u3TnynniBPS90Dw9unP3j51uNm9ezcEY46l2gD2A8CiCVrkSUd5AzO61RcKXag+1IF072GLHAhxcCnQGMilxaZ71wl1IP5iaRNJvgPpY3SwHwCWS7QlKJjGkC50KVAo7iUpKg0KEArzniMhtjFEe4+E70DR3nP4K4YDTe4PjWk/e7d3Cj1kJ/eMJ/jmhevGD5CkvGVKwelfxwlN3qHCEUp5QVeYUJT3HP2WHeVjvUcSYCex3nP42yMHkgYziZPm3IQx7WdCXrdYv7mBV3CCAUh/w6HEu4dooYnxeE0l/eWQYUJc73G+hEyaCuFz7vdqTgVo3uYJpXjPodCpQyFrkJx8OL79IFMBIJoTb9xR/4jNgu7N0ELyv66A7R0Z8zrHyTfuyH/0Zn4hn/ecfPOO/OcRchsDx3tOvnn35Jt3n3/z7vNv3qWFCAfieM/zRyrPv3mXtrtJDqQwDQmrHgTj9TPkRqB/vBmJ6Tfyk+8+ul5USP7320AVwTC/ieWcLCe0ajkn37wrhPj2w2uhQj6Vu5NPpAN9k1vINLbnL94VQnzzN0po68qmd8I37CcYuAsYHiLXOfHGHasDbZ7ZjXhVvEuI8IZLZ3ZDXz1M5DqU0OndyeOifiF3rnPyzbsZHcj0HsXzb97N6EBEUvX8xbu0A3kZf/ANAGDFlZHQ42w01sygmlCWGQeHHI0v2YUCZhwc4/IM6/gb866PFZdnWMffgu/66EIXHUKnWHsb2X70KWpqxlr61DXcTAJzhxg+4lgC3zYShbx3aDhCnJ2sbOOcKOAT8t3mEWTWwoezE++tIA6cnbgcSDBGKUe2Hxq4CACt8M7UagNpPD3QfQHDGPPeT7nbM/3c+Dn30ovLWa8MjEHXoTO1cMUPruuzF8WY9gMA6IrxQqdGjYMb8gQud/ANAFCHIUPnEfCeeMa0H/6Sq/3sGYAeCH2sZ8HUuBETrZFh7jVPOGXu9Zj2I+ATALiRzwNGPKYj4VsU8eAh53lP/jOhqUIfhgpZYjPnsR5im8khEEeUaC0soQMh0qxFHL3+h2BY+wEAxEG7i/XbgyMzs8Yy11OitDG4vn2YXcjhPfKZU7vQ6rs+tV1dI4Xs37r2JoyXiipoB3J969rbylerCRftQK5vHz1zCunAfgAAU1wONPn8IHkEymUMEWvheIQcHsPPe9hC14I+j8blMUm5ke1aujwmMTcSy5n5tnd7p8ScaevrzQHon1v3t7eubG5/ed61JIHLgULNRgo9/PK8a0mCIKchUh+n0FGJg5yGSH0Ohb664FqSIMhpZOpDCD366oJrSYIgp3nEEXKsVhDkNDL1uXV/++pVz5bIfsBywYNTfOhEh3CFlgz2lObc8PbLYT8ALBTOBATO8JrXe+RXoeuEJgmlGQ+R+qwIuW+lsIWcGYkuRNyzYUKkPitCvHs2lNAzj5DOyINv1nftZd9txj0DUBnrEFxQ3GaaincILrPQV+fjVgUVR97DFnIOwTGEWJHaOwTnxes9K0LPnENwfqEQ7xGj2s8SFt0BIAvKgSKMQVkCJ+KkOFCQ0OFPohxIeU+IUIwDRWROcQ4UkTnFOVBE5oTBNwCWjhqzChofi7CEOkK37m8fDY6dD3phT6j3aEJhkVdtzxeSf4R6yaNooUAvUXlP0P2/tVduXAySAZU599KLrq+y3zl3ac39Fv2oxxWEPkRsTeL15fHpBCXCeNoLkZlQRNJjFfKmQaHG4xLypkGhxuMU8qVByqisQkSt27u9g+wHACDEateVyE4SLUGw+8j1hNK8R/8hnQYleo9gp0GJ3iPYaRDtPV6GzX7ovl7K8zquR4iUYt77Q8h+0hn1uILwZj86W1c2XXnJpf/6NGOpqgk9vPqq7eMDIcSle5F32h1CznidV2jbLbSZV+jf3UL/7RGis58xpx6Yc97UkSeahGuSGya/gZG4dX+b6PfMUejKnz6voCKEuPKnf9QR+j/VhP7/UkJj2o9EGoz+vu3JVym71dFzqew+9Mlv/hJRpLmQ66LQ6OfwtV/+OPv+ORe9q2uE3hLogZHtR6fQyFih3ZqooKki6Wu//LEcO9q7vVNoSaGiuB6fKnSB5An85Dd/kSewhAkBAAjMMLUU+5EUitE1Q/9rv/zxJ7/5y9yjp9W25YcZrXTiPeLo7IkjF88l5NpPV0nG+s2NrsoDFoWsfpPWvRT7ye4Q1fKe8XBlOWr0MosD6Sr63QWVBiXun6Mu6aeGBJWk2nyNwYSqzRWanZDpQJh4HQO8JxHivGU8pcSuCqWPsnUp55P/SgiBblnUdMpQJjfIR85+9B6oddghZfKbawIC4FDnXNW8In2mOwD0hsqBxKj202TNt2pBZ+43fqqhroh19CDj+BtncVt4EgASlQONaT+gc+hYjDwSgOFZv7kx7KoHIzHYvdn6jHpcRRmv1kEor0qiENZ8AwAA0IZF2I8+Hyl9V4kbAAAAEKMYM5FiAAANb0lEQVROPZDUea4eAAAGZv/J14XW5RvWflyP5uiPZTQoVjimiZZ7ZqWCiilkJddjp6VVlJZ3MsVc6ptovYTdZEZiFiFvI8p1gZqfuuzNdnJmrPNFo49oTPshDKbco/WFWL+5oboe+oIx2XUnQvrichlVBFnsjEOXusqk71Z6yYMxcF33/SdfFx1hVrrZhfSFE4uuXDVZobHQEVl3pdftcnEp1xGNaT808709M6nW5cxPX5mmkNtNqPDYZul1rwEQq904QDOm/egP1gotnA3zaLqMnrLrUdqEhOZ2JVRKr2B07qUXKxjPfPs0DcFJS2Hic3qmNZcnCsa0H7G6vu+klieGOdeMhsrUybJFyaGqCr2Baje0AAChDGs/wvb+t1lnPJISN2YrC+XtDXBUKrgO1nGIptVNJsCk3FUY2X4k2e/PZ9wbB+u1L5FiE0JFqbBCmiuBG6A7Uo7hJ2hUOMC200ezYL6yJGMxxrefkag5doRxqsVS88V01W7U60LqrYMgnZQ+HNZ8mwHNl5AqoVWNIQ+qAs1rHYTGFsKabwAAANow5uCbdy5y9GRl4rY5XoEKAAB8kP3EgFedAgBAImNmP0WR3mN9rqjoU5mcUqUL6TMOzNuzudbF8vp3lsMxd1JoNrl5jUbNgOssgQGhdJVZCI1sPxUykmoDbtZVpOR9v0KHWXS5KivWxSmyo68nlAtzDHZey9rSFOqFQAhCI9tP/aUtK4A5o1kodxr1h51nfTtwcn7UGct+LIMJWVfXHlLotV/+OHGK3cj2U4E5hpUeqPMCAlOl2sNMk0xuvi9cKHrGILRwIdhPMPr1qPDEfmWqpVaTiJz9pKllZ1s9Pzvf1Z70+5rl3rsBIQiNaT+c1j6viDAS+iuXRMkLIVvO5CaWZNbrqFaAeMtU3kyuB6G8LEfok9/8JfECYdWD3jEnpCn0qQdZGiqxQECdMWVFuRVOS6iMlwQL3zv6Mh4dhJYptHd7B/YzA5ovrSGOZr5lD6kVArc8KPO2c8azN0bGM4GodXlrAoSWKQT7mQed2E9erWpUO3uD0bzWQWhsIaz5BgAAoA2wHwAAAA2A/QAAAGgA7AcAAEADYD8zps5rIgEAoASwHwAAAA0ou+pB3Mqe6W+Bg1BRlfGEur1ANRnv1EGoc6FSz/0kLinNPwwIQWhgoWqMd+pShIIuEITihEo995P+OgPmHiAEoYGFqjHeqUsU4v8cQik/z5/9pL/jhLmH5QjxFyOYixCfdCHmA9u9HVE1QiuD+aB7oVrXXMh7gRKF+DVhPCFRIvvJ0rQ4b72EEIQGFqrGeKcuoxB9gdKFmDVhPCFFTvvJ2K2jDwNCEBpYqBrjnbrsQq4LlEvIWxPGE9LJNvjGKf3WlU3r57fub/P32Y+QSyW70PbVCy6hzXufzVGo2qnburJ56bS95Je6PKJqeNUfOiqD67y59hld61xVrr7QZId+oX93CP13QJXjCD1wCF3OL3R+5f8HR0L/326Q0GSbPPZDixEtU8faSid7XqbQ244AKoR49NWFOQp5ySjksp+H/R1RNThHRJ83Ub7WPepJyOzUU0KnHELPnELmbjlCbzmEHucX+vT4o4PjPx9//SpfyNwgg/0wG+fKAazy+Nmr6m/iMBQ+oZVLsqb9rS5/FiFXJcsv5HMFq0rPQq7QJtjRrQch3XjShao5EKFIHJEWczJUBl2oaK3LKLSuvXbaI8SIDHS8Zgq57EewHYgtdBS9DyZbxTtQBvsJdk43yoToeB3RFxAOEwoV4hiPTgYhd4NZEXI3nt6EiDCtQ4TsgYUqOBAn3KgjMkLNCpyEmBYKqnXFhQ4OG2ySUEhk8HZMCSEi1uk8ziDkNJ5jlSgH2ss18y3de/QtzdEMtf847xGrp05VkVChyc+9pArxGqe+ZZBQaBRIF2JGan3L8YRM6t/7oSvDgRAHPu8RR5XBOvZYotYVFDo6Wtlg44UCIwNR5WghpvcIcSCDaoKQ33uEEG+9+OlbL3qErDMRSq35Fuo9ktDtBc97JHqL4leUiVDoD+OF2I3zUChw++gfpggx45qEH9kTf1hZiHmvqAlxlYF/RBHeU1DIVh0JB/IIRUUG2hisQnzvOdre70AOIZb3KLwOZFJkzTfCe164+PvJJ//82y/0/7516tPHz17durLpmi9kE7Jcjxcu3jWEromjM7kmxNunPnv07EKQkLWGPb8q9M3frk02iBGytZnn31wV+tAQOv3Zo6/mIXRgE/rWELp0+rOHgUJWSzg5T6FqVKsM6icdCaU1WPUTi1DWyCDhxLpJRBWBQVX95PCvI+95YcMI3TuG0IufPv46QKjskqM6pvGoz1McyLbDu67P/3lUAw7CHcjkeZuQ/HBS1VKFVhuM/uGklUY00RQh5m7NKGAVOnkktGZ+58NlCSfdQqY3dCVUDZf38CvDvIVsDTZMyLAEZmRgDgMIdz/bGutkpDVNKETo00n5TO9RH5omxCf/4NvhAbz46UrpHd7D+dYjtHpJXN5jfssfBbJWMmsNY37rEVptNtY2w/y2tJB3jMK6gVfoQBsXCR110bFaguvblJGxakLVCKoMKdeoF6HVBhs6BEfsyvqtCj5vJQj5Yt1KUHUNwTnxeY/rW9cQnJXC7/thx3jrySoBfc0yEudAQoR0iqRQlANFkEWIs5MsQrQl8LfpR6gcQR0R/jZdCB0IcVCwjQT1SlWJIgjqZ8dhzxxI70mkxuvm4pIbwbDQ9EvC7H1EVDLrHrhCR7Yd0WyYN3UjAkEWoQj4Qgf228lcvFMJiLs+eYWqUS0JayAUWA9CG3X0EYWGqQShgs6xIhRrUUXsR+ZfodQ7WV0mQJZKxm48pnkQVTYlEFQTCtpbNaFcxLljz6R3MjILaac4bhwiYs5qnBB7JtsxcREsYkipaOoj5vuy7fF6bUCn2ojiydVbTRwOVv9FCEn6rFrzGssFXSGr9wY7/Zir/RwxXj8SAADmR0Qsnqv9aBOLo4f6Q4VA5ERYCFmF+qxaA575qEnVvQqVDXfR6GXa+fpV53arFLGfx2x5nbiJ6kcEXJV/dlkdU4JRUGjLG/UWJQRc8B8Cm43Qs0pCj7lCxyEuLlTqKzszSXmmh0ON7Cf6GLyBYHJCI66Ka0m+CY+eXdDNLaKbQ6xmaG4WLKQVjtk+J5tFdEU7F4rAuwd5+SoIVaOa10YLrVQYRg8zXiiwUU+E+P3f0O5v9BGldegD+L+xEb6XwbfJmYowarbQtejfBiW9tVP+lBnHTKFZDctwdjIvoXJEdBHijiiyLxJetyO7ceFIIVW0ciMr6V1tL9LnJmNXRROg/PYTcQxxR3goFHJV4irHkdBhPZNVja7QcdX9sHMd0nKShEJigfVbb7/MukGQELHYvpfxhKrRy6n727WVzJ43hODcFfvbIKGJLdJBZvItc/TFsSs61lk69JFCZHyepD7yxg9TqF7288+dX5iHcfyh1rtJOVNCiH/+7Rfmhfnn366Z1SL62svCfvO3a2adtn6Y0mxc+ywi9OE1MxxYPwwaPjI35gsxcQ2LzVeoGp2eOlv1DhMy7qnw21GQkHnzxhptrB8GCk3HhByxzvJhmJBx894avf/vzi+ih90kRZYcvXV/e+vK5uOvXzWfP/UkOgeHR84MoIdCz141n6havQCWRSyDvOdI6IL+jBgnDRKBliCFHj27YD71VkToqwvmc3ze+BLU24VQtFA1Kh+RXShr9VY/Kd2OJJPIIPGaTUT3lxHr7L8KFnJEb3oENCj1EeWyH5eL0kRMmXP1C1aZjhyzZ5uYQtMf0oPSEfNnXH03muiJOqG3waNvm0OoT+/RKX1EastjId59nVBLOBaKakcRQqEhhfkeUptQSJA8cHqPX8iIxnHe4xISuezHKhDqQJw3tlJC/qtyePY4b0EnTpm1nlkbEedl24QQv+XECVligVeI8cZoCNFCJkQdKETGI6JfTe0R4s0m4LwDmxIKbEfRQnwH4ngPKcQLqu7BJK7QUUz29hC83mN96dzaKzcukrv1QwscvzvPvRKDblEc8/QIuZc20i9bDiHnYk16RUwXIpafepRXyL2gFhGmFyukr5qTLlTtlduEYt4jUniEGNW7B6H1mxvMU8eJDHSkZgs5Yt0BqzfPFyLW0dnhCZk/3Lu9k8F+vDLMta04jRNCEBpYqBrjnbrSQmq3hYTM3Y4nZG6Qx344YsJ9JK6RVus+vULE+YIQhDoXqkb/p464AVNZaLLD7EKuHY4nNNkmm/0wJbPsDUIQGlioGuOduhJCroGjXELeEarBhPTNcs58M7O5aOgDgBCEBhaqxninLruQ6wLlEvLWhPGEdDJPvM5yDJwDgBCEBhaqxninLqMQfYHShZg1YTwhRc7BN7MQKXAOAEIQGlioGuOdunQh5gWCUIpQkcdO05sWcw8QgtDAQtUY79QlCvF/DqGUnxfJfhRxRhpx/IMJRXdAINS5UG/GozNYI4JQ50KZZ74BAAAAHEoNvgEAAAA0sB8AAAANgP0AAABoAOwHAABAA2A/AAAAGgD7AQAA0ADYDwAAgAbAfgAAADQA9gMAAKABsB8AAAANWDs4OGhdBgAAAIvj/wGRqnv1Kap25AAAAABJRU5ErkJggg==;movable=1;resizable=1;rotatable=1;deletable=1;editable=1;locked=0;connectable=1;" parent="c-pm6wDFBp0grKCKoOtM-146" vertex="1">
          <mxGeometry width="554" height="725" as="geometry" />
        </mxCell>
        <mxCell id="c-pm6wDFBp0grKCKoOtM-75" value="" style="group;movable=1;resizable=1;rotatable=1;deletable=1;editable=1;locked=0;connectable=1;" parent="c-pm6wDFBp0grKCKoOtM-146" vertex="1" connectable="0">
          <mxGeometry x="22" y="116" width="520" height="518" as="geometry" />
        </mxCell>
        <mxCell id="c-pm6wDFBp0grKCKoOtM-6" value="" style="group" parent="c-pm6wDFBp0grKCKoOtM-75" vertex="1" connectable="0">
          <mxGeometry y="455" width="136" height="30" as="geometry" />
        </mxCell>
        <mxCell id="c-pm6wDFBp0grKCKoOtM-2" value="" style="ellipse;whiteSpace=wrap;html=1;aspect=fixed;fillColor=none;strokeColor=#d6b656;strokeWidth=3;" parent="c-pm6wDFBp0grKCKoOtM-6" vertex="1">
          <mxGeometry width="30" height="30" as="geometry" />
        </mxCell>
        <mxCell id="c-pm6wDFBp0grKCKoOtM-3" value="" style="ellipse;whiteSpace=wrap;html=1;aspect=fixed;fillColor=none;strokeColor=#d6b656;strokeWidth=3;" parent="c-pm6wDFBp0grKCKoOtM-6" vertex="1">
          <mxGeometry x="35" width="30" height="30" as="geometry" />
        </mxCell>
        <mxCell id="c-pm6wDFBp0grKCKoOtM-4" value="" style="ellipse;whiteSpace=wrap;html=1;aspect=fixed;fillColor=none;strokeColor=#d6b656;strokeWidth=3;" parent="c-pm6wDFBp0grKCKoOtM-6" vertex="1">
          <mxGeometry x="71" width="30" height="30" as="geometry" />
        </mxCell>
        <mxCell id="c-pm6wDFBp0grKCKoOtM-5" value="" style="ellipse;whiteSpace=wrap;html=1;aspect=fixed;fillColor=none;strokeColor=#d6b656;strokeWidth=3;" parent="c-pm6wDFBp0grKCKoOtM-6" vertex="1">
          <mxGeometry x="106" width="30" height="30" as="geometry" />
        </mxCell>
        <mxCell id="c-pm6wDFBp0grKCKoOtM-14" value="" style="group" parent="c-pm6wDFBp0grKCKoOtM-75" vertex="1" connectable="0">
          <mxGeometry x="314" y="488" width="206" height="30" as="geometry" />
        </mxCell>
        <mxCell id="c-pm6wDFBp0grKCKoOtM-8" value="" style="ellipse;whiteSpace=wrap;html=1;aspect=fixed;fillColor=none;strokeColor=#d6b656;strokeWidth=3;" parent="c-pm6wDFBp0grKCKoOtM-14" vertex="1">
          <mxGeometry width="30" height="30" as="geometry" />
        </mxCell>
        <mxCell id="c-pm6wDFBp0grKCKoOtM-9" value="" style="ellipse;whiteSpace=wrap;html=1;aspect=fixed;fillColor=none;strokeColor=#d6b656;strokeWidth=3;" parent="c-pm6wDFBp0grKCKoOtM-14" vertex="1">
          <mxGeometry x="35" width="30" height="30" as="geometry" />
        </mxCell>
        <mxCell id="c-pm6wDFBp0grKCKoOtM-10" value="" style="ellipse;whiteSpace=wrap;html=1;aspect=fixed;fillColor=none;strokeColor=#d6b656;strokeWidth=3;" parent="c-pm6wDFBp0grKCKoOtM-14" vertex="1">
          <mxGeometry x="70" width="30" height="30" as="geometry" />
        </mxCell>
        <mxCell id="c-pm6wDFBp0grKCKoOtM-11" value="" style="ellipse;whiteSpace=wrap;html=1;aspect=fixed;fillColor=none;strokeColor=#d6b656;strokeWidth=3;" parent="c-pm6wDFBp0grKCKoOtM-14" vertex="1">
          <mxGeometry x="106" width="30" height="30" as="geometry" />
        </mxCell>
        <mxCell id="c-pm6wDFBp0grKCKoOtM-12" value="" style="ellipse;whiteSpace=wrap;html=1;aspect=fixed;fillColor=none;strokeColor=#d6b656;strokeWidth=3;" parent="c-pm6wDFBp0grKCKoOtM-14" vertex="1">
          <mxGeometry x="141" width="30" height="30" as="geometry" />
        </mxCell>
        <mxCell id="c-pm6wDFBp0grKCKoOtM-13" value="" style="ellipse;whiteSpace=wrap;html=1;aspect=fixed;fillColor=none;strokeColor=#d6b656;strokeWidth=3;" parent="c-pm6wDFBp0grKCKoOtM-14" vertex="1">
          <mxGeometry x="176" width="30" height="30" as="geometry" />
        </mxCell>
        <mxCell id="c-pm6wDFBp0grKCKoOtM-15" value="" style="group" parent="c-pm6wDFBp0grKCKoOtM-75" vertex="1" connectable="0">
          <mxGeometry x="314" y="416" width="206" height="30" as="geometry" />
        </mxCell>
        <mxCell id="c-pm6wDFBp0grKCKoOtM-16" value="" style="ellipse;whiteSpace=wrap;html=1;aspect=fixed;fillColor=none;strokeColor=#d6b656;strokeWidth=3;" parent="c-pm6wDFBp0grKCKoOtM-15" vertex="1">
          <mxGeometry width="30" height="30" as="geometry" />
        </mxCell>
        <mxCell id="c-pm6wDFBp0grKCKoOtM-17" value="" style="ellipse;whiteSpace=wrap;html=1;aspect=fixed;fillColor=none;strokeColor=#d6b656;strokeWidth=3;" parent="c-pm6wDFBp0grKCKoOtM-15" vertex="1">
          <mxGeometry x="35" width="30" height="30" as="geometry" />
        </mxCell>
        <mxCell id="c-pm6wDFBp0grKCKoOtM-18" value="" style="ellipse;whiteSpace=wrap;html=1;aspect=fixed;fillColor=none;strokeColor=#d6b656;strokeWidth=3;" parent="c-pm6wDFBp0grKCKoOtM-15" vertex="1">
          <mxGeometry x="70" width="30" height="30" as="geometry" />
        </mxCell>
        <mxCell id="c-pm6wDFBp0grKCKoOtM-19" value="" style="ellipse;whiteSpace=wrap;html=1;aspect=fixed;fillColor=none;strokeColor=#d6b656;strokeWidth=3;" parent="c-pm6wDFBp0grKCKoOtM-15" vertex="1">
          <mxGeometry x="106" width="30" height="30" as="geometry" />
        </mxCell>
        <mxCell id="c-pm6wDFBp0grKCKoOtM-20" value="" style="ellipse;whiteSpace=wrap;html=1;aspect=fixed;fillColor=none;strokeColor=#d6b656;strokeWidth=3;" parent="c-pm6wDFBp0grKCKoOtM-15" vertex="1">
          <mxGeometry x="141" width="30" height="30" as="geometry" />
        </mxCell>
        <mxCell id="c-pm6wDFBp0grKCKoOtM-21" value="" style="ellipse;whiteSpace=wrap;html=1;aspect=fixed;fillColor=none;strokeColor=#d6b656;strokeWidth=3;" parent="c-pm6wDFBp0grKCKoOtM-15" vertex="1">
          <mxGeometry x="176" width="30" height="30" as="geometry" />
        </mxCell>
        <mxCell id="c-pm6wDFBp0grKCKoOtM-22" value="" style="group" parent="c-pm6wDFBp0grKCKoOtM-75" vertex="1" connectable="0">
          <mxGeometry x="314" y="347" width="206" height="30" as="geometry" />
        </mxCell>
        <mxCell id="c-pm6wDFBp0grKCKoOtM-23" value="" style="ellipse;whiteSpace=wrap;html=1;aspect=fixed;fillColor=none;strokeColor=#d6b656;strokeWidth=3;" parent="c-pm6wDFBp0grKCKoOtM-22" vertex="1">
          <mxGeometry width="30" height="30" as="geometry" />
        </mxCell>
        <mxCell id="c-pm6wDFBp0grKCKoOtM-24" value="" style="ellipse;whiteSpace=wrap;html=1;aspect=fixed;fillColor=none;strokeColor=#d6b656;strokeWidth=3;" parent="c-pm6wDFBp0grKCKoOtM-22" vertex="1">
          <mxGeometry x="35" width="30" height="30" as="geometry" />
        </mxCell>
        <mxCell id="c-pm6wDFBp0grKCKoOtM-25" value="" style="ellipse;whiteSpace=wrap;html=1;aspect=fixed;fillColor=none;strokeColor=#d6b656;strokeWidth=3;" parent="c-pm6wDFBp0grKCKoOtM-22" vertex="1">
          <mxGeometry x="70" width="30" height="30" as="geometry" />
        </mxCell>
        <mxCell id="c-pm6wDFBp0grKCKoOtM-26" value="" style="ellipse;whiteSpace=wrap;html=1;aspect=fixed;fillColor=none;strokeColor=#d6b656;strokeWidth=3;" parent="c-pm6wDFBp0grKCKoOtM-22" vertex="1">
          <mxGeometry x="106" width="30" height="30" as="geometry" />
        </mxCell>
        <mxCell id="c-pm6wDFBp0grKCKoOtM-27" value="" style="ellipse;whiteSpace=wrap;html=1;aspect=fixed;fillColor=none;strokeColor=#d6b656;strokeWidth=3;" parent="c-pm6wDFBp0grKCKoOtM-22" vertex="1">
          <mxGeometry x="141" width="30" height="30" as="geometry" />
        </mxCell>
        <mxCell id="c-pm6wDFBp0grKCKoOtM-28" value="" style="ellipse;whiteSpace=wrap;html=1;aspect=fixed;fillColor=none;strokeColor=#d6b656;strokeWidth=3;" parent="c-pm6wDFBp0grKCKoOtM-22" vertex="1">
          <mxGeometry x="176" width="30" height="30" as="geometry" />
        </mxCell>
        <mxCell id="c-pm6wDFBp0grKCKoOtM-43" value="" style="group" parent="c-pm6wDFBp0grKCKoOtM-75" vertex="1" connectable="0">
          <mxGeometry x="16" y="173" width="439" height="30" as="geometry" />
        </mxCell>
        <mxCell id="c-pm6wDFBp0grKCKoOtM-29" value="" style="group" parent="c-pm6wDFBp0grKCKoOtM-43" vertex="1" connectable="0">
          <mxGeometry x="233" width="206" height="30" as="geometry" />
        </mxCell>
        <mxCell id="c-pm6wDFBp0grKCKoOtM-30" value="" style="ellipse;whiteSpace=wrap;html=1;aspect=fixed;fillColor=none;strokeColor=#d6b656;strokeWidth=3;" parent="c-pm6wDFBp0grKCKoOtM-29" vertex="1">
          <mxGeometry width="30" height="30" as="geometry" />
        </mxCell>
        <mxCell id="c-pm6wDFBp0grKCKoOtM-31" value="" style="ellipse;whiteSpace=wrap;html=1;aspect=fixed;fillColor=none;strokeColor=#d6b656;strokeWidth=3;" parent="c-pm6wDFBp0grKCKoOtM-29" vertex="1">
          <mxGeometry x="35" width="30" height="30" as="geometry" />
        </mxCell>
        <mxCell id="c-pm6wDFBp0grKCKoOtM-32" value="" style="ellipse;whiteSpace=wrap;html=1;aspect=fixed;fillColor=none;strokeColor=#d6b656;strokeWidth=3;" parent="c-pm6wDFBp0grKCKoOtM-29" vertex="1">
          <mxGeometry x="70" width="30" height="30" as="geometry" />
        </mxCell>
        <mxCell id="c-pm6wDFBp0grKCKoOtM-33" value="" style="ellipse;whiteSpace=wrap;html=1;aspect=fixed;fillColor=none;strokeColor=#d6b656;strokeWidth=3;" parent="c-pm6wDFBp0grKCKoOtM-29" vertex="1">
          <mxGeometry x="106" width="30" height="30" as="geometry" />
        </mxCell>
        <mxCell id="c-pm6wDFBp0grKCKoOtM-34" value="" style="ellipse;whiteSpace=wrap;html=1;aspect=fixed;fillColor=none;strokeColor=#d6b656;strokeWidth=3;" parent="c-pm6wDFBp0grKCKoOtM-29" vertex="1">
          <mxGeometry x="141" width="30" height="30" as="geometry" />
        </mxCell>
        <mxCell id="c-pm6wDFBp0grKCKoOtM-35" value="" style="ellipse;whiteSpace=wrap;html=1;aspect=fixed;fillColor=none;strokeColor=#d6b656;strokeWidth=3;" parent="c-pm6wDFBp0grKCKoOtM-29" vertex="1">
          <mxGeometry x="176" width="30" height="30" as="geometry" />
        </mxCell>
        <mxCell id="c-pm6wDFBp0grKCKoOtM-36" value="" style="group" parent="c-pm6wDFBp0grKCKoOtM-43" vertex="1" connectable="0">
          <mxGeometry width="206" height="30" as="geometry" />
        </mxCell>
        <mxCell id="c-pm6wDFBp0grKCKoOtM-37" value="" style="ellipse;whiteSpace=wrap;html=1;aspect=fixed;fillColor=none;strokeColor=#d6b656;strokeWidth=3;" parent="c-pm6wDFBp0grKCKoOtM-36" vertex="1">
          <mxGeometry width="30" height="30" as="geometry" />
        </mxCell>
        <mxCell id="c-pm6wDFBp0grKCKoOtM-38" value="" style="ellipse;whiteSpace=wrap;html=1;aspect=fixed;fillColor=none;strokeColor=#d6b656;strokeWidth=3;" parent="c-pm6wDFBp0grKCKoOtM-36" vertex="1">
          <mxGeometry x="35" width="30" height="30" as="geometry" />
        </mxCell>
        <mxCell id="c-pm6wDFBp0grKCKoOtM-39" value="" style="ellipse;whiteSpace=wrap;html=1;aspect=fixed;fillColor=none;strokeColor=#d6b656;strokeWidth=3;" parent="c-pm6wDFBp0grKCKoOtM-36" vertex="1">
          <mxGeometry x="70" width="30" height="30" as="geometry" />
        </mxCell>
        <mxCell id="c-pm6wDFBp0grKCKoOtM-40" value="" style="ellipse;whiteSpace=wrap;html=1;aspect=fixed;fillColor=none;strokeColor=#d6b656;strokeWidth=3;" parent="c-pm6wDFBp0grKCKoOtM-36" vertex="1">
          <mxGeometry x="106" width="30" height="30" as="geometry" />
        </mxCell>
        <mxCell id="c-pm6wDFBp0grKCKoOtM-41" value="" style="ellipse;whiteSpace=wrap;html=1;aspect=fixed;fillColor=none;strokeColor=#d6b656;strokeWidth=3;" parent="c-pm6wDFBp0grKCKoOtM-36" vertex="1">
          <mxGeometry x="141" width="30" height="30" as="geometry" />
        </mxCell>
        <mxCell id="c-pm6wDFBp0grKCKoOtM-42" value="" style="ellipse;whiteSpace=wrap;html=1;aspect=fixed;fillColor=none;strokeColor=#d6b656;strokeWidth=3;" parent="c-pm6wDFBp0grKCKoOtM-36" vertex="1">
          <mxGeometry x="176" width="30" height="30" as="geometry" />
        </mxCell>
        <mxCell id="c-pm6wDFBp0grKCKoOtM-44" value="" style="group" parent="c-pm6wDFBp0grKCKoOtM-75" vertex="1" connectable="0">
          <mxGeometry x="16" y="83" width="439" height="30" as="geometry" />
        </mxCell>
        <mxCell id="c-pm6wDFBp0grKCKoOtM-45" value="" style="group" parent="c-pm6wDFBp0grKCKoOtM-44" vertex="1" connectable="0">
          <mxGeometry x="233" width="206" height="30" as="geometry" />
        </mxCell>
        <mxCell id="c-pm6wDFBp0grKCKoOtM-46" value="" style="ellipse;whiteSpace=wrap;html=1;aspect=fixed;fillColor=none;strokeColor=#d6b656;strokeWidth=3;" parent="c-pm6wDFBp0grKCKoOtM-45" vertex="1">
          <mxGeometry width="30" height="30" as="geometry" />
        </mxCell>
        <mxCell id="c-pm6wDFBp0grKCKoOtM-47" value="" style="ellipse;whiteSpace=wrap;html=1;aspect=fixed;fillColor=none;strokeColor=#d6b656;strokeWidth=3;" parent="c-pm6wDFBp0grKCKoOtM-45" vertex="1">
          <mxGeometry x="35" width="30" height="30" as="geometry" />
        </mxCell>
        <mxCell id="c-pm6wDFBp0grKCKoOtM-48" value="" style="ellipse;whiteSpace=wrap;html=1;aspect=fixed;fillColor=none;strokeColor=#d6b656;strokeWidth=3;" parent="c-pm6wDFBp0grKCKoOtM-45" vertex="1">
          <mxGeometry x="70" width="30" height="30" as="geometry" />
        </mxCell>
        <mxCell id="c-pm6wDFBp0grKCKoOtM-49" value="" style="ellipse;whiteSpace=wrap;html=1;aspect=fixed;fillColor=none;strokeColor=#d6b656;strokeWidth=3;" parent="c-pm6wDFBp0grKCKoOtM-45" vertex="1">
          <mxGeometry x="106" width="30" height="30" as="geometry" />
        </mxCell>
        <mxCell id="c-pm6wDFBp0grKCKoOtM-50" value="" style="ellipse;whiteSpace=wrap;html=1;aspect=fixed;fillColor=none;strokeColor=#d6b656;strokeWidth=3;" parent="c-pm6wDFBp0grKCKoOtM-45" vertex="1">
          <mxGeometry x="141" width="30" height="30" as="geometry" />
        </mxCell>
        <mxCell id="c-pm6wDFBp0grKCKoOtM-51" value="" style="ellipse;whiteSpace=wrap;html=1;aspect=fixed;fillColor=none;strokeColor=#d6b656;strokeWidth=3;" parent="c-pm6wDFBp0grKCKoOtM-45" vertex="1">
          <mxGeometry x="176" width="30" height="30" as="geometry" />
        </mxCell>
        <mxCell id="c-pm6wDFBp0grKCKoOtM-52" value="" style="group" parent="c-pm6wDFBp0grKCKoOtM-44" vertex="1" connectable="0">
          <mxGeometry width="206" height="30" as="geometry" />
        </mxCell>
        <mxCell id="c-pm6wDFBp0grKCKoOtM-53" value="" style="ellipse;whiteSpace=wrap;html=1;aspect=fixed;fillColor=none;strokeColor=#d6b656;strokeWidth=3;" parent="c-pm6wDFBp0grKCKoOtM-52" vertex="1">
          <mxGeometry width="30" height="30" as="geometry" />
        </mxCell>
        <mxCell id="c-pm6wDFBp0grKCKoOtM-54" value="" style="ellipse;whiteSpace=wrap;html=1;aspect=fixed;fillColor=none;strokeColor=#d6b656;strokeWidth=3;" parent="c-pm6wDFBp0grKCKoOtM-52" vertex="1">
          <mxGeometry x="35" width="30" height="30" as="geometry" />
        </mxCell>
        <mxCell id="c-pm6wDFBp0grKCKoOtM-55" value="" style="ellipse;whiteSpace=wrap;html=1;aspect=fixed;fillColor=none;strokeColor=#d6b656;strokeWidth=3;" parent="c-pm6wDFBp0grKCKoOtM-52" vertex="1">
          <mxGeometry x="70" width="30" height="30" as="geometry" />
        </mxCell>
        <mxCell id="c-pm6wDFBp0grKCKoOtM-56" value="" style="ellipse;whiteSpace=wrap;html=1;aspect=fixed;fillColor=none;strokeColor=#d6b656;strokeWidth=3;" parent="c-pm6wDFBp0grKCKoOtM-52" vertex="1">
          <mxGeometry x="106" width="30" height="30" as="geometry" />
        </mxCell>
        <mxCell id="c-pm6wDFBp0grKCKoOtM-57" value="" style="ellipse;whiteSpace=wrap;html=1;aspect=fixed;fillColor=none;strokeColor=#d6b656;strokeWidth=3;" parent="c-pm6wDFBp0grKCKoOtM-52" vertex="1">
          <mxGeometry x="141" width="30" height="30" as="geometry" />
        </mxCell>
        <mxCell id="c-pm6wDFBp0grKCKoOtM-58" value="" style="ellipse;whiteSpace=wrap;html=1;aspect=fixed;fillColor=none;strokeColor=#d6b656;strokeWidth=3;" parent="c-pm6wDFBp0grKCKoOtM-52" vertex="1">
          <mxGeometry x="176" width="30" height="30" as="geometry" />
        </mxCell>
        <mxCell id="c-pm6wDFBp0grKCKoOtM-59" value="" style="group" parent="c-pm6wDFBp0grKCKoOtM-75" vertex="1" connectable="0">
          <mxGeometry x="16" width="439" height="30" as="geometry" />
        </mxCell>
        <mxCell id="c-pm6wDFBp0grKCKoOtM-60" value="" style="group;movable=1;resizable=1;rotatable=1;deletable=1;editable=1;locked=0;connectable=1;" parent="c-pm6wDFBp0grKCKoOtM-59" vertex="1" connectable="0">
          <mxGeometry x="233" width="206" height="30" as="geometry" />
        </mxCell>
        <mxCell id="c-pm6wDFBp0grKCKoOtM-61" value="" style="ellipse;whiteSpace=wrap;html=1;aspect=fixed;fillColor=none;strokeColor=#d6b656;strokeWidth=3;" parent="c-pm6wDFBp0grKCKoOtM-60" vertex="1">
          <mxGeometry x="-2" width="30" height="30" as="geometry" />
        </mxCell>
        <mxCell id="c-pm6wDFBp0grKCKoOtM-62" value="" style="ellipse;whiteSpace=wrap;html=1;aspect=fixed;fillColor=none;strokeColor=#d6b656;strokeWidth=3;" parent="c-pm6wDFBp0grKCKoOtM-60" vertex="1">
          <mxGeometry x="33" width="30" height="30" as="geometry" />
        </mxCell>
        <mxCell id="c-pm6wDFBp0grKCKoOtM-63" value="" style="ellipse;whiteSpace=wrap;html=1;aspect=fixed;fillColor=none;strokeColor=#d6b656;strokeWidth=3;" parent="c-pm6wDFBp0grKCKoOtM-60" vertex="1">
          <mxGeometry x="68" width="30" height="30" as="geometry" />
        </mxCell>
        <mxCell id="c-pm6wDFBp0grKCKoOtM-64" value="" style="ellipse;whiteSpace=wrap;html=1;aspect=fixed;fillColor=none;strokeColor=#d6b656;strokeWidth=3;" parent="c-pm6wDFBp0grKCKoOtM-60" vertex="1">
          <mxGeometry x="103" width="30" height="30" as="geometry" />
        </mxCell>
        <mxCell id="c-pm6wDFBp0grKCKoOtM-65" value="" style="ellipse;whiteSpace=wrap;html=1;aspect=fixed;fillColor=none;strokeColor=#d6b656;strokeWidth=3;" parent="c-pm6wDFBp0grKCKoOtM-60" vertex="1">
          <mxGeometry x="138" width="30" height="30" as="geometry" />
        </mxCell>
        <mxCell id="c-pm6wDFBp0grKCKoOtM-66" value="" style="ellipse;whiteSpace=wrap;html=1;aspect=fixed;fillColor=none;strokeColor=#d6b656;strokeWidth=3;" parent="c-pm6wDFBp0grKCKoOtM-60" vertex="1">
          <mxGeometry x="172" width="30" height="30" as="geometry" />
        </mxCell>
        <mxCell id="c-pm6wDFBp0grKCKoOtM-154" value="" style="group" parent="1" vertex="1" connectable="0">
          <mxGeometry x="610" y="300" width="200" height="118.14999999999998" as="geometry" />
        </mxCell>
        <mxCell id="c-pm6wDFBp0grKCKoOtM-149" value="" style="shape=image;aspect=fixed;image=data:image/png,iVBORw0KGgoAAAANSUhEUgAAARkAAACmCAIAAABhmWxUAAAACXBIWXMAAA7EAAAOxAGVKw4bAAAgAElEQVR4nO2deZQcx33ff9V399zH3sACi93F4iAIgAIvgAQpkuIlipJJ6rIsK5aip+hIHDuO3lPip1jW80vyEkuJXyz52U+R9ERHYihRCm9LlEiRJkiAJO6DAHEssPfs7NzTd1fljwEWEIDt6Z3p2Z0Z1Oevnenu6pre+nb96le/+hXq+dg6oFAodcMsdwUolDaBaolC8QeqJQrFH6iWKBR/oFqiUPyBaolC8QeqJQrFH6iWKBR/oFqiUPyBaolC8QeqJQrFH6iWKBR/oFqiUPyBaolC8Qeu0TfoCAYkjuuNhAYTsco3W1b06JZ9Kp2xHAcACrrxbio9V9aymtboylDahogkhSVhKJnoCQcr3wwm4yFJPDY9a9g2AIznC5P5Yl43ZkvlpakSatz6pVXxyPtW9A7EYzLPhWXJ5UzTdlKl8lxZ3Ts+NZrJaZbVoCpR2oChZHxdZ3JVPBaVxUi1dpVVtZli6dB06uj0bOXd3TgaoqW4In9ww9pNvV3nPxNAFw4FTZnFLAA4rFPitQvHYf6MAxPTP957iBBCfK+WZ9auGPrU3Y99/sHPLF8VWozXj+z+2vf+8uTE6YbehUHo/UOr71s/fP7zJe1KdkTB4it/56XSheMX29VYNv+zg8emCoXGNSyftSTz/K2rV96+ZlVA5AGAc1iesKItyLYo2fxVL1E5w2EcjTMN1rJZBwAwJq+eGt07MTVdKPlYN4+EldDPv/H4+v61S3/rVucL3/6TZ958sRElR2VpXWfy/UMDsYAMACxmJIfnHV5wuIB19a7JZG2DNVXesJFjcjYAEEL2jU+9dOJ0uqw2opJsaGPSr7L6IqHHNm+8aVWfwLEAELDEpBYJmrJiixxmF7qKx5zo8Iolyo7IEsZibGCgPxZd25Eczxfymu5X9TzyR/d96rGdDy/xTduDFR29P3vtaQf7bEolAvIntm66qX9FQBQAIGjKcT0UNgOyLQp4wQE/SxjR4RVbCtgSi1mTswBBTyQ03JEoGkaqAYMo37TUEw595qYtfdEwIiBgrkOLRPUgSxjmYj/sBgLEEka2haAlOwjbrK2I/HXdneey+bxuLKW998Sff5/nGu6SaUsyxezTb7ygGX6+/uKK/Mj164c6EixCsiN0lWNhU+Ewizy3K4YwkiMotmizjoNwQOQ3dndqljWeL/pYT/DLJz6YjP/hjZtjigwAYVPpKcVlS6ytKBYzSTUSMQIMQYrAf+7mG25ZtcKXSlJajqFk/I/vuGVtZxIAwmYgoYYFp8bXnODw3aV4TA+ymOFY5t6RoZv7+3ytrB8+8aGOxEc3b4gpMouZsKlEjAAint4ZC4EAokZQtsWpYIbn2Ac2DE8WiqOZXP1VrQHV0J7652eX5dbNz4ZVIzcMXd+gwuOK/PB1IzLPA0BSiwQNyWNf5ELYUDjCZqWiIsJDG0cknnvl5KgPdQWA+rUk8/yNK3tjiswQlNDCCw0EFwsiSLKF3lJiRsmKHPfpbZt/sGf/WC7vS+GLIl8ufPXvv770920JvvihzzZISyLHfmTTuu5wCBGIGaGQIftSLAIUMCXJFsZDswLHbl/d/+5MeqZY8mUQUa+N98j167eu6AGAkKnItuBHlS4i2nzUCCKCQpJ4z9o1FZcG5Vpg5+DqdV0dABA2AmFD8bdwBjNxLcwQFFWkj23dKAtX9zAvuth6Lh7uSGzu6wYAxRZjWpAh/kckhUw5ZMoAsK4rubmnq+r5lDZgdTx69/AaAJBtIWYE6xwyXAkCCJpyyFQAYEU0srW325dia2/9Ms89uH4YAHiHS6jh+m3Zq4IISmhhHrMIofvXD0s89bC1ORzD3Dm4mmEQi5mEGvZdSBUQQFwLSbYAAB++fr3C+9A11dg0EcANK3q7QkFEIGCJLK6uST4QkqIJpauP5QUAsHVNS08b+YxZKlS9NqGGp4PZkCTeM7zm2aMnaqszpSUYSsYHEjEACFgSt/D00TyIYYI9/WIkJoSilW+K42csraxn01AtxiGqB1OBLEbkgQ3Dzx45bth1zYzVqCWGQf2xCMcyDGYClly1U4qsXrti+z2IYRDDAkIAAIQQ7BCMJ958OXf6mPvloiMolqTy+rqu5BujY3MqjYJtTziGuX/9sCzwFZ9w1S5J6exdffeHGZYFhkHo/As9PryREHLmVz9XU5Pul4sOL9miyuuDyXhEllLFuiZwa7TxgoJQcTnIjuju8mcFsWfbzr5b72Z4AbHceSEBAEKI5RheWHn7fQP3/B6vBN1qSZBsC4hARJZ6IqHa6kxpCRSBBwDR4flqU0ldW25dc++jrCAilpsXEgAglmM4fvCBj628/X4hHHUpgSFIsUREUDKgrLmwjqFmatTScEei8kdED7ifuXLng8mNN7CC29RtsG9V3/a7L8rsagRMkSGMyHH90ShyPZPSugwkYlFZAoCYVuWN2bNtZ+fmmxHr5tqNrlnXs22ne7uSbYEhCAA6gwGmvnZVo5a29HUDgOBw7p1ScuMNob5VXgoM9Q1EV7uFk7LkfNjIhu4OlmqpTblreKDyh0ugHQAoHT3JjTd4KTC8ck1scL3LCRxmRYcHgKFkgmXqckTXeHElrENxDRQSw7HY4AbvZa7c+YAYjbuc0KFGAKAzFKD9UrsymIwDQNy1U2JFqWvrdu9lrthxb6DLLVxItkUA6A4H6+yXavE9rIxGLq3EQoiRuBRbXOBsbM366b2vVz3t+//+fyHUKOe4wPs843ztsKpz5d/98bdM2665hIkjT1Y9R050BTp7F1VsdM368szEQkcDpjQnFwAgGZAn6gh4raVFVkLfqyKEIostWQiGXY5yznnjeOem7RxHW3zTEZQDO667pZ4SHj/yJACwC6/QAQCG492HSVciBMOsIDqmcdWj7IUYgzXJRD1aamDuFD64aIcbpwQ5acGAEY7QGKJrAs41gCayatjl6FVhBIFpvLnRXHmIhFCED1CXN8UNIbxoe2dpaKCWyOLtZnVmQpubWbBAWMYcEJRmYfbgnsVeQjAmGDeiMpfSwPA2dXZ6sZc4rhmILPa8OHe/+w5iGmXv3bJuG1Ofb/SapayrR88et5x600g5jFu7J45DHGdRQyZbLdlawzN71aKl0+mMl9NsQ7V11WX8cyVmyW3BH0bn+6Uv/c2f2U6jXjPvfPdlSfBnFda1xtjsxJ989z9ki7Wv2vzaXTcBgI3c4uJs07ANnVeqBAlcip5Neznt4MSi3/6XUouWzAt5xjTOlBZes6Rn0sXx0diQ1ymm0tTY7KG3XU6wGQcAbAfnSvnG5TpbzmRiLY6DnXw5n3V9IbpjWLbIcw7j9s/V0tOZ4we8TzHpubmUq1mYlc+nu9Lr8OZDzeOlw1MpAJhPcHdVsG3N7Nvl8ZVglYuTb/7GrTREMlIRAE6mM5g03PalLAvj+QIA5MUqObcy7x3x3q7O/PIp93MM1gKAiVyhznZVo5Z2nTkHADbraJzpcpqllibefLnqz8a2Nf32a0Yh63YOOv87j83MOpj2He3J/3nnYOUPg3MbdNla+fSLT1rVhkC2rk28+Rv3kZLF2CZjAcB76bk621WNWjqXzRd1AwDKQpXlD2pq4uzLz+RHT9j6Vc4kjlOaOnfq+Sdyo1VWJRXEssNg03ZKhpt6KS2NZtsFzQCAvFB2d9s6pnHy6X+cO34Q21dRHbZMdXZq7NXni+Nn3O9ocBZGxHKciVwR12ff1+jHszE+ODmzY02/yhkmawmO27JEs5gf3/UrJdkd6OoTo0kxHBWC4fLMhKWVSxNnC2OnSbXshA7CBmsDwFxZPZtdnoRElCXAweTA5PTtg6s03jA4y2U0DgC2rk6++ZvSxKgU75RiyUBnLyFYm0s5upY/d1JNTztXe31fCka4zOsEkbmyNlp3u6pRS5iQ46n0DSt6ZIEv87q7lgAAW1Zpaqw0NVbb7QzW1DkTAE7MzhX0q0eCUNoAQsiJ2bltK3tlgS/xmmjzVZeZFsZOF8ZqzGNe4nWVNwDgeCpdf4bg2idSzmRy57J5ACiImu46aqoTB+GKp6VkmM/RBertzvFU+lQ6AwAab1TygDcIB+G8VAaAomG8dvps/QXWriXDtl89PQoAGOE5uWCyjfrZGblgsrZh2U/sO9ygW1CaihffPQkANoPTcqMyIjoMTiv5yizLT/cf9cXYqWuC/73ZzLOHjxNCTNbOSaUGxfjEtBAQODQ1c3rO0xwxpdVJlco/O3AUY1J1dW3NqJyucSYQODgxfcpb7EFV6g2W2X1ufO/4lIOxyukZuUiQ/3LiCFtO4xeOnbQaFutAaTbeHpt8573pmrOHu1MU1EpbHc8VXj45avo0719vXQ3beebI8VWxaDKoFAXVYXBn2S1bRQ0UHP3J2cMG29hN3RYiEY4/880fL8utm5+ueGeDSsZAdmvjN+grh0Tf9jSqkJdKObFciUd7/J0DGf9yWvmge9W0/vfuvV/ccWNAEMq8Ph3MxLVQVc+eR9J2+X+kX5vDqhTmLN0hSz5LK3D8+9ZuWeKbUuQIr3LWX8+++tXOO1cLMV8ymToIZ+RiSdCAgGpaT+w77KOQwK81F+my+t3X39o7PoUx0TgzpeQqfVS9xdrlH2TenrNVABAUTg77o09KkyMEOCV2fmbpb9O7DunTdQ7FMSIqr6eUXEnQAGA8V/jhnv3HU56ikLzj215mqmWdmst0BANdoSBmiMaZGm8AArHWDuq3pdP/mN03aV/M6spLrKk72G5s13TozNFHb/9QQ2/Rroylxn/wyx/XudUww6FgUmK48x2RRZxjeirjaJukGrN+a7w5JxeKomqxDgBM5Arf37NvpuTP3haX4ucem5VgiMl8cWU0LPO8w2CNN/JiCSMCgBgCBBGCCEEAiGCECSKYITbjEATzef0dguec8qvlMy8U3y3g3/VUIuAExig7DV0TmC3mHrjxnqAUYBeZVOAaJ52f+5tf/P2R0SopeKsiRwQx+DtDD4s4Z81sxlEjrBxgBPZCWkmMiMXaBAGBy9sVQcRmnaKopeV8QVQrbaygGW+eHf/JvsOa6zK5mmnUPuobujq2reztjV7MhSJe2PsZAWIIchAGAIKIxdiSLXaqEYYwBUd/uXRqrzaRshfY9ZmAmjPVbGND8rrjXXdcvyNCV8svhkNnjr5x9K06C+EkNtIjLZSzLcxK68WOu0PDK/koAOTFclYq8pir5O+/tF0BgMla82n9i7rx9tjk4alUQ7fwaoiWKkgclwgqW3u7dw6trlIJAjMZ/VQxu1ed0LCFXfsdQiAzWqKrjNqSxOoAYqq4GSSGHxISI1LHcF8YV5uDOT6T/u3p0cl8UbfsOkNXq9JALc0jctxgIqYI/KpYNB64uMGbjfHoXK6g6++MTyEGxVYo81ayO9gm2XF16X16lMaBEAQ7pMusu4UgmGTHVWyToWQ8JksjnclL9yMzbOfk7Jxh2yfSmeISRm8uhZY8wktspNfrVopqzlQzdPFF+8BJbLhLYlhPL1M123A7vwaaKEmIpTvlOa8PSI7wgkJ9A+1DMCl6FJJtYL3YEOdBnTSRlgDAVG3H9DQrhRCSInS6qU1Q4gIneG2KWs5s9LxIbTSXlhwLlz1bboLMBZNuCc0pLYEQWMQsvJazTLWBCzHqobm0BACmahslrw9LCvO8TC29FobhkBzhq/ruKti6o2aNpnXhNp2WAKA0q9uG1/gjJSZ4tLMpTYgY5DnR09uQYKIVrKYVEjSnlggBNWd6dHnzEiuG6ObqLYkgs0qU97jpkVGyzXKTWncVmlFLAGCWbUvzusgiEPfqAqI0D4hBgYTo0bojDlGzZjN3StC0WgKA4qzhWF4tvWifQuXUQiAESkxgvfnusEMKMzp2mltJzawlgkkx5XXSmuGQRFdktA4Mz3gMcQAAs2zbxvKsBF0UzaslALANx/v0thwVeIn69FoAxCDvIQ62idVcU7sc5mlqLQGAUbI9TswhBIE43XizBVBiAst7bXhq1sR2a+T5aHYtORYuTHtdSFyJ6WpofSh1IgY5ybPfVc0YTe67u5Rm1xIA2CbWC17jr3iZpbO3TQtikBRexMysXmwZIUFLaAkA1Kxp6Z5Gn4hBdPa2aRFklvc+M5u3mt93dymtoSXsEN3znDcvsWKI+vSakVCX5DGhkFGyjdax7iq0hpZgkdPegTj16TUXiEGRHq+L07BDmnB5UlVaRksAUJo1bG8rMgAgkBQ9rtKlLAGCwnKe325q1mwt665CK2mJEFJOe5295QRGDNA4vaaAYVEwKXqPuzOacqlfVVpJSwBgGY6W9/qglbjoMQaZ0lC8x90BAe8D42ajxbQEBLSc1xhHhCDUSRcLLjNK9PJ8dy4UZ3WPDtsmpNW0BIAdkhtTPcqJ5ZlQp1ffEcV3WIHxviLGVB3vy0CbkNbTEgA49iJnb6mlt0woEa/hQo6F1Uxr757akloCAC3ndfa2MvBtdH0oVyIGOO+dklG0vTtpm5NW1VJl9tbjyazAzO+bQFkaGA6FPMdGOhZWc603oXQZLew15mzhpv4bt2+4xeP5Wuv/t1oIQWFZwZNpfSp1+ulf/RJAbXSVGk0T5W1dFJIg/fcv/OW977srKAeWuy6UujAsI18u3vVnD2eK2eWuS120qo334E0feOS2D1EhtQEiL3ZGk3/9r77Jsy1sJUHraml198rlrgLFTyKBSDgQrn5eE9OqWqJQmo3W7lXncbAzOnuO8Ryo4tiXb/KUCCgOxjlNb0T12gyJ58KSmCqWLz/AoHg4Gg/E5r8Yy4zbztWnX+PBeERu7Y7oMtpES4Vy8cvf/VPv2fqLKUNhuJv7V/SEg5VvkoGAg3FWO78efjSTmymWT8z6vD1wi9IdCnWGApt7uyofZZ4PSWKqeH7vRt22Xz8zNlUoBhJiRyL+2E2PfHDL/ZVDB84d+uGrj1vO5bMX2CGf2f7pR7c/vGQ/YQloEy3Z2Dl0/N1Ir+K+XQICxCFmrZj8bO+WYqxIEAA+3yCKxRIAzM/pjkS5kWhkR29o38TUUwePOYTUuaVxK8IyaOeaVXcNrxF5DuDis8IG5I2Lz0pk4MHBjqDZ/5vJ0T1nD//HM/vX944MdKxGCD205YE9p976f28/e9lG6OWMMbc+s5S/ZQloEy0BAMGgZoxw94ILzkbEjm3KitsCA5WPnA55scxiBgA4wrKEAQACYDE2AWIzDmYIyzLb+vu29PW8MTp2aGpmNJNbmt+y7HQFAyNdyVtXr0wElPkvBZsDAAHzFUuaAJiMBQAEAQKI6cGPRzd/PLr5iD79rR/9xSce+sJtI9sB4C8f/brMyz/d8/P53snSHO/z7C1E+2gJAEzVKc8ZgcTlEUMS4nYEB+4LrQ0xFw+FDUW2hcr+7QxhmAsbBduMAwAOwjbjFMSyzlkcy9w+uGpzb/fZbO7Fd0/Olq4YJ7QRIsd+YGRwQ1dHMnh+voHFTEQPiJjnMAsALL6YTKPyrCp9TuUoAGyUugdw/MSrL5qaeteWewDgqw/9aVAMfP/VH9nYdixcShuktaOFrk5baQkAjJItBLlLg1n7hei/iN3Yw1++KToCJDhXGV9V2gQHrOjwAUvCiOSlUpHXIpK4qbdrfVfHd17fM54rNPRXLBeKwH/tnttFjgMAhiDZFhJamMULhi9wCxxSGGHEBNj1dqp7bUfnCpZh//V9X0oVZp/Z97xaNp0WyXe3WNrNJ44domWt+T0yRsSOz8avIiTvMATFtFBPOR4xAgDAscyXdtx086oVQbGtAvwYhDZ0d37ltpsrQgqaUlc51lGOugipOoSMPvfU3n9+Ll2cA4BvfvQ/ferWT+IygjYdeLabluDCbmgsYh4Kr/9c4qYurnYhzcM7XEwPdZWjgsNxLPORTes+sHaQZdrn6W3r7/vE1uuSQYUhKK6FElpEsgVU98IvS9dyB/afeeHnjmkAwL994MufvPMxP+rbjLRPa7iUUtoYEZMfDK+/dIBUP4olJdQw77Asw9w6sPLB9cM+Fr6MbFvZ99jmDRLPMRjFtFDECMyPHutHYjgnlyulpzF2eI7/q8/++SfufMSvwpuK9tTS2s7kHR2rHOS/XS45QlKNCA4HANtXr9za1+P7LZaYnnDwzqFVAMBiJqGFw6ZS9ZLF4ljW/peeyM6NVT5+64t/9bkH/kDg28pIhvbzPQCAyHEPbxwJB3lVM0Km15xs3pEcoUONpJQ8sPYj16/XbfvYzKzvd1kyPnvzDRFJQgTF9FDA8v9xAQBGZAZmZn/7D+XgyGfu/0MA+PoffNW0280t3m79Es+yH960rjMUAEA2a5PGjHMFhw+ZMiIg8tyOgRaOsn1447qILAGCuBYKmXLj8mI4COtGSSoeP3z6kGVbPMcHJP87wOWl3bTUEVQ2dHUAgGwLET1Q/+h5ISJGIK6HAWAomRjuSDToLg2lOxy8dWAFAIRMOdQA024ehqCwqSACul74u//7n9+bONW4ey0j7WbjvX9oQBF4AOgsRz0KiZOU2PDG+Y+OoWdOHPJyYdhQ5uQCw6Dfv2HTN/7plZrqu5zcMbi64ooMmJLHV06wd5Wc6Jz/qM5Ol6fHvFwY0YMqZxDOWhESP/nNz3z+Q//yKx/+fC2VbmLaSkv9scjmvm4ACBlKVSEhhgl0r1yx4wO8ErzsUMemG1MHd2ffO1L1jl3l2KySC4jCo5s3/OzA0ZprvvSs7Uhs6esGgIihyHZ1b2ewt7/jum3Bnv7LvldTk+lj+8vT47butsgcAQRN2eCsFdHw6ljoO09/b33/yN1bd9bzE5qNtrLx7hpeAwAsZqJGlfW2DC/03/HB/p0PXCkkABCC4b5b7l658wEpWsV4E21etHkA6AgEWmv2dnU8yjIMEAhXe1asKHVt3b7q/Q9fKSQAUDp7V95+X/+dHxRCEfdywqbCOywA3DsymCvlT02errnyzUn7aCkqSx1BBQDCprJQbEsFhuPX3PtouH+QFRdMlIMYJjowsubBjyudvS5FsYRhCQsAK2Ph7tBVZNm07BjoBwC0cBzQeRBa+/CnO6+/ieEWNGEQwwa6+kYe+SNOrjLo6i7HASAiS70RHybQm4320dKqWDQiSYgAg12XXTBM9/tuk5NdXspkeaHz+pvczwkZMhDgGKa1wiBkgQeAhFZlNV7Ptp2c4jWpxsAHHqkqp8os8OpY1GOZLUQr/ftdQAAdoYDAsQxhBOw2CJSiieiaRaReCvb299x4h8sJosMDAELoruEB78UuLx/bct7XEnSdf4sOjMQv8cpURYzEIv1DLicwBFUe182rVvBsuyXTbRMtMQwKCQIAMISR7AXHLQihoQ99ihUWEViEEBMf3hjsWXASCQFiAAFAC9l4lW6BIcjFQ8PJSmLkemYx0QmIYXtvucvFcp7/73Aso/Dttndjm2hpnsqSvoUILCwJFxiOdx81JdQwAHCtY+PxHAsAMd1t0MLJAcmbJXwZ0dVrXY4ighCNE29mOIbpDAWg2kg6NrihltIRYl1fz5IjwIUG2hKICzsS5kEIMTUlrOvaut3lKEsYaNN9R9pESwLLDibjVU9blHX3O3jc1I4C4GLjVUAAHcHA9b21dHrNTJtoiUJZdqiWKMuAZlrpcssn47+MNtGSallvnBkDAOI6sJ1867e1lE4ItqovEMC4ZcbU2EN+MoIxtmvZpe/U80+4FQtAAEqmOZkv1lB4M9MmWprHZNz+/Y6u1VCmY5mFMbfQ5qxUAgCjppa3LOiWDQCW67Oy1FJ5ZryGws2SW2IZh3Hc33etS7tpyR3HNE4+9+PFXmXkM9pcyuWEEl+LRJcRjDEAFAU3K8sxdDU1udgMm6kDu92DXNuYNtGSg8lkoehgbDNOUXBr2XomnR894b1kPZ+pYrRceMu+Mepp9UEz8MzREwBAEGDXZfypg3tKk2e9F2sW8/mz78HC8rMZpyLgubKW19stdXubaAkARjO5gm4QIO5pHgh2Ugd2m8W8lzLNYm5qT5UhVkFQAYGD8em5ltmK69jMrGk7ADCrVHkOk7tf9i6nqXde07NVMrBX/jst9N7xTvtoKafphu0AgpKoOoybnPTc3Knnf5I7/a57gZZannjj11VbkslaADBdLLWWY8rGGABUznAfvZjF/Piul0pT59xLU9PTx3/xw8LZk+6npZRcJcFRS2fIWIj20ZJh26fnMgBgI+w+qgYAW9cm3nhpZt+uq75HbV2d3vv6u0/+Q2mqyuvTYC2dMwFgplDKqK00avrJ3kOEEEBQcB01AYBVLp755VPpY/uNQvZK+80oZDPvHR5/7Z/MfJVu2WYci7UBYHSuPdOyt9W62heOndw+0E8QyUjF3lKVZXzYtmcPvZU7c0KMxORktxAKAwCx7cLYaUfX9Jyn3WJKgmYzGABeOTlad/WXlJyuz5W1ZFAp83rAkqqsYgKY2vNKJhrnlVB08HyUPXGc4vgZo5AzC1mCq6dPy0pFjAgAPHPkeP31b0LaSkuGbT/+1sHff98mg7PScj6pVVnpSQgxizmzmCuOn6nhdg7CBVEFgOliafrCZkStwnShdGQ6dcfQaoOzdNYKesh1bOQyRi6zKG/EPGVeV3kDCOw+Oz5daLeZpQrtY+NVOJFOn5idAwCdMysWRYOwGKcycLcd/O2XdzXuRo3juaMnKh6IvFTS2QZmqyNAVN7AiJRNc/e5cctDJ9aKtJuWDMs+MDlt2Y7FOCklhxszLUiAFMWyxhkEk18eP9W6U4/fef0t28Ema6eVXOOmUFPBXJnXAODI9Gz7hTvM025aIgDvjE2+9N5pQGCydl4sN6KJlAU9L6qA4Gw2f2hqxvfyl4zJfGHP2XEHY4t1ZuW8768eAmROLqicQRDsG5/66YEjXsKXWpR201KFXWfG9k9MA0BOKmWkoo+JxQlAXixXrLuTs5mfHjgy11Ku8Cv51YnTu89OAEBZ0Ofkgr8tvShoZV4HgMl88Tfv1TIobVB9iX0AAAP0SURBVCHaU0uGbT99+N3jqTQAFAV1OujP1qgY4dlALisVAcB28JMHjqRaf4/Asmk+f+z8wKkkaJOhdMXLXz/TwUxWLjoMNiz78bcPpFrNPbNY2lNLAFAyzMffPnBmLksQmKw9Fk6ZdaQXx4iYrDWr5Mu8ThCczeT+56tvZFtqQskF03b+4sWXd4+OOxibrD0nFzTOqKczrwxWNc7EiGTK6n/59Wvpstq2tt0F2sonfhmG7Xzvzb0PrB/e0tcdEIXpQEa2xaApeUlTeikqr5d4XeONynDiRCr9i0PH0+WW75Euxcb4xXdP2hjvWNNvsvZ0MCtbQsQILPZZmYxdEjWV0y3WAQL7J6ZeOnG6bLbblhZXpZ21BACm4zx75PhsufyR69Y7DC4Jmsrros0HTClkVc9Gr7OmxpvzDgxCyEsnTr9yctRynMbXfakpm+ZzR0+8NTbxldtu5lhG402Ds0KmLNh8wJKq5pRWeV3jzJKgzTsw3hmf/NmBo3abesCvpM21BAAOIbvOjB2YmL5zaGBDd0dHMKDxpsabGVIMmJJsixf2wEMsQRXDhiDQWTMvXex5VNM6l829eursybQ/Q6/mxMZ4Ml/89m933Tk0sLYjEZGlvKiCCLOQD5hSwJIqz6qiq3mDWeUNnTPNC7N5Bc04k8m+cnJ0It+eO2QvRPtrqULZtF449t7bY5P3rxvqCgWTQQUjUhS1onh+zIMIYgmyrwiKtR18eGrmrbHJM3PZa+QVO1tSn9x/pD8W2dTTdWN/X2XfkLKgl4XzqyQYgoAAZi4fAemW/dbYxKHJmfFc4Rp5VpdyrWgJADAhM8XSD9/aDwABQbh7eOC2wVXzRwki9u/OrpQN86cHjhydnm37QfNVOZfNn8vmnzt6IqHIH9963ep4bN7Kw4hcZvGdnJ176tCxdKm1pwfqpE20JPHC7+14aLFXvTEHIseuvWInsoJunM3mAYS1gzevHfSpiq3MFMBUBiKy2B+9PMTxXC6f1wxgem7fvLite4d61/hXwaagTbQUUkJ/+2/+23LXgnJN07bzSxTKEtOqWtKMdssWcI1jO7bttEwip6vSqlrad/JgyttyPUpLsOvInqLW2kFGqOdji9iMqKl4bOeH/91Hv7zctaD4wIt7fv2NH/3X5a5FvbSwliiUpqJVbTwKpdmgWqJQ/IFqiULxB6olCsUfqJYoFH+gWqJQ/IFqiULxB6olCsUfqJYoFH+gWqJQ/IFqiULxB6olCsUfqJYoFH+gWqJQ/IFqiULxB6olCsUfqJYoFH+gWqJQ/IFqiULxB6olCsUfqJYoFH+gWqJQ/IFqiULxB6olCsUfqJYoFH+gWqJQ/OH/A7q/0Gf7CZ8IAAAAAElFTkSuQmCC;" parent="c-pm6wDFBp0grKCKoOtM-154" vertex="1">
          <mxGeometry width="200" height="118.15" as="geometry" />
        </mxCell>
        <mxCell id="c-pm6wDFBp0grKCKoOtM-152" value="" style="ellipse;whiteSpace=wrap;html=1;aspect=fixed;fillColor=none;strokeColor=#d6b656;strokeWidth=3;" parent="c-pm6wDFBp0grKCKoOtM-154" vertex="1">
          <mxGeometry x="47" y="64.5" width="30" height="30" as="geometry" />
        </mxCell>
        <mxCell id="c-pm6wDFBp0grKCKoOtM-153" value="" style="ellipse;whiteSpace=wrap;html=1;aspect=fixed;fillColor=none;strokeColor=#d6b656;strokeWidth=3;" parent="c-pm6wDFBp0grKCKoOtM-154" vertex="1">
          <mxGeometry x="121" y="64.5" width="30" height="30" as="geometry" />
        </mxCell>
        <mxCell id="Qc-D_8kB3T4XEGCBFrq9-6" value="1&lt;span style=&quot;background-color: initial;&quot;&gt;&amp;nbsp;kOhm&lt;/span&gt;" style="rounded=0;whiteSpace=wrap;html=1;fillColor=#dae8fc;strokeColor=#6c8ebf;fontSize=19;" parent="c-pm6wDFBp0grKCKoOtM-154" vertex="1">
          <mxGeometry x="40" y="10" width="120" height="30" as="geometry" />
        </mxCell>
        <mxCell id="dNJTktvSiY-5-ggpWots-26" style="edgeStyle=orthogonalEdgeStyle;rounded=1;orthogonalLoop=1;jettySize=auto;html=1;strokeColor=#FFFF00;curved=0;strokeWidth=10;endArrow=none;startFill=0;exitX=0.5;exitY=1;exitDx=0;exitDy=0;entryX=0.957;entryY=0.966;entryDx=0;entryDy=0;entryPerimeter=0;" parent="1" source="Qc-D_8kB3T4XEGCBFrq9-18" target="c-pm6wDFBp0grKCKoOtM-1" edge="1">
          <mxGeometry relative="1" as="geometry">
            <Array as="points">
              <mxPoint x="705" y="880" />
              <mxPoint x="530" y="880" />
            </Array>
            <mxPoint x="700" y="490" as="sourcePoint" />
            <mxPoint x="770" y="940" as="targetPoint" />
          </mxGeometry>
        </mxCell>
        <mxCell id="dNJTktvSiY-5-ggpWots-28" style="edgeStyle=orthogonalEdgeStyle;shape=connector;curved=0;rounded=1;orthogonalLoop=1;jettySize=auto;html=1;strokeColor=#000000;strokeWidth=10;align=center;verticalAlign=middle;fontFamily=Helvetica;fontSize=11;fontColor=default;labelBackgroundColor=default;startFill=0;endArrow=none;exitX=0.5;exitY=1;exitDx=0;exitDy=0;" parent="1" source="c-pm6wDFBp0grKCKoOtM-152" target="c-pm6wDFBp0grKCKoOtM-49" edge="1">
          <mxGeometry relative="1" as="geometry">
            <mxPoint x="707.0001700689913" y="719.5714285714289" as="sourcePoint" />
            <Array as="points">
              <mxPoint x="672" y="460" />
              <mxPoint x="580" y="460" />
              <mxPoint x="580" y="300" />
              <mxPoint x="392" y="300" />
            </Array>
          </mxGeometry>
        </mxCell>
        <mxCell id="dNJTktvSiY-5-ggpWots-29" style="edgeStyle=orthogonalEdgeStyle;shape=connector;curved=0;rounded=1;orthogonalLoop=1;jettySize=auto;html=1;strokeColor=#FF3333;strokeWidth=10;align=center;verticalAlign=middle;fontFamily=Helvetica;fontSize=11;fontColor=default;labelBackgroundColor=default;startFill=0;endArrow=none;exitX=0.5;exitY=1;exitDx=0;exitDy=0;" parent="1" source="Qc-D_8kB3T4XEGCBFrq9-17" target="c-pm6wDFBp0grKCKoOtM-35" edge="1">
          <mxGeometry relative="1" as="geometry">
            <Array as="points">
              <mxPoint x="669" y="720" />
              <mxPoint x="590" y="720" />
              <mxPoint x="590" y="560" />
              <mxPoint x="462" y="560" />
            </Array>
            <mxPoint x="705" y="526" as="sourcePoint" />
          </mxGeometry>
        </mxCell>
        <mxCell id="c-pm6wDFBp0grKCKoOtM-155" style="edgeStyle=orthogonalEdgeStyle;shape=connector;rounded=1;orthogonalLoop=1;jettySize=auto;html=1;entryX=0.5;entryY=1;entryDx=0;entryDy=0;strokeColor=#FF3333;strokeWidth=10;align=center;verticalAlign=middle;fontFamily=Helvetica;fontSize=11;fontColor=default;labelBackgroundColor=default;startFill=0;endArrow=none;fillColor=#f8cecc;curved=0;" parent="1" source="c-pm6wDFBp0grKCKoOtM-153" target="Qc-D_8kB3T4XEGCBFrq9-19" edge="1">
          <mxGeometry relative="1" as="geometry">
            <Array as="points">
              <mxPoint x="746" y="460" />
              <mxPoint x="820" y="460" />
              <mxPoint x="820" y="720" />
              <mxPoint x="742" y="720" />
            </Array>
            <mxPoint x="759" y="527" as="targetPoint" />
          </mxGeometry>
        </mxCell>
      </root>
    </mxGraphModel>
  </diagram>
</mxfile>
